<svg xmlns="http://www.w3.org/2000/svg" width="89.86" height="13.73" viewBox="0 0 89.86 13.73">
  <g id="arcadis-logo-vector" transform="translate(-26.549 -293.8)">
    <path id="Path_5018" data-name="Path 5018" d="M34.812,293.845c-11.986.537-7.4,13.685-7.4,13.685a13.151,13.151,0,0,1,9.124-3.869h.022a3.042,3.042,0,0,1,3.108,3.846s3.533-4.159,1.565-8.878a4.823,4.823,0,0,0-4.495-2.75,5.931,5.931,0,0,0-2.169.425,2.365,2.365,0,0,0-1.61,3,1.422,1.422,0,0,0,1.319.783,1.375,1.375,0,0,0,.291-.022c1.744-.268,2.437-1.073,2.84-1.073a.323.323,0,0,1,.157.045c.246.2.022,1.006-2.214,1.9a7.121,7.121,0,0,1-2.5.47c-1.14,0-2.259-.335-2.616-1.5-.693-2.124,1.811-4.674,5.568-4.964a5.865,5.865,0,0,1,.626-.022,6.132,6.132,0,0,1,3.958,1.431,5.732,5.732,0,0,0-5.054-2.549c0,.067-.224.045-.514.045" transform="translate(0)" fill="#e76a25"/>
    <path id="Path_5022" data-name="Path 5022" d="M166.845,300.789v4.428h3.712a2.1,2.1,0,0,0,2.326-2.169,2.167,2.167,0,0,0-2.326-2.236h-3.712Zm8.564,10.4h-2.281l-3.712-4.2h-2.572v4.2H164.9V299h5.68a3.962,3.962,0,0,1,4.293,3.98,3.6,3.6,0,0,1-3.31,3.8Z" transform="translate(-107.413 -4.037)"/>
    <path id="Path_5023" data-name="Path 5023" d="M314.823,309.309h2.683a4.227,4.227,0,0,0,0-8.453h-2.683ZM317.506,299a6.094,6.094,0,1,1,0,12.187H312.9V299Z" transform="translate(-222.318 -4.037)"/>
    <rect id="Rectangle_7337" data-name="Rectangle 7337" width="1.923" height="12.187" transform="translate(102.791 294.963)"/>
    <path id="Path_5024" data-name="Path 5024" d="M390.674,300.541a3.766,3.766,0,0,0-3.019-1.364c-1.632,0-2.818.671-2.818,1.856s1.364,1.521,2.952,1.744c2.5.358,4.9,1.051,4.9,3.779-.022,2.728-2.5,3.757-5.054,3.757-2.326,0-4.137-.716-5.233-2.773l1.454-.984a4.252,4.252,0,0,0,3.8,2.013c1.453,0,3.086-.492,3.086-2.013,0-1.319-1.409-1.767-3.108-2.013-2.415-.335-4.718-.939-4.718-3.556-.022-2.527,2.5-3.488,4.7-3.488,1.767,0,3.511.425,4.539,2.057Z" transform="translate(-276.277 -2.873)"/>
    <path id="Path_5025" data-name="Path 5025" d="M116.559,311.187,111.081,299h-2.124L103.5,311.187h2.057l4.472-10.13,2.549,5.792h-4.047l-.783,1.789h5.613l1.118,2.549Z" transform="translate(-59.743 -4.037)"/>
    <path id="Path_5026" data-name="Path 5026" d="M228.956,298.3h-2.124l-3.555,7.916a6.388,6.388,0,0,1-.939,1.386,4.711,4.711,0,0,1-3.22,1.319,4.214,4.214,0,0,1-4.495-4.45,4.264,4.264,0,0,1,4.495-4.517,4.482,4.482,0,0,1,3.153,1.252l1.3-1.252a6.247,6.247,0,0,0-4.45-1.856,6.083,6.083,0,0,0-6.418,6.4,5.993,5.993,0,0,0,6.418,6.261,6.436,6.436,0,0,0,4.584-1.811,6.848,6.848,0,0,0,1.275-1.923l.157-.358.358-.805,2.415-5.479,2.549,5.792h-4.025l-.783,1.767h5.59l1.118,2.549h2.08Z" transform="translate(-144.524 -3.338)"/>
  </g>
</svg>
