<svg xmlns="http://www.w3.org/2000/svg" width="63.625" height="24.396" viewBox="0 0 63.625 24.396">
  <g id="Group_5759" data-name="Group 5759" transform="translate(-15.205 -206.732)">
    <path id="Path_5039" data-name="Path 5039" d="M39.6,218.93a12.2,12.2,0,1,1-12.2-12.2,12.2,12.2,0,0,1,12.2,12.2" transform="translate(-0.001)" fill="#fff"/>
    <g id="Group_5759-2" data-name="Group 5759" transform="translate(15.205 206.732)">
      <path id="Path_5040" data-name="Path 5040" d="M332.134,255.938H325.4a1.442,1.442,0,0,1-1.444-1.471V239.236a1.419,1.419,0,0,1,1.444-1.444h6.3c3.459,0,5.53,2.013,5.53,4.629a3.75,3.75,0,0,1-2.179,3.79,4.362,4.362,0,0,1,3.242,4.53c0,2.834-2.286,5.2-6.157,5.2m-.561-15.476h-4.7v4.577h4.7c1.863,0,2.741-1.036,2.741-2.29,0-1.28-.823-2.288-2.741-2.288m.666,7.22h-5.365v5.559h5.365a2.8,2.8,0,1,0,0-5.559m14.442,8.256h-4.468a1.442,1.442,0,0,1-1.471-1.471V239.236a1.442,1.442,0,0,1,1.471-1.444h4.468c6.057,0,9.4,4.06,9.4,9.073s-3.381,9.074-9.4,9.074m-.188-15.476h-2.808v12.8h2.808c4.285,0,6.674-2.533,6.674-6.4,0-3.9-2.348-6.4-6.674-6.4" transform="translate(-292.459 -234.623)" fill="#004186"/>
      <path id="Path_5041" data-name="Path 5041" d="M22.216,218.29l-6.892,2.351a12.318,12.318,0,0,1-.119-1.711,12.158,12.158,0,0,1,1.071-5.006l5.966,4.209c.037.026.052.049.052.076,0,.048-.038.068-.079.081m5.143-11.558a12.14,12.14,0,0,0-6.524,1.918s4.844,5.128,5.008,5.3c.034.035.058.055.088.055s.064-.019.075-.076c.064-.337,1.354-7.2,1.354-7.2m-3.841,8.8a.149.149,0,0,0-.014-.06L20.759,208.7a12.251,12.251,0,0,0-4.444,5.141l7.075,1.749a.253.253,0,0,0,.062.009.066.066,0,0,0,.067-.068m9.072,2.761,6.892,2.351a12.25,12.25,0,0,0-.951-6.717l-5.967,4.209c-.036.026-.052.049-.052.076,0,.048.038.068.079.081M28.8,213.928c.011.057.044.076.075.076s.054-.02.088-.055l5.008-5.3a12.142,12.142,0,0,0-6.524-1.918s1.29,6.86,1.354,7.2m2.553,1.669a.257.257,0,0,0,.062-.009l7.075-1.749a12.248,12.248,0,0,0-4.444-5.141s-2.732,6.737-2.746,6.771a.162.162,0,0,0-.014.06.067.067,0,0,0,.067.068" transform="translate(-15.205 -206.732)" fill="#e54706"/>
    </g>
    <path id="Path_5042" data-name="Path 5042" d="M28.606,352.437a12.2,12.2,0,0,0,12.06-10.362l-4.546.634a.129.129,0,0,0-.116.1,7.813,7.813,0,0,1-5.989,5.137,3.221,3.221,0,1,0-2.818,0,7.813,7.813,0,0,1-5.99-5.137.128.128,0,0,0-.115-.1l-4.547-.634a12.2,12.2,0,0,0,12.061,10.362" transform="translate(-1.203 -121.308)" fill="#e54706"/>
  </g>
</svg>
