
<!-- Generator: Adobe Illustrator 24.0.2, SVG Export Plug-In . SVG Version: 6.00 Build 0)  -->
<svg version="1.1" id="Call_icon" xmlns="http://www.w3.org/2000/svg" xmlns:xlink="http://www.w3.org/1999/xlink" x="0px" y="0px"
	 viewBox="0 0 19.5 19.5" style="enable-background:new 0 0 19.5 19.5;" xml:space="preserve">
<style type="text/css">
	.st0{fill:#FFFFFF;}
	.st1{fill:#0E7BD2;}
</style>
<circle id="Ellipse_387-2" class="st0" cx="9.8" cy="9.8" r="9.5"/>
<path id="Path_362" class="st1" d="M4.5,7.4c0-0.6,0.2-1.1,0.6-1.6c0.2-0.2,0.4-0.4,0.6-0.6c0.3-0.3,0.8-0.4,1.2,0l0,0
	c0.4,0.4,0.9,0.9,1.3,1.3c0.3,0.3,0.3,0.7,0.1,1.1C8.1,7.9,8,8.1,7.8,8.4C7.6,8.6,7.7,8.9,7.9,9.1c1,1,2,2,3,3
	c0.2,0.2,0.5,0.2,0.7,0.1c0.3-0.2,0.5-0.3,0.8-0.5s0.8-0.2,1.1,0.1c0.4,0.4,0.9,0.9,1.3,1.3c0.3,0.3,0.4,0.9,0,1.2l0,0
	c-0.2,0.2-0.5,0.5-0.7,0.7c-0.7,0.7-1.8,0.8-2.7,0.3c-2.1-1.2-4-2.8-5.4-4.8C5.5,9.8,5.1,9.1,4.6,8.4C4.6,8.2,4.5,7.8,4.5,7.4z"/>
</svg>
