<svg xmlns="http://www.w3.org/2000/svg" xmlns:xlink="http://www.w3.org/1999/xlink" width="151" height="80.816" viewBox="0 0 151 80.816">
  <defs>
    <filter id="Path_1393" x="0" y="13.117" width="146.347" height="67.699" filterUnits="userSpaceOnUse">
      <feOffset dy="3" input="SourceAlpha"/>
      <feGaussianBlur stdDeviation="3" result="blur"/>
      <feFlood flood-opacity="0.161"/>
      <feComposite operator="in" in2="blur"/>
      <feComposite in="SourceGraphic"/>
    </filter>
  </defs>
  <g id="Chatbot" transform="translate(9)">
    <rect id="Rectangle_5921" data-name="Rectangle 5921" width="79" height="80" rx="39.5" transform="translate(63)" fill="#01ba4c"/>
    <g transform="matrix(1, 0, 0, 1, -9, 0)" filter="url(#Path_1393)">
      <path id="Path_1393-2" data-name="Path 1393" d="M1757.347,962.135V963.4a16.685,16.685,0,0,1-16.685,16.685h0a1.049,1.049,0,0,0-.9.518l-8.108,13.851a1.4,1.4,0,0,1-2.413,0l-8.063-13.763a1.23,1.23,0,0,0-1.06-.607h-74.428A16.685,16.685,0,0,1,1629,963.4v-1.267a16.685,16.685,0,0,1,16.685-16.685h94.976A16.685,16.685,0,0,1,1757.347,962.135Z" transform="translate(-1620 -926.33)" fill="#fff"/>
    </g>
    <text id="Chat_with_Us" data-name="Chat with Us" transform="translate(13.124 43.068)" fill="#0e7bd2" font-size="18" font-family="Roboto-Regular, Roboto"><tspan x="0" y="0">Chat with Us</tspan></text>
  </g>
</svg>
