<svg xmlns="http://www.w3.org/2000/svg" width="91.818" height="18.375" viewBox="0 0 91.818 18.375">
  <g id="Clairvolex" transform="translate(-0.099)">
    <path id="Path_5027" data-name="Path 5027" d="M7.267,21.688a3.243,3.243,0,0,1,.28.721,3.924,3.924,0,0,1,.16.881,7.568,7.568,0,0,1-2.763.481,4.986,4.986,0,0,1-3.924-1.482,5.8,5.8,0,0,1-1.321-4,6.927,6.927,0,0,1,.32-2.162A4.925,4.925,0,0,1,.981,14.4a4.565,4.565,0,0,1,1.6-1.161,5.406,5.406,0,0,1,2.242-.44l1.522.12a6.247,6.247,0,0,1,1.241.32,4.2,4.2,0,0,1-.08.8,3.564,3.564,0,0,1-.24.8,6.967,6.967,0,0,0-2.282-.36,2.723,2.723,0,0,0-2.363,1.041,4.485,4.485,0,0,0-.761,2.763,4.051,4.051,0,0,0,.881,2.883,3.2,3.2,0,0,0,2.4.921l1.121-.08a5.005,5.005,0,0,0,1.041-.28" transform="translate(0.4 -7.673)" fill="#505151"/>
    <path id="Path_5028" data-name="Path 5028" d="M23.4,2.2h2V14.013a3.123,3.123,0,0,0,.12.881,1.241,1.241,0,0,0,.28.521.8.8,0,0,0,.4.24h.921l.4-.08a6.206,6.206,0,0,1,.2,1.562l-.681.12h-.8a4.124,4.124,0,0,1-1.121-.16,2.362,2.362,0,0,1-.881-.481,2.2,2.2,0,0,1-.6-.8,3.6,3.6,0,0,1-.24-1.361Z" transform="translate(-13.81 -1.319)" fill="#505151"/>
    <path id="Path_5029" data-name="Path 5029" d="M41.2,18.606l-.761-.08h-.8a3.324,3.324,0,0,0-1.922.481,1.642,1.642,0,0,0-.681,1.442,1.762,1.762,0,0,0,.24.961,1.562,1.562,0,0,0,.521.481,1.962,1.962,0,0,0,.761.24h1.762l.881-.16Zm0-1.962a2.043,2.043,0,0,0-.6-1.682,2.883,2.883,0,0,0-1.8-.481l-1.321.12-1.2.28a3.2,3.2,0,0,1-.4-1.6,9.53,9.53,0,0,1,1.522-.36L39,12.8a4.527,4.527,0,0,1,3.083.921,3.877,3.877,0,0,1,1.081,2.963v6.567l-1.722.32a12.453,12.453,0,0,1-2.082.16,8.129,8.129,0,0,1-1.8-.2,3.684,3.684,0,0,1-1.361-.521,2.763,2.763,0,0,1-.881-1.041A3.524,3.524,0,0,1,35,20.448a3.123,3.123,0,0,1,1.321-2.643,4.325,4.325,0,0,1,1.4-.641,6.367,6.367,0,0,1,1.682-.2h1.081l.721.08Z" transform="translate(-20.764 -7.675)" fill="#505151"/>
    <path id="Path_5030" data-name="Path 5030" d="M59.9,4.462a4.084,4.084,0,0,1-.04-.521V2.9a3.524,3.524,0,0,1,.04-.521l.561-.08h1.081l.561.08a3.924,3.924,0,0,1,.04.521V3.942a4.525,4.525,0,0,1-.04.521l-.561.08H60.462l-.561-.08m.44,3.884H59.02a2.362,2.362,0,0,1-.08-.36c0-.16-.04-.28-.04-.4a1.362,1.362,0,0,1,.04-.4,2.322,2.322,0,0,1,.08-.36h3.324V17.236l-.521.08h-1l-.481-.08Z" transform="translate(-35.096 -1.379)" fill="#505151"/>
    <path id="Path_5031" data-name="Path 5031" d="M73.6,13.277l.44-.08h.881l.4.08c.04.2.08.481.12.8a7.245,7.245,0,0,1,.08.841,4.2,4.2,0,0,1,1.121-1.2,3,3,0,0,1,1.8-.521h.641a3.366,3.366,0,0,1,.08.4v.44a4.444,4.444,0,0,1-.04.521l-.08.561h-.6a3.524,3.524,0,0,0-1.041.16,2.2,2.2,0,0,0-.881.521,2.683,2.683,0,0,0-.641,1.081,5.366,5.366,0,0,0-.24,1.722v5.206l-.481.08H74.121l-.521-.08Z" transform="translate(-43.909 -7.911)" fill="#505151"/>
    <path id="Path_5032" data-name="Path 5032" d="M89.4,13.28l.6-.08h1.121l.561.08,2.8,8.649,2.883-8.649.521-.08H98.97l.561.08L95.446,23.771l-.521.08h-.961l-.48-.08Z" transform="translate(-53.383 -7.914)" fill="#505151"/>
    <path id="Path_5033" data-name="Path 5033" d="M166.1,2.2h2V14.013a3.123,3.123,0,0,0,.12.881,1.241,1.241,0,0,0,.28.521.8.8,0,0,0,.4.24h.921l.4-.08a6.127,6.127,0,0,1,.2,1.562l-.681.12h-.761a4.124,4.124,0,0,1-1.121-.16,2.363,2.363,0,0,1-.881-.481,2.2,2.2,0,0,1-.6-.881,3.644,3.644,0,0,1-.24-1.361Z" transform="translate(-99.37 -1.319)" fill="#505151"/>
    <path id="Path_5034" data-name="Path 5034" d="M186.127,17.4a3.844,3.844,0,0,0-.16-1.081,2.763,2.763,0,0,0-.44-.921,2.2,2.2,0,0,0-.761-.641,2.723,2.723,0,0,0-3,.521,3.684,3.684,0,0,0-.8,2.122Zm-5.165,1.522a3.461,3.461,0,0,0,.881,2.523,3.471,3.471,0,0,0,2.483.8,7.528,7.528,0,0,0,2.763-.521,3.2,3.2,0,0,1,.28.761,4.883,4.883,0,0,1,.12.881,6.847,6.847,0,0,1-1.482.44,10.331,10.331,0,0,1-1.8.16,6.727,6.727,0,0,1-2.443-.4,4.285,4.285,0,0,1-2.643-2.843,7.288,7.288,0,0,1-.32-2.162,7.728,7.728,0,0,1,.28-2.162A4.885,4.885,0,0,1,180,14.639a4.4,4.4,0,0,1,1.522-1.2,5.085,5.085,0,0,1,2.2-.44,4.565,4.565,0,0,1,1.882.36,3.844,3.844,0,0,1,1.361,1,4.4,4.4,0,0,1,.841,1.522,6.287,6.287,0,0,1,.28,1.922,3.03,3.03,0,0,1-.04.6v.561Z" transform="translate(-106.984 -7.792)" fill="#505151"/>
    <path id="Path_5035" data-name="Path 5035" d="M209.785,18.365l2.2-5.045.561-.08h.561l1,.08-2.443,4.965,2.883,5.486-.561.08h-.561l-1-.08Zm-2.042-.04L205.26,13.28l1.041-.08h.561l.6.08,2.162,5.045-2.6,5.406-.521.08h-1.041l-.561-.08Z" transform="translate(-122.634 -7.914)" fill="#505151"/>
    <path id="Path_5036" data-name="Path 5036" d="M128.034,16.818A8.849,8.849,0,0,1,124.11,0a9.25,9.25,0,1,0,7.768,15.937,8.849,8.849,0,0,1-3.844.881" transform="translate(-69.553)" fill="#e86d17"/>
    <path id="Path_5037" data-name="Path 5037" d="M142.253,13.463a6.367,6.367,0,0,1-12.053,2.8A6.647,6.647,0,1,0,141.652,10.7a6.327,6.327,0,0,1,.641,2.763" transform="translate(-77.845 -6.415)" fill="#505151"/>
    <path id="Path_5038" data-name="Path 5038" d="M136.562,1.87A5.045,5.045,0,0,1,138.8,11.4a5.246,5.246,0,1,0-4.4-9.05,5.005,5.005,0,0,1,2.2-.481" transform="translate(-80.364 -0.589)" fill="#e86d17"/>
  </g>
</svg>
