<svg xmlns="http://www.w3.org/2000/svg" width="121.873" height="27.283" viewBox="0 0 121.873 27.283">
  <g id="concentrix-corporation-vector-logo" transform="translate(-23.048 -256.121)">
    <path id="Path_4961" data-name="Path 4961" d="M23.262,261.237c-.975,3.068,1.443,6.847,6.136,10.281-3.515-3.027-5.222-6.2-4.328-8.838,1.808-5.526,14.12-6.969,27.489-2.844a57.952,57.952,0,0,1,10,3.677,55.406,55.406,0,0,0-11.784-4.978c-13.409-4.1-25.7-2.824-27.509,2.7" transform="translate(0)" fill="#06357a"/>
    <path id="Path_4962" data-name="Path 4962" d="M62.152,292.309c-4.917-2.783-7.721-6.38-6.969-9.326.549-2.052,2.783-3.535,6.014-4.084-4.084.345-7.233,1.91-7.883,4.287-.792,3.088,2.276,6.806,7.538,9.691l1.3-.569" transform="translate(-24.018 -18.151)" fill="#00929f"/>
    <path id="Path_4963" data-name="Path 4963" d="M94.5,298.639c.853-2.6,5.77-3.535,13.064-1.219a22.655,22.655,0,0,1,7.883,4.043,23.486,23.486,0,0,0-7.05-3.373c-6.359-1.93-12.211-1.4-13.064,1.219-.406,1.26.406,2.763,2.052,4.206-2.194-1.646-3.352-3.434-2.885-4.876" transform="translate(-56.851 -31.856)" fill="#f15d22"/>
    <path id="Path_4964" data-name="Path 4964" d="M132.124,319.7c-.65,1.605-4.043,1.219-6.969.223a10.553,10.553,0,0,1-3.556-1.991,10.744,10.744,0,0,0,3.23,1.5c2.905.955,5.831.65,6.258-.244.833-1.727-1.869-2.763-3.352-3.19a10.551,10.551,0,0,1,2.58.894c1.747,1,2.133,2.032,1.808,2.8" transform="translate(-78.529 -47.713)" fill="#ffd200"/>
    <path id="Path_4965" data-name="Path 4965" d="M34.6,351.471a1.542,1.542,0,0,0,1.1.345c.67,0,1.219-.284,1.219-.65,0-.67-1.808-1.666-4.856-1.666-4.226,0-6.664,1.849-6.664,4.1,0,2.174,2.093,4.206,6.745,4.206,3.007,0,4.592-.975,4.592-1.443,0-.223-.3-.366-.67-.366a1.674,1.674,0,0,0-.772.224,6.79,6.79,0,0,1-2.479.467c-2.418,0-4.449-1.219-4.449-3.434,0-1.808,1.564-2.824,3.474-2.824a3.7,3.7,0,0,1,2.763,1.036" transform="translate(-1.874 -74.407)" fill="#06357a"/>
    <path id="Path_4966" data-name="Path 4966" d="M99.066,353.462c-.163-2.113-2.418-3.962-6.542-3.962-4.206,0-6.623,1.849-6.623,4.165,0,2.723,3.068,4.145,6.6,4.145,3.962.041,6.745-1.828,6.562-4.348m-2.905.041a3.017,3.017,0,0,1-.792,2.3,4.169,4.169,0,0,1-2.824.975c-.792,0-2.946-.223-3.535-2.052a3.555,3.555,0,0,1-.163-1.138,2.777,2.777,0,0,1,2.113-2.844,4.857,4.857,0,0,1,1.564-.224,4.419,4.419,0,0,1,2.763.894A2.629,2.629,0,0,1,96.16,353.5Z" transform="translate(-50.082 -74.407)" fill="#06357a"/>
    <path id="Path_4967" data-name="Path 4967" d="M162.2,350.609a.8.8,0,0,0-.67-.223h-1.564c-.284,0-.467.041-.467.244v7.517c0,.223.122.223.467.223h1.28c.345,0,.406-.061.406-.244v-5.465l7.152,5.465a.758.758,0,0,0,.549.244h1.158c.3,0,.427-.041.427-.223v-7.538c0-.183-.1-.244-.406-.223h-1.28c-.345,0-.406.061-.406.223v5.039l-6.644-5.039" transform="translate(-108.729 -75.109)" fill="#06357a"/>
    <path id="Path_4968" data-name="Path 4968" d="M234.2,351.471a1.542,1.542,0,0,0,1.1.345c.67,0,1.219-.284,1.219-.65,0-.67-1.808-1.666-4.856-1.666-4.267,0-6.664,1.849-6.664,4.1,0,2.174,2.093,4.206,6.725,4.206,3.007,0,4.592-.975,4.592-1.443,0-.223-.3-.366-.67-.366a1.674,1.674,0,0,0-.772.224,6.79,6.79,0,0,1-2.479.467c-2.418,0-4.449-1.219-4.449-3.434,0-1.808,1.564-2.824,3.474-2.824a3.718,3.718,0,0,1,2.783,1.036" transform="translate(-160.921 -74.407)" fill="#06357a"/>
    <path id="Path_4969" data-name="Path 4969" d="M300.167,354.748c.345,0,.467-.041.467-.224v-.549c0-.183-.122-.223-.427-.223h-4.145v-2.336h4.9c.345,0,.488-.041.467-.244v-.549c.041-.223-.183-.223-.467-.223h-7.172c-.366,0-.488.061-.488.3v7.4c0,.244.163.244.488.244h7.172c.345,0,.427-.041.467-.163v-.65c0-.224-.163-.224-.467-.224h-4.917v-2.6h4.124" transform="translate(-215.344 -75.124)" fill="#06357a"/>
    <path id="Path_4970" data-name="Path 4970" d="M347.562,350.609a.8.8,0,0,0-.67-.223h-1.524c-.284,0-.467.041-.467.244v7.517c0,.223.122.223.467.223h1.28c.345,0,.406-.061.406-.244v-5.465l7.111,5.465a.758.758,0,0,0,.549.244h1.158c.3,0,.427-.041.427-.223v-7.538c0-.183-.1-.244-.406-.223h-1.28c-.345,0-.406.061-.406.223v5.039l-6.644-5.039" transform="translate(-256.461 -75.109)" fill="#06357a"/>
    <path id="Path_4971" data-name="Path 4971" d="M419.349,351.516c.366,0,.467-.061.467-.244v-.549c0-.183-.163-.223-.467-.223h-9.082c-.3,0-.467.041-.467.244v.528c0,.183.1.244.467.244H413.4V358.2c0,.223.122.244.488.284h1.869c.345,0,.427-.1.427-.284v-6.684h3.169" transform="translate(-308.175 -75.204)" fill="#06357a"/>
    <path id="Path_4972" data-name="Path 4972" d="M467.6,357.583c0,.224.163.244.467.244h1.808c.406,0,.467-.061.467-.284V354.7c0-.1,0-.3.427-.3a.88.88,0,0,1,.731.3l3.088,2.885a.732.732,0,0,0,.67.224h2.093c.163,0,.406,0,.406-.163,0-.061-.1-.163-.163-.223l-3.86-3.312c1.443-.244,3.23-.894,3.23-2.154a1.9,1.9,0,0,0-1.341-1.666,11.536,11.536,0,0,0-4.267-.589,29.375,29.375,0,0,0-3.413.183c-.284.061-.345.122-.345.366v7.335m2.743-6.908c.223,0,.488-.041.914-.041.792,0,2.946,0,2.946,1.524,0,1.036-1.28,1.443-2.519,1.524a7,7,0,0,1-1.341,0Z" transform="translate(-354.231 -74.566)" fill="#06357a"/>
    <path id="Path_4973" data-name="Path 4973" d="M529.224,350.744c0-.224-.122-.244-.427-.244h-1.971c-.366,0-.427.1-.427.244v7.477c0,.223.163.244.467.244h1.93c.284,0,.467-.041.467-.244v-7.477" transform="translate(-401.085 -75.204)" fill="#06357a"/>
    <path id="Path_4974" data-name="Path 4974" d="M558.161,358.141c.223.224.284.224.67.224h1.991c.163,0,.406,0,.406-.163,0-.061-.061-.122-.122-.183L557,354l3.474-3.251c.061-.061.122-.122.122-.183,0-.163-.244-.163-.366-.163h-1.4c-.366,0-.406,0-.65.224l-2.336,2.215-2.276-2.215a.817.817,0,0,0-.711-.224h-1.869c-.122,0-.061,0-.061.163a.3.3,0,0,0,.1.163l3.23,3.6-3.677,3.738c-.163.122-.183.183-.183.224,0,.122.284.122.427.122h1.1a.674.674,0,0,0,.61-.223l2.885-2.662,2.743,2.621" transform="translate(-420.209 -75.124)" fill="#06357a"/>
    <path id="Path_4975" data-name="Path 4975" d="M117.766,284.441c-2.54-3.982-7.883-8.228-15.583-10.788-6.725-2.276-14.425-3.434-19.383-3.088a60.587,60.587,0,0,1,16.5,2.946c8.168,2.54,13.775,6.928,16.355,11.053,0,0,.488-.041.955-.061a4.208,4.208,0,0,1,1.158-.061" transform="translate(-47.612 -11.461)" fill="#c1d82f"/>
    <path id="Path_4976" data-name="Path 4976" d="M604.45,340.144h-.65V339.9h1.605v.244h-.67v1.91h-.284Z" transform="translate(-462.759 -66.757)" fill="#06357a"/>
    <path id="Path_4977" data-name="Path 4977" d="M614.189,341.178a7.2,7.2,0,0,1-.041-.914h0a6.782,6.782,0,0,1-.284.833l-.366,1.036h-.224l-.345-1.016c-.1-.3-.183-.589-.244-.833h0c0,.284-.041.609-.041.955l-.061.914H612.3l.163-2.154h.345l.366,1.036a7.206,7.206,0,0,1,.223.731h0a7.228,7.228,0,0,1,.224-.731l.366-1.036h.345l.122,2.154h-.284Z" transform="translate(-469.532 -66.837)" fill="#06357a"/>
  </g>
</svg>
