<?xml version="1.0" encoding="utf-8"?>
<!-- Generator: Adobe Illustrator 22.0.1, SVG Export Plug-In . SVG Version: 6.00 Build 0)  -->
<svg version="1.1" id="Layer_1_dufry" xmlns="http://www.w3.org/2000/svg" xmlns:xlink="http://www.w3.org/1999/xlink" x="0px"
	 y="0px" viewBox="0 0 90 66" style="enable-background:new 0 0 90 66;" xml:space="preserve">
<style type="text/css">
	.st0{fill:#DF021B;}
</style>
<g>
	<path class="st0" d="M37.7,19.2h4.9v5.3h4.8v-5.3h4.9v3.5c0,4.4-1.3,7.9-7.3,7.9s-7.3-3.4-7.3-7.9V19.2L37.7,19.2z M45,34.7
		c9.5,0,12.1-5.5,12.1-12.3V15h-9.7V9.8h-4.8v5.3h-9.7v7.4C32.9,29.3,35.5,34.7,45,34.7L45,34.7z M35.1,50.7c0,2-0.6,3.5-3.3,3.5
		s-3.3-1.6-3.3-3.5v-8.8h-2.2v8.7c0,3.1,1.2,5.5,5.5,5.5c4.3,0,5.5-2.5,5.5-5.5v-8.7h-2.2V50.7L35.1,50.7z M16.1,54.1h-2.2V43.7h2.2
		c3.2,0,4.7,1.4,4.7,5.2C20.8,52.6,19.3,54.1,16.1,54.1L16.1,54.1z M16.2,41.9h-4.6V56h4.6c4.2,0,6.8-2,6.8-7.1S20.5,41.9,16.2,41.9
		L16.2,41.9z M55.4,48v-4.2H59c1.8,0,3.2,0.3,3.2,2.2c0,1.8-1.4,2.2-3.3,2.2L55.4,48L55.4,48z M64.4,45.8c0-3-2.2-4-5.5-4h-5.7v14.1
		h2.2v-6.1h3.1l3.5,6.1h2.4l-3.8-6.3C63,49.4,64.4,48.3,64.4,45.8L64.4,45.8z M41.2,55.9h2.2v-6.1H49V48h-5.7v-4.2h7.1v-1.8h-9.1
		V55.9L41.2,55.9z M76,41.9l-3.8,6.8l-3.8-6.8H66l5.1,8.5V56h2.2v-5.6l5.1-8.5H76L76,41.9z"/>
</g>
</svg>
