<svg xmlns="http://www.w3.org/2000/svg" width="8.299" height="17.881" viewBox="0 0 8.299 17.881">
  <g id="Group_4715" data-name="Group 4715" transform="translate(20188.143 20350.998)">
    <path id="Path_324" data-name="Path 324" d="M3743.206,4856.158c0-1.408,0-2.818,0-4.227,0-.177-.045-.238-.228-.233-.44.012-.881,0-1.322.007-.164,0-.225-.032-.223-.212q.014-1.378,0-2.756c0-.163.057-.2.205-.2.465.008.931,0,1.4,0,.131,0,.168-.043.169-.171.01-.764-.04-1.528.023-2.289a3.649,3.649,0,0,1,.979-2.32,3.283,3.283,0,0,1,2.067-.959c.89-.1,1.786-.024,2.679-.039.2,0,.409,0,.614,0,.095,0,.132.033.131.13q0,1.408,0,2.813c0,.12-.06.125-.15.125q-.875,0-1.75,0a.769.769,0,0,0-.881.862c0,.559,0,1.117,0,1.676,0,.142.047.179.183.178.813,0,1.626,0,2.439-.007.168,0,.212.045.194.211-.1.906-.193,1.813-.276,2.723-.017.185-.081.234-.263.23-.676-.011-1.353,0-2.03,0-.244,0-.245,0-.245.242q0,4.226,0,8.453c0,.188-.049.238-.237.237q-1.638-.015-3.277,0c-.169,0-.208-.05-.207-.21C3743.208,4859,3743.206,4857.579,3743.206,4856.158Z" transform="translate(-23929.58 -25193.752)" fill="#fff"/>
  </g>
</svg>
