<svg id="Component_144_14" data-name="Component 144 – 14" xmlns="http://www.w3.org/2000/svg" width="26.008" height="21.633" viewBox="0 0 26.008 21.633">
  <path id="Path_1390" data-name="Path 1390" d="M8581.5,4331.484h-2.81a.3.3,0,0,0-.3.3v9.152a.565.565,0,0,1-.562.564h-5.2a.482.482,0,0,1-.48-.481v-5.375a1.028,1.028,0,0,0-1.027-1.028H8567a1.028,1.028,0,0,0-1.027,1.028v5.375a.482.482,0,0,1-.48.481h-5.2a.565.565,0,0,1-.563-.564v-9.149a.3.3,0,0,0-.3-.3h-2.808a.563.563,0,0,1-.362-.994L8568.691,4320a.563.563,0,0,1,.728,0l12.438,10.489A.562.562,0,0,1,8581.5,4331.484Z" transform="translate(-8556.052 -4319.87)" fill="#4eb1ff"/>
</svg>
