<svg id="Group_3511" data-name="Group 3511" xmlns="http://www.w3.org/2000/svg" width="16.463" height="16.463" viewBox="0 0 16.463 16.463">
  <path id="Path_328" data-name="Path 328" d="M3663.914,4547.861c-1.172,0-2.345-.008-3.518,0a4.784,4.784,0,0,1-4.81-4.731q-.015-3.51,0-7.022a4.773,4.773,0,0,1,4.746-4.705c2.285,0,4.571.014,6.856,0a4.812,4.812,0,0,1,4.509,3.007,4.651,4.651,0,0,1,.343,1.755q0,3.428,0,6.856a4.8,4.8,0,0,1-3.226,4.58,4.934,4.934,0,0,1-1.59.264q-1.656,0-3.311,0Zm-.151-15.192h0q-1.725,0-3.449,0a3.2,3.2,0,0,0-1.458.336,3.442,3.442,0,0,0-2.009,3.264q-.014,3.406,0,6.814a3.488,3.488,0,0,0,3.49,3.507c2.327.012,4.654,0,6.98,0a3.338,3.338,0,0,0,1.229-.241,3.5,3.5,0,0,0,2.225-3.277q0-3.088,0-6.177a7.855,7.855,0,0,0-.035-1.217,3.492,3.492,0,0,0-3.5-3.011C3666.08,4532.665,3664.921,4532.668,3663.763,4532.668Z" transform="translate(-3655.578 -4531.4)" fill="#fff"/>
  <path id="Path_329" data-name="Path 329" d="M3801.61,4672.965a4.431,4.431,0,1,1-4.482-4.414A4.456,4.456,0,0,1,3801.61,4672.965Zm-7.6.085a3.167,3.167,0,1,0,3.05-3.233A3.163,3.163,0,0,0,3794.013,4673.051Z" transform="translate(-3788.947 -4664.752)" fill="#fff"/>
  <path id="Path_330" data-name="Path 330" d="M4112.658,4623.482a.63.63,0,1,1,.626.638A.631.631,0,0,1,4112.658,4623.482Z" transform="translate(-4099.994 -4620.318)" fill="#fff"/>
</svg>
