<svg id="karle_infra_logo" xmlns="http://www.w3.org/2000/svg" width="370.128" height="158.001" viewBox="0 0 370.128 158.001">
  <defs>
    <style>
      #karle_infra_logo .cls-1 {
        fill: #f1220b;
      }
    </style>
  </defs>
  <g id="Group_5366" data-name="Group 5366" transform="translate(-1406 -1430.999)">
    <path id="Path_4417" data-name="Path 4417" d="M898.5,1110.2l-7.819-8.546v8.546h-4.946v-19.3h4.946v7.819l7-7.819h5.578l-7.978,9.042,9.572,10.27Z" transform="translate(520.268 415.92)"/>
    <path id="Path_4418" data-name="Path 4418" d="M909.985,1110.207l-1.691-4.862H901.35l-1.751,4.862h-5.3l8.54-19.32h4.679l7.9,19.32Zm-5.031-14.426-2.246,6.126h4.318Z" transform="translate(533.413 415.913)"/>
    <path id="Path_4419" data-name="Path 4419" d="M916.52,1110.2l-6.1-7.732h-.292v7.732H905.19v-19.3H913.7c3.342,0,7.3.946,7.3,5.784a5.4,5.4,0,0,1-4.805,5.646l6.4,7.887h-6.068m-2.659-15.824h-3.735v4.6h3.767a2.081,2.081,0,0,0,2.107-2.3,2.012,2.012,0,0,0-2.139-2.3" transform="translate(550.116 415.92)"/>
    <path id="Path_4420" data-name="Path 4420" d="M915.053,1110.2v-19.3h4.938v15.733H928.3v3.578Z" transform="translate(565.249 415.92)"/>
    <path id="Path_4421" data-name="Path 4421" d="M922.544,1110.2v-19.3h12.882v3.489h-7.942v4.09h7.261v3.489h-7.261v4.759h8.234v3.484Z" transform="translate(576.742 415.92)"/>
    <rect id="Rectangle_6910" data-name="Rectangle 6910" width="1.494" height="19.318" transform="translate(1658.839 1506.808)"/>
    <path id="Path_4422" data-name="Path 4422" d="M1004.773,1110.2l-11.143-17.708V1110.2h-1.294v-19.3h2.021l11.067,17.7v-17.7h1.413v19.312Z" transform="translate(683.823 415.92)"/>
    <path id="Path_4423" data-name="Path 4423" d="M1005.966,1092.023v7.762h9.278v1.069h-9.278v9.349h-1.492v-19.3h11.162v1.127Z" transform="translate(702.434 415.92)"/>
    <path id="Path_4424" data-name="Path 4424" d="M1026.29,1110.206l-7.205-8.924h-2.854v8.924h-1.493v-19.317h5.9c3.342,0,6.462,1.224,6.462,4.989,0,2.927-1.49,5.372-6.3,5.372l7.308,8.956h-1.822m-5.481-18.213h-4.572v8.188h4.615c3.66,0,4.7-1.884,4.7-4.3,0-2.635-1.726-3.885-4.747-3.885" transform="translate(718.193 415.914)"/>
    <path id="Path_4425" data-name="Path 4425" d="M1040.674,1110.207l-2.443-6.062h-9.211l-2.595,6.062H1024.9l8.532-19.32h1.016l7.909,19.32Zm-6.817-17.289-4.374,10.186h8.368Z" transform="translate(733.772 415.913)"/>
    <path id="Path_4426" data-name="Path 4426" class="cls-1" d="M990.592,1202.62l-30.9-5.642V1070.189l30.9-6.309Z" transform="translate(633.74 382.925)"/>
    <path id="Path_4427" data-name="Path 4427" class="cls-1" d="M977.82,1214.762l-36.885-6.614v-144l36.885-7.391Z" transform="translate(604.957 374.238)"/>
  </g>
</svg>
