<!-- Generator: Adobe Illustrator 24.0.2, SVG Export Plug-In . SVG Version: 6.00 Build 0)  -->
<svg version="1.1" id="Layer_1" xmlns="http://www.w3.org/2000/svg" xmlns:xlink="http://www.w3.org/1999/xlink" x="0px" y="0px"
	 viewBox="0 0 17.9 17.9" style="enable-background:new 0 0 17.9 17.9;" xml:space="preserve">
<style type="text/css">
	#Layer_1 .st0{fill:#053a6e;}
</style>
<path class="st0" d="M9,0.1c-4.9,0-8.9,4-8.9,8.9s4,8.9,8.9,8.9s8.9-4,8.9-8.9S13.9,0.1,9,0.1z M6.4,13.5H4.2V7h2.2V13.5z M5.3,6.1
	L5.3,6.1C4.6,6.1,4.1,5.6,4.1,5c0-0.6,0.5-1.1,1.2-1.1S6.5,4.4,6.5,5C6.5,5.6,6.1,6.1,5.3,6.1z M14.2,13.5H12V10
	c0-0.9-0.3-1.5-1.1-1.5c-0.6,0-1,0.4-1.1,0.8C9.8,9.5,9.8,9.7,9.8,9.9v3.6H7.6c0,0,0-5.9,0-6.5h2.2v0.9c0.3-0.4,0.8-1.1,2-1.1
	c1.4,0,2.5,0.9,2.5,2.9V13.5z"/>
</svg>
