<!-- Generator: Adobe Illustrator 24.0.2, SVG Export Plug-In . SVG Version: 6.00 Build 0)  -->
<svg version="1.1" class="w-100" id="Layer_1" xmlns="http://www.w3.org/2000/svg" xmlns:xlink="http://www.w3.org/1999/xlink" x="0px" y="0px"
	 viewBox="0 0 60.6 18.7" style="enable-background:new 0 0 60.6 18.7;" xml:space="preserve">
<style type="text/css">
	#Layer_1 .st0{fill:#FFA50A;}
	#Layer_1 .st1{fill:#0E7BD2;}
	#Layer_1 .st2{fill:#0062B0;}
</style>
<g class="bus-g animate-speed-one">
	<g class="animate-speed-one location_x5F_icon_x5F_1">
		<g id="location_x5F_icon_x5F_1" transform="translate(18995 16724)">
			<g id="Group_3443" transform="translate(-21966.313 -21705.682)">
				<rect id="Rectangle_5294" x="2989" y="4981.7" class="st0" width="4.6" height="18.7"/>
				<rect id="Rectangle_5295" x="2995.7" y="4981.7" class="st0" width="36.2" height="18.7"/>
				<path id="Path_344" class="st0" d="M2989,4981.7v18.7h-17.2c-0.3,0-0.5-0.2-0.5-0.5c0-0.1,0.1-0.3,0.2-0.4l7-7.1L2989,4981.7z"/>
				<rect id="Rectangle_5296" x="2998.7" y="4985.3" class="st1" width="10.9" height="7.1"/>
				<rect id="Rectangle_5297" x="2998.7" y="4985.3" class="st2" width="2" height="7.1"/>
				<rect id="Rectangle_5298" x="3012.6" y="4985.3" class="st1" width="10.9" height="7.1"/>
				<rect id="Rectangle_5299" x="3026.5" y="4985.3" class="st1" width="5.4" height="7.1"/>
				<path id="Path_345" class="st1" d="M2989,4981.7v14.5h-14.2L2989,4981.7z"/>
				<rect id="Rectangle_5300" x="3012.6" y="4985.3" class="st2" width="2" height="7.1"/>
				<rect id="Rectangle_5301" x="3026.5" y="4985.3" class="st2" width="2" height="7.1"/>
			</g>
		</g>
	</g>
	<g class="animate-speed-one  location_x5F_icon_x5F_2">
		<g id="location_x5F_icon_x5F_2" transform="translate(18995 16724)">
			<g id="Group_3444" transform="translate(-21966.313 -21705.682)">
				<rect id="Rectangle_5294" x="2989" y="4981.7" class="st0" width="4.6" height="18.7"/>
				<rect id="Rectangle_5295" x="2995.7" y="4981.7" class="st0" width="36.2" height="18.7"/>
				<path id="Path_344" class="st0" d="M2989,4981.7v18.7h-17.2c-0.3,0-0.5-0.2-0.5-0.5c0-0.1,0.1-0.3,0.2-0.4l7-7.1L2989,4981.7z"/>
				<rect id="Rectangle_5296" x="2998.7" y="4985.3" class="st1" width="10.9" height="7.1"/>
				<rect id="Rectangle_5297" x="2998.7" y="4985.3" class="st2" width="2" height="7.1"/>
				<rect id="Rectangle_5298" x="3012.6" y="4985.3" class="st1" width="10.9" height="7.1"/>
				<rect id="Rectangle_5299" x="3026.5" y="4985.3" class="st1" width="5.4" height="7.1"/>
				<path id="Path_345" class="st1" d="M2989,4981.7v14.5h-14.2L2989,4981.7z"/>
				<rect id="Rectangle_5300" x="3012.6" y="4985.3" class="st2" width="2" height="7.1"/>
				<rect id="Rectangle_5301" x="3026.5" y="4985.3" class="st2" width="2" height="7.1"/>
			</g>
		</g>
	</g>
</g>
</svg>
