<svg id="Group_5243" data-name="Group 5243" xmlns="http://www.w3.org/2000/svg" width="64.379" height="54.277" viewBox="0 0 64.379 54.277">
  <defs>
    <style>
      .cls-1 {
        fill: #0e7bd2;
      }
    </style>
  </defs>
  <g id="Group_5167" data-name="Group 5167" transform="translate(0 0)">
    <path id="Path_4246" data-name="Path 4246" class="cls-1" d="M7400.728,1082.14a5.7,5.7,0,0,1-11.272,0Z" transform="translate(-7362.903 -1032.691)"/>
    <path id="Path_4247" data-name="Path 4247" class="cls-1" d="M7400.756,1010.2v40.584a6.655,6.655,0,0,1-.063.872h-11.274a6.489,6.489,0,0,1-.063-.872V1010.2a5.7,5.7,0,1,1,11.4,0Z" transform="translate(-7362.866 -1004.5)"/>
    <path id="Path_4248" data-name="Path 4248" class="cls-1" d="M7371.962,1028.62v10.585h-24.2v-5.548Z" transform="translate(-7347.765 -1013.258)"/>
    <path id="Path_4249" data-name="Path 4249" class="cls-1" d="M7435.051,1033.658v5.548h-24.2V1028.62Z" transform="translate(-7370.671 -1013.258)"/>
  </g>
  <g id="Group_5168" data-name="Group 5168" transform="translate(19.693 39.253)">
    <path id="Path_4250" data-name="Path 4250" class="cls-1" d="M7403.262,1070.009v4.026h-24.577v-4.026l6.795-2.146,5.49-1.733v.058l.006-.058,5.905,1.866Z" transform="translate(-7378.686 -1066.13)"/>
  </g>
</svg>
