<!-- Generator: Adobe Illustrator 24.0.2, SVG Export Plug-In . SVG Version: 6.00 Build 0)  -->
<svg version="1.1" id="Layer_2" class="w-100" xmlns="http://www.w3.org/2000/svg" xmlns:xlink="http://www.w3.org/1999/xlink" x="0px" y="0px"
	 viewBox="0 0 52.7 31.2" style="enable-background:new 0 0 52.7 31.2;" xml:space="preserve">
<style type="text/css">
	#Layer_2 .st0{fill:#E94E30;}
	#Layer_2 .st1{fill:#00AC51;}
	#Layer_2 .st2{fill:#F08C1E;}
	#Layer_2 .st3{fill:#0E7BD2;}
	#Layer_2 .st4{fill:#0062B0;}
</style>
<g class="office animate-speed-one">
	<g id="location_x5F_icon_x5F_2" transform="translate(18865 16731)">
		<rect id="Rectangle_5281" x="-18819.7" y="-16710.8" class="st0" width="1.4" height="9.6"/>
		<circle id="Ellipse_386" class="st1" cx="-18819" cy="-16714" r="6"/>
		<g class="Rectangle_5282 animate-speed-one common-fill-box">
			<path id="Rectangle_5282" class="st2" d="M-18846.6-16731h21c0.3,0,0.6,0.3,0.6,0.6v30.5l0,0h-22.2l0,0v-30.5
			C-18847.2-16730.7-18846.9-16731-18846.6-16731C-18846.6-16731-18846.6-16731-18846.6-16731z"/>
		</g>
		<g class="Rectangle_5283 common-fill-box animate-speed-one">
			<path id="Rectangle_5283" class="st3" d="M-18864.4-16715.4h17.3l0,0v15.6l0,0h-17.9l0,0v-15
			C-18865-16715.2-18864.7-16715.4-18864.4-16715.4C-18864.4-16715.4-18864.4-16715.4-18864.4-16715.4z"/>
			<rect id="Rectangle_5288" x="-18861.2" y="-16706.7" class="st1" width="10.3" height="6.8"/>
		</g>
		<g class="Rectangle_5284 common-fill-box animate-speed-one">
			<rect id="Rectangle_5284" x="-18844.1" y="-16727.4" class="st3" width="15.9" height="3.3"/>
			<rect id="Rectangle_5285" x="-18844.1" y="-16721.6" class="st3" width="15.9" height="3.3"/>
			<rect id="Rectangle_5286" x="-18844.1" y="-16715.9" class="st3" width="15.9" height="3.3"/>
		</g>
		<g class="Rectangle_5287 common-fill-box animate-speed-one">
		<path id="Rectangle_5287" class="st1" d="M-18825-16703.1h12.3c0.2,0,0.4,0.2,0.4,0.4c0,0,0,0,0,0v2.9l0,0h-12.7l0,0V-16703.1
			L-18825-16703.1z"/>
		</g>
		<!-- <path id="Path_339" class="st4" d="M-18847.1-16715.4l-3.3,15.6h3.3V-16715.4z"/> -->
		<!-- <g class="Rectangle_5288 common-fill-box">
			<rect id="Rectangle_5288" x="-18861.2" y="-16706.7" class="st1" width="10.3" height="6.8"/>
		</g> -->
		<rect id="Rectangle_5289" x="-18844" y="-16706.7" class="st1" width="4.6" height="6.8"/>
	</g>
</g>
</svg>
