<!-- Generator: Adobe Illustrator 24.0.2, SVG Export Plug-In . SVG Version: 6.00 Build 0)  -->
<svg version="1.1" id="Layer_4" class="w-100" xmlns="http://www.w3.org/2000/svg" xmlns:xlink="http://www.w3.org/1999/xlink" x="0px" y="0px"
	 viewBox="0 0 45.4 38.7" style="enable-background:new 0 0 45.4 38.7;" xml:space="preserve">
<style type="text/css">
	#Layer_4 .st0{fill:#F08C1E;}
	#Layer_4 .st1{fill:#E94E30;}
	#Layer_4 .st2{fill:#00AC51;}
	#Layer_4 .st3{enable-background:new;}
	#Layer_4 .st4{fill:#FFFFFF;}
</style>
<g id="location_x5F_icon_x5F_4" transform="translate(18867 16649)">
	<rect id="Rectangle_5290" x="-18847.4" y="-16628.2" class="st0" width="6.2" height="17.9"/>
	<rect id="Rectangle_5291" x="-18847.4" y="-16627.7" class="st1" width="6.2" height="4.9"/>
	<g class="Rectangle_5292 common-fill-box animate-speed-one">
		<path id="Rectangle_5292" class="st2" d="M-18865.9-16649h43.3c0.6,0,1.1,0.5,1.1,1.1v19.7c0,0.6-0.5,1.1-1.1,1.1h-43.3
		c-0.6,0-1.1-0.5-1.1-1.1v-19.7C-18867-16648.5-18866.5-16649-18865.9-16649z"/>
	</g>
	<g class="st3 common-fill-box animate-speed-one">
		<path class="st4" d="M-18858.9-16641l1.8,4.7h0l1.8-4.7h1v5.8h-0.8v-2.3l0.1-2.3l0,0l-1.9,4.6h-0.5l-1.9-4.6l0,0l0.1,2.3v2.3h-0.8
			v-5.8H-18858.9z"/>
		<path class="st4" d="M-18848.6-16636c-0.1,0.2-0.4,0.4-0.7,0.6c-0.3,0.2-0.8,0.3-1.3,0.3c-0.7,0-1.3-0.2-1.7-0.7s-0.7-1-0.7-1.7
			v-1.2c0-0.7,0.2-1.3,0.6-1.7s1-0.7,1.6-0.7c0.7,0,1.2,0.2,1.6,0.5c0.4,0.3,0.6,0.7,0.6,1.3l0,0h-0.7c0-0.3-0.2-0.6-0.4-0.8
			c-0.2-0.2-0.6-0.3-1-0.3c-0.4,0-0.8,0.2-1.1,0.5s-0.4,0.7-0.4,1.3v1.2c0,0.5,0.2,0.9,0.5,1.3c0.3,0.3,0.7,0.5,1.2,0.5
			c0.3,0,0.6,0,0.8-0.1s0.4-0.2,0.4-0.3v-1.3h-1.3v-0.6h2V-16636z"/>
		<path class="st4" d="M-18844.4-16637.7v2.5h-0.8v-5.8h2.1c0.6,0,1.1,0.1,1.4,0.4c0.3,0.3,0.5,0.7,0.5,1.2c0,0.3-0.1,0.6-0.2,0.8
			c-0.2,0.2-0.4,0.4-0.7,0.5c0.3,0.1,0.5,0.3,0.7,0.5c0.1,0.2,0.2,0.5,0.2,0.9v0.5c0,0.2,0,0.3,0.1,0.5c0,0.1,0.1,0.3,0.2,0.3v0.1
			h-0.8c-0.1-0.1-0.2-0.2-0.2-0.4c0-0.2,0-0.4,0-0.5v-0.5c0-0.3-0.1-0.6-0.3-0.8c-0.2-0.2-0.4-0.3-0.7-0.3H-18844.4z
			 M-18844.4-16638.3h1.2c0.4,0,0.8-0.1,1-0.3c0.2-0.2,0.3-0.4,0.3-0.8c0-0.3-0.1-0.6-0.3-0.8c-0.2-0.2-0.5-0.3-0.9-0.3h-1.3
			V-16638.3z"/>
		<path class="st4" d="M-18840.1-16637.4c0-0.6,0.2-1.2,0.5-1.6c0.3-0.4,0.8-0.6,1.4-0.6c0.6,0,1.1,0.2,1.4,0.6
			c0.3,0.4,0.5,0.9,0.5,1.6v0.1c0,0.6-0.2,1.2-0.5,1.6c-0.3,0.4-0.8,0.6-1.4,0.6c-0.6,0-1.1-0.2-1.4-0.6
			S-18840.1-16636.7-18840.1-16637.4L-18840.1-16637.4z M-18839.4-16637.3c0,0.5,0.1,0.8,0.3,1.1s0.5,0.4,0.9,0.4
			c0.4,0,0.7-0.1,0.8-0.4s0.3-0.7,0.3-1.1v-0.1c0-0.4-0.1-0.8-0.3-1.1c-0.2-0.3-0.5-0.4-0.9-0.4c-0.4,0-0.7,0.2-0.8,0.4
			C-18839.3-16638.2-18839.4-16637.9-18839.4-16637.3L-18839.4-16637.3z"/>
		<path class="st4" d="M-18832.7-16635.2c0-0.1,0-0.2-0.1-0.3c0-0.1,0-0.2,0-0.3c-0.1,0.2-0.3,0.4-0.6,0.5s-0.5,0.2-0.8,0.2
			c-0.4,0-0.8-0.1-1-0.3c-0.2-0.2-0.3-0.5-0.3-0.9c0-0.4,0.2-0.7,0.5-1c0.3-0.2,0.8-0.3,1.4-0.3h0.8v-0.4c0-0.3-0.1-0.5-0.2-0.6
			c-0.2-0.1-0.4-0.2-0.7-0.2c-0.3,0-0.5,0.1-0.6,0.2c-0.2,0.1-0.2,0.3-0.2,0.5h-0.7l0,0c0-0.3,0.1-0.6,0.4-0.9
			c0.3-0.3,0.7-0.4,1.2-0.4c0.5,0,0.9,0.1,1.2,0.4c0.3,0.2,0.4,0.6,0.4,1.1v2.1c0,0.2,0,0.3,0,0.4c0,0.1,0,0.3,0.1,0.4H-18832.7z
			 M-18834-16635.8c0.3,0,0.5-0.1,0.8-0.2c0.2-0.1,0.4-0.3,0.4-0.5v-0.7h-0.9c-0.3,0-0.6,0.1-0.8,0.2c-0.2,0.2-0.3,0.3-0.3,0.6
			c0,0.2,0.1,0.3,0.2,0.5C-18834.4-16635.9-18834.2-16635.8-18834-16635.8z"/>
		<path class="st4" d="M-18831.1-16637.3c0-0.7,0.1-1.2,0.4-1.7c0.3-0.4,0.7-0.6,1.2-0.6c0.3,0,0.5,0,0.7,0.1
			c0.2,0.1,0.4,0.2,0.5,0.4v-2.4h0.8v6.2h-0.6l-0.1-0.5c-0.1,0.2-0.3,0.4-0.5,0.5c-0.2,0.1-0.4,0.2-0.7,0.2c-0.5,0-0.9-0.2-1.2-0.6
			S-18831.1-16636.6-18831.1-16637.3L-18831.1-16637.3z M-18830.3-16637.2c0,0.4,0.1,0.8,0.3,1c0.2,0.3,0.5,0.4,0.8,0.4
			c0.2,0,0.4-0.1,0.6-0.2c0.2-0.1,0.3-0.3,0.4-0.4v-2c-0.1-0.2-0.2-0.3-0.4-0.4s-0.4-0.2-0.6-0.2c-0.4,0-0.7,0.2-0.8,0.5
			C-18830.2-16638.2-18830.3-16637.8-18830.3-16637.2L-18830.3-16637.2z"/>
	</g>
</g>
</svg>
