<svg version="1.1" id="LocationMap" xmlns="http://www.w3.org/2000/svg" xmlns:xlink="http://www.w3.org/1999/xlink" x="0px" y="0px"
	 viewBox="0 0 1363.7 889.4" style="enable-background:new 0 0 1363.7 889.4;" xml:space="preserve">
<style type="text/css">
	#LocationMap .st0{fill:#EDF0F5;}
  #LocationMap .st1{fill:none;stroke:#83B5DC;stroke-miterlimit:10;}
  #LocationMap .st2{clip-path:url(#SVGID_2_);}
  #LocationMap .st3{clip-path:url(#SVGID_4_);}
  #LocationMap .st4{fill:none;stroke:#83B5DC;}
  #LocationMap .st5{clip-path:url(#SVGID_6_);}
  #LocationMap .st6{clip-path:url(#SVGID_8_);}
  #LocationMap .st7{clip-path:url(#SVGID_10_);}
  #LocationMap .st8{fill:#83B5DC;}
  #LocationMap .st9{fill:none;stroke:#009AD8;stroke-width:3;stroke-miterlimit:10;}
  #LocationMap .st10{fill:#6482A4;}
  #LocationMap .st11{font-family:'ArialMT';}
  #LocationMap .st12{font-size:14px;}
  #LocationMap .st13{fill:#F6F9F9;}
  #LocationMap .st14{font-size:16px;}
  #LocationMap .st15{fill:#FC932F;}
  #LocationMap .st16{fill:none;}
  #LocationMap .st17{fill:none;stroke:#FC932F;stroke-width:2;}
  #LocationMap .st18{font-family:'Roboto-Regular';}
  #LocationMap .st19{fill:#0E7BD2;}
  #LocationMap .st20{fill:#424143;}
  #LocationMap .st21{fill:#00A551;}
  #LocationMap .st22{fill:#EF4E30;}
  #LocationMap .st23{fill:#0074BB;}
  #LocationMap .st24{fill:#F6921E;}
  #LocationMap .st25{fill:none;stroke:#FC932F;stroke-width:3;}
  #LocationMap .st26{fill:#FFFFFF;}
  #LocationMap .st27{clip-path:url(#SVGID_12_);}
  #LocationMap .st28{clip-path:url(#SVGID_14_);}
  #LocationMap .st29{clip-path:url(#SVGID_16_);}
  #LocationMap .st30{fill:#0052A2;}
  #LocationMap .st31{clip-path:url(#SVGID_18_);}
  #LocationMap .st32{opacity:0.46;fill:#B1CEE6;enable-background:new    ;}
  #LocationMap .st33{fill:#7C92AB;}
  #LocationMap .st34{font-size:18px;}
  #LocationMap .st35{clip-path:url(#SVGID_20_);}
  #LocationMap .st36{fill:#4A6481;}
  #LocationMap .st37{clip-path:url(#SVGID_22_);}
  #LocationMap .st38{fill:#EA3521;}
  #LocationMap .st39{clip-path:url(#SVGID_24_);}
  #LocationMap .st40{clip-path:url(#SVGID_26_);}
  #LocationMap .st41{clip-path:url(#SVGID_28_);}
  #LocationMap .st42{fill:#F84530;}
  #LocationMap .st43{clip-path:url(#SVGID_30_);}
  #LocationMap .st44{clip-path:url(#SVGID_32_);}
  #LocationMap .st45{clip-path:url(#SVGID_34_);}
  #LocationMap .st46{clip-path:url(#SVGID_36_);}
  #LocationMap .st47{clip-path:url(#SVGID_38_);}
  #LocationMap .st48{clip-path:url(#SVGID_40_);}
  #LocationMap .st49{clip-path:url(#SVGID_42_);}
  #LocationMap .st50{clip-path:url(#SVGID_44_);}
  #LocationMap .st51{clip-path:url(#SVGID_46_);}
  #LocationMap .st52{fill:#008941;}
  #LocationMap .st53{fill:#00B74A;}
  #LocationMap .st54{clip-path:url(#SVGID_48_);}
  #LocationMap .st55{fill:none;stroke:#0E7BD2;stroke-width:2;}
  #LocationMap .st56{fill:#F1F4F8;}
  #LocationMap .st57{font-family:'Roboto-Medium';}
  #LocationMap .st58{font-size:13.851px;}
</style>
<g id="Layer_2">
</g>
<g id="LocationMap">
	<g id="CommonContent" transform="translate(12223 -1598)">
		<g id="Area">
			<g id="Group_5570">
				<g id="Group_5569">
					<g id="Group_5568">
						<g id="Group_5567">
							<path id="Path_4496" class="st0" d="M-12223.2,1597.6h1364v780h-1364V1597.6z"/>
							<g id="Location_map_outline" transform="translate(545.027 1669)">
								<path id="Path_4518" class="st1" d="M-12496.9,376.6l164.1-52l22.9,15.8l56.4-14.7l98.5,33.8l-33.3,15.9l-3.1,28h43.1"/>
								<g id="Group_5464">
									<g>
										<g>
											<g>
												<g>
													<defs>
														<rect id="SVGID_1_" x="-12501.2" y="-168.4" width="854.3" height="1027"/>
													</defs>
													<clipPath id="SVGID_2_">
														<use xlink:href="#SVGID_1_"  style="overflow:visible;"/>
													</clipPath>
													<g id="Group_5463" class="st2">
														<path id="Path_4519" class="st1" d="M-12476.1,712.5l24.6-26.4l114.6-160.8l33.6-15.7l73.3-61.5l115.6-62.9l38.4-0.2
															l31.3-28l52.5,8.5l22.7-20.8l72.5-29.9l247.2-159.7"/>
														<path id="Path_4520" class="st1" d="M-12500.8-42.9l59.3,21.4l53.4,8.6l31.1-11.7l60.8,11.7l-18.8,76.6l55.8,64.6
															l6.2,74.5"/>
													</g>
												</g>
											</g>
										</g>
									</g>
								</g>
								<line id="Line_12208" class="st1" x1="-12321.8" y1="173.4" x2="-12494.7" y2="80.5"/>
								<g id="Group_5466">
									<g>
										<g>
											<g>
												<g>
													<defs>
														<rect id="SVGID_3_" x="-12501.2" y="-168.4" width="854.3" height="1027"/>
													</defs>
													<clipPath id="SVGID_4_">
														<use xlink:href="#SVGID_3_"  style="overflow:visible;"/>
													</clipPath>
													<g id="Group_5465" class="st3">
														<path id="Path_4521" class="st1" d="M-11961.6-70.3l-89.7,156.5l-27.1,182.7l2,56.8l31.7,31.3"/>
														<line id="Line_12210" class="st4" x1="-12074.7" y1="245.1" x2="-12110.7" y2="238.1"/>
														<path id="Path_4540" class="st4" d="M-12102.4,269.8l-18.3-72.7"/>
													</g>
												</g>
											</g>
										</g>
									</g>
								</g>
								<path id="Path_4522" class="st1" d="M-12163.4,357l6-77l9-12.2l16-7l12.8,9.8l41.1-1.2l12.8,4l15.6,45l17.4,1.2l16.9-17.3
									l17.2,2.1l38.1-77.5"/>
								<g id="Group_5468">
									<g>
										<g>
											<g>
												<g>
													<defs>
														<rect id="SVGID_5_" x="-12501.2" y="-168.4" width="854.3" height="1027"/>
													</defs>
													<clipPath id="SVGID_6_">
														<use xlink:href="#SVGID_5_"  style="overflow:visible;"/>
													</clipPath>
													<g id="Group_5467" class="st5">
														<path id="Path_4523" class="st1" d="M-12013.1,756.2l-35.8-7.8l-40.5-4l18.7-94.6l30.3-127.6l27.3-0.6l24.7-38.6
															l32.6-3.6l20.9-0.9"/>
													</g>
												</g>
											</g>
										</g>
									</g>
								</g>
								<path id="Path_4524" class="st1" d="M-12051.4,86.2l-58.2-85.4l-6.6-71.8"/>
								<path id="Path_4525" class="st1" d="M-12025,41.3l119.4-23.7l61.1-72.5l12.9-15.7"/>
								<path id="Path_4526" class="st1" d="M-11976.1,31.9l14.6,19.1l-14.4,137.6l-11.9,20.3"/>
								<path id="Path_4527" class="st1" d="M-12060.5,148.8l45.9,6.8v50.2"/>
								<path id="Path_4528" class="st1" d="M-12042.3,494.6l-60-2.8l-3.8,37.7l-52.6,39l-49.9,61.3l-30,97.2l-12.6,34.2"/>
								<path id="Path_4529" class="st1" d="M-12142.1,265.2c-2.6-4.2-11.7-18.7-11.7-18.7l-36.2-16.3l-53,129.6l5.1,38.1l64,70.3
									l40.1,18.7l28.8,32.9l62.8-2.5v-22.7l16.4-134.4"/>
								<path id="Path_4530" class="st1" d="M-11816.4,403.2l-48.7,6.8l-28.9-12l-99.4-18.6l-60.4,5l-6.6-13.3"/>
								<path id="Path_4531" class="st1" d="M-12076,384.9l-13.5,21.5l-0.5,85.9"/>
								<path id="Path_4532" class="st1" d="M-12089.5,422.7l11.1-14.5l18.6,12.3l13.7,24.2l28.5,11.2l24.2,35"/>
								<line id="Line_12209" class="st1" x1="-12017.6" y1="455.8" x2="-12032.6" y2="415.1"/>
								<path id="Path_4533" class="st1" d="M-11950.7,387.5l0.1,35.2l-17.5,23.7l-21.1,6.6l-12.9,25.2"/>
								<g id="Group_5470">
									<g>
										<g>
											<g>
												<g>
													<defs>
														<rect id="SVGID_7_" x="-12501.2" y="-168.4" width="854.3" height="1027"/>
													</defs>
													<clipPath id="SVGID_8_">
														<use xlink:href="#SVGID_7_"  style="overflow:visible;"/>
													</clipPath>
													<g id="Group_5469" class="st6">
														<path id="Path_4534" class="st1" d="M-11787.9,766.7l-24.2-6.6l-88.2-123.5"/>
													</g>
												</g>
											</g>
										</g>
									</g>
								</g>
								<path id="Path_4535" class="st1" d="M-11676.9,163.1l-60.4,301.8l19.6,52.9l61.1,97.5"/>
								<g id="Group_5472">
									<g>
										<g>
											<g>
												<g>
													<defs>
														<rect id="SVGID_9_" x="-12501.2" y="-168.4" width="854.3" height="1027"/>
													</defs>
													<clipPath id="SVGID_10_">
														<use xlink:href="#SVGID_9_"  style="overflow:visible;"/>
													</clipPath>
													<g id="Mask_Group_166" class="st7">
														<path id="Path_4536" class="st8" d="M-12021.8,187.9l-0.7,4.7c-0.4,2.8-2.8,4.7-5.6,4.6l-14.7-0.9
															c-2.9-0.2-5.2-2.7-5-5.6c0-0.3,0.1-0.6,0.1-0.9l0.4-1.9c0.5-2.2,2.3-3.8,4.5-4.1l14.9-1.9c2.9-0.4,5.6,1.7,6,4.6
															C-12021.8,186.9-12021.8,187.4-12021.8,187.9"/>
														<path id="Path_4537" class="st8" d="M-12095.2,173.4l-0.4,4.2c-0.2,2.4,1.4,4.6,3.7,5l5,1c0.5,0.1,1,0.3,1.4,0.5
															l3.9,2.2c2.3,1.3,5.1,0.5,6.4-1.8c0.2-0.4,0.4-0.9,0.5-1.3l1.2-5.7c0.5-2.5-1.1-4.9-3.6-5.5l-12.4-2.7
															c-2.5-0.6-5,1-5.6,3.6C-12095.2,173-12095.2,173.2-12095.2,173.4"/>
														<path id="Path_4539" class="st4" d="M-12103.2,192.6l-5.2-55l48.5,5.2"/>
														<path id="Path_4538" class="st9" d="M-12344.6,515.7l22.2-342.7l137.4,59.3l8.3-22.2l83.4-19.1l16.7,11.3l86.1,4.7
															l87.2,57.1l5.3,39.8c-1,1.4,1.8,8,8.3,5.4l27.5-9.8l50.5,75.5l-10.5,62.1l-26.4,24.7l-49.3,24.7l-34.6-10.2
															l-22.9,19.6l-25.2-1.5c0,0-7.7-0.9-5.2,6.9l83.2,124.3c0,0,7.9,9.6,2.2,11l-66.4-26.7l-46.8,26.7l-106.8,24.2
															l-145-56.3L-12344.6,515.7z"/>
													</g>
												</g>
											</g>
										</g>
									</g>
								</g>
							</g>
						</g>
						<text transform="matrix(1 0 0 1 -11039.5195 2306.6731)" class="st10 st11 st12">Map not to scale</text>
					</g>
					<g id="Group_5491" transform="translate(41 1625)">
						<g transform="matrix(1, 0, 0, 1, 222, 44)">
							<path id="Rectangle_6676-2" class="st13" d="M-11739.7,445.5h92.4c7.7,0,14,6.3,14,14v0.5c0,7.7-6.3,14-14,14h-92.4
								c-7.7,0-14-6.3-14-14v-0.5C-11753.7,451.8-11747.4,445.5-11739.7,445.5z"/>
						</g>
						<text transform="matrix(1 0 0 1 -11517.9551 508.6791)" class="st11 st14">Koramangala</text>
					</g>
					<g id="Group_5492" transform="translate(62 115)">
						<g transform="matrix(1, 0, 0, 1, 201, 1554)">
							<path id="Rectangle_6730-3" class="st13" d="M-11679.7,633.5h106.4c7.7,0,14,6.3,14,14v0.5c0,7.7-6.3,14-14,14h-106.4
								c-7.7,0-14-6.3-14-14v-0.5C-11693.7,639.8-11687.4,633.5-11679.7,633.5z"/>
						</g>
						<text transform="matrix(1 0 0 1 -11475.7871 2207.2312)" class="st11 st14">Electronic City</text>
					</g>
					<g id="Group_5494" transform="translate(-15 1600)">
						<g transform="matrix(1, 0, 0, 1, 278, 69)">
							<path id="Rectangle_6675-2" class="st13" d="M-11684.7,345.5h82.4c7.7,0,14,6.3,14,14v0.5c0,7.7-6.3,14-14,14h-82.4
								c-7.7,0-14-6.3-14-14v-0.5C-11698.7,351.8-11692.4,345.5-11684.7,345.5z"/>
						</g>
						<text transform="matrix(1 0 0 1 -11405.9834 434.0241)" class="st11 st14">Indiranagar</text>
					</g>
					<g id="Group_5495" transform="translate(96 1606)">
						<g transform="matrix(1, 0, 0, 1, 167, 63)">
							<path id="Rectangle_6679-2" class="st13" d="M-11914.6,48.5h77.4c7.7,0,14,6.3,14,14V63c0,7.7-6.3,14-14,14h-77.4
								c-7.7,0-14-6.3-14-14v-0.5C-11928.6,54.8-11922.4,48.5-11914.6,48.5z"/>
						</g>
						<text transform="matrix(1 0 0 1 -11748.9971 131.4911)" class="st11 st14">Yelahanka</text>
					</g>
					<g id="Group_5496" transform="translate(28 1565)">
						<g transform="matrix(1, 0, 0, 1, 235, 104)">
							<path id="Rectangle_6677-2" class="st13" d="M-11993.7,250.5h92.4c7.7,0,14,6.3,14,14v0.5c0,7.7-6.3,14-14,14h-92.4
								c-7.7,0-14-6.3-14-14v-0.5C-12007.7,256.8-12001.4,250.5-11993.7,250.5z"/>
						</g>
						<text transform="matrix(1 0 0 1 -11759.6484 374.3701)" class="st11 st14">Yeshwantpur</text>
					</g>
					<g id="Group_5497" transform="translate(-5 147)">
						<circle id="Ellipse_1006" class="st15" cx="-11518.7" cy="1726.1" r="7.5"/>
						<g id="Ellipse_1007" transform="translate(969 1881)">
							<circle class="st16" cx="-12487.7" cy="-154.9" r="13.5"/>
							<circle class="st17" cx="-12487.7" cy="-154.9" r="12.5"/>
						</g>
						<path id="Path_4383" class="st17" d="M-11531.2,1724.9l-145-5.3"/>
						<g id="Group_5297" transform="translate(-137 -65)">
							<g transform="matrix(1, 0, 0, 1, 405, 1587)">
								<path id="Rectangle_6678-2" class="st13" d="M-12060.6,182.5h106.4c7.7,0,14,6.3,14,14v0.5c0,7.7-6.3,14-14,14h-106.4
									c-7.7,0-14-6.3-14-14v-0.5C-12074.6,188.8-12068.4,182.5-12060.6,182.5z"/>
							</g>
							<text transform="matrix(1 0 0 1 -11655.5322 1789.5851)" class="st11 st14">Hebbal Flyover</text>
						</g>
					</g>
					<g id="Group_5508" transform="translate(232 -209)">
						<g transform="matrix(1, 0, 0, 1, 31, 1878)">
							<path id="Rectangle_6730-4" class="st13" d="M-11509.7,309.5h79.4c7.7,0,14,6.3,14,14v0.5c0,7.7-6.3,14-14,14h-79.4
								c-7.7,0-14-6.3-14-14v-0.5C-11523.7,315.8-11517.4,309.5-11509.7,309.5z"/>
						</g>
						<text transform="matrix(1 0 0 1 -11475.7871 2207.2312)" class="st11 st14">Whitefeld</text>
					</g>
				</g>
				<text transform="matrix(1 0 0 1 -11527.4893 1943.7742)" class="st18 st12">Mekhri Circle</text>
			</g>
			<circle id="Ellipse_1042" class="st19" cx="-11533.2" cy="1938.6" r="3"/>
			<g id="KTC_pin" transform="translate(0 -138)">
				<g id="Layer_2_1_" transform="translate(1223.984 2103.506)">
					<g id="Group_5174" transform="translate(0 0)">
						<g id="Group_5173" transform="translate(59.972 0.019)">
							<path id="Path_4256" class="st20" d="M-12485.7-168.3l-8.6,9.2l9.3,9.7v0.2h-4.5l-8.1-8.6v8.6h-3.6v-19.2h3.6v8.2l7.3-8.2
								L-12485.7-168.3L-12485.7-168.3z"/>
							<path id="Path_4257" class="st20" d="M-12473.1-162.7h3.2v13.6h-3.2l-0.2-2c-0.8,1.6-2.9,2.4-4.4,2.4c-4,0-7-2.5-7-7.2
								s3.1-7.1,7.1-7.1c1.7-0.1,3.4,0.8,4.3,2.2L-12473.1-162.7z M-12481.3-155.9c-0.1,2.1,1.5,4,3.7,4.1c0.1,0,0.2,0,0.4,0
								c5.3,0,5.3-8.2,0-8.2c-2.1-0.1-3.9,1.6-4,3.7C-12481.3-156.2-12481.3-156-12481.3-155.9L-12481.3-155.9z"/>
							<path id="Path_4258" class="st20" d="M-12464-162.7l0.2,1.6c0.8-1.3,2.3-2.1,3.8-1.9c1.3,0,2.5,0.4,3.5,1.3l-1.5,2.9
								c-0.7-0.6-1.5-0.9-2.4-0.9c-1.7-0.1-3.2,1.1-3.4,2.9c0,0.2,0,0.4,0,0.6v7.2h-3.4v-13.6L-12464-162.7z"/>
							<path id="Path_4259" class="st20" d="M-12451.8-168.4v19.3h-3.3v-19.3H-12451.8z"/>
							<path id="Path_4260" class="st20" d="M-12445.9-154.7c0.2,1.7,1.7,2.9,4.1,2.9c1.3,0,2.6-0.4,3.6-1.3l2.2,2.1
								c-1.6,1.5-3.7,2.3-5.8,2.2c-4.7,0-7.5-2.9-7.5-7.3c-0.2-3.8,2.7-6.9,6.5-7.1c0.3,0,0.5,0,0.8,0c4.6,0,7.4,2.8,6.9,8.4
								L-12445.9-154.7z M-12438.5-157.5c-0.2-1.8-1.6-2.6-3.5-2.6c-1.7-0.1-3.3,1-3.8,2.6H-12438.5z"/>
						</g>
						<path id="Path_4261" class="st20" d="M-12435.1-140.2h-6.1v-3.3h15.9v3.3h-6.1v16h-3.6v-16H-12435.1z"/>
						<path id="Path_4262" class="st20" d="M-12413.6-131c0,3.9-3.2,7.1-7.1,7.1c-3.9,0-7.1-3.2-7.1-7.1c0-3.9,3.1-7,7-7.1
							c3.8-0.1,7,2.8,7.1,6.6C-12413.5-131.3-12413.5-131.2-12413.6-131z M-12424.3-131c0,2.1,1.2,4,3.7,4s3.7-1.9,3.7-4
							c0.1-2.1-1.5-3.9-3.6-4c0,0,0,0-0.1,0c-2.1,0-3.7,1.7-3.7,3.8C-12424.3-131.2-12424.3-131.1-12424.3-131z"/>
						<path id="Path_4263" class="st20" d="M-12399.3-137.8l3,10.2l3.1-10.2h3.7l-4.7,13.7h-3.9l-1.4-4l-1.2-4.6l-1.2,4.6l-1.4,4
							h-3.9l-4.8-13.7h3.8l3.1,10.2l3-10.2C-12402.1-137.8-12399.3-137.8-12399.3-137.8z"/>
						<path id="Path_4264" class="st20" d="M-12376.6-124.2v-7.1c0-2.1-1.1-3.6-3.3-3.6c-2,0.1-3.5,1.7-3.5,3.7v0.1v7h-3.3v-13.6h3
							l0.2,1.8c1.1-1.3,2.8-2,4.5-2c3.2,0,5.8,2.4,5.8,6.7v7.1L-12376.6-124.2L-12376.6-124.2z"/>
						<path id="Path_4265" class="st20" d="M-12347.5-126.6c-2,1.9-4.6,2.9-7.3,2.9c-7.2,0-10.2-4.9-10.2-10c0-5,3.3-10.2,10.2-10.2
							c2.7,0,5.2,1.1,7.1,3l-2.4,2.3c-1.3-1.2-2.9-1.8-4.7-1.8c-3.5-0.2-6.5,2.5-6.7,6c0,0.2,0,0.5,0,0.7c0,3.2,1.9,6.5,6.6,6.5
							c1.8,0,3.5-0.7,4.9-2L-12347.5-126.6z"/>
						<path id="Path_4266" class="st20" d="M-12343.1-129.8c0.2,1.7,1.7,2.9,4.1,2.9c1.3,0,2.6-0.4,3.6-1.3l2.2,2.1
							c-1.6,1.5-3.7,2.3-5.9,2.2c-4.7,0-7.5-2.9-7.5-7.3c-0.2-3.8,2.7-6.9,6.5-7.1c0.3,0,0.5,0,0.8,0c4.6,0,7.4,2.8,6.9,8.4
							L-12343.1-129.8z M-12335.7-132.6c-0.2-1.8-1.6-2.6-3.5-2.6c-1.7-0.1-3.3,1-3.8,2.6H-12335.7z"/>
						<path id="Path_4267" class="st20" d="M-12319.9-124.2v-7.1c0-2.1-1.1-3.6-3.3-3.6c-2,0.1-3.5,1.7-3.5,3.7v0.1v7h-3.3v-13.6h3
							l0.2,1.8c1.1-1.3,2.8-2,4.5-2c3.2,0,5.8,2.4,5.8,6.7v7.1L-12319.9-124.2L-12319.9-124.2z"/>
						<path id="Path_4268" class="st20" d="M-12309.5-141.6v3.9h3.8v2.9h-3.8v5.9c-0.1,0.9,0.5,1.8,1.4,1.9c0.1,0,0.2,0,0.3,0
							c0.6,0,1.1-0.2,1.6-0.4l0.9,2.9c-0.9,0.4-1.8,0.6-2.8,0.6c-3,0.1-4.9-1.6-4.9-5v-5.9h-2.5v-2.9h2.5v-3.5L-12309.5-141.6z"/>
						<path id="Path_4269" class="st20" d="M-12300.1-137.8l0.2,1.6c0.8-1.3,2.3-2.1,3.8-1.9c1.3,0,2.5,0.4,3.5,1.3l-1.5,2.9
							c-0.7-0.6-1.5-0.9-2.4-0.9c-1.7-0.2-3.2,1.1-3.4,2.9c0,0.2,0,0.4,0,0.6v7.2h-3.4v-13.6h3.2L-12300.1-137.8L-12300.1-137.8z"/>
						<path id="Path_4270" class="st20" d="M-12288.4-129.8c0.2,1.7,1.7,2.9,4.1,2.9c1.3,0,2.6-0.4,3.6-1.3l2.2,2.1
							c-1.6,1.5-3.7,2.3-5.8,2.2c-4.7,0-7.5-2.9-7.5-7.3c-0.2-3.8,2.7-6.9,6.5-7.1c0.3,0,0.5,0,0.8,0c4.6,0,7.4,2.8,6.9,8.4
							L-12288.4-129.8z M-12281-132.6c-0.2-1.8-1.6-2.6-3.5-2.6c-1.7-0.1-3.3,1-3.8,2.6H-12281z"/>
						<ellipse id="Ellipse_937" class="st21" cx="-12484.7" cy="-151.9" rx="5" ry="5"/>
						<ellipse id="Ellipse_938" class="st21" cx="-12496" cy="-151.9" rx="5" ry="5"/>
						<ellipse id="Ellipse_939" class="st21" cx="-12484.7" cy="-163.2" rx="5" ry="5"/>
						<ellipse id="Ellipse_940" class="st21" cx="-12496" cy="-163.2" rx="5" ry="5"/>
						<path id="Path_4271" class="st22" d="M-12489.9-140.6l2.6,5.1h5.3l2.6-5.1l-5.2-5.3L-12489.9-140.6z"/>
						<path id="Path_4272" class="st22" d="M-12501.2-140.6l2.6,5.1h5.3l2.6-5.1l-5.2-5.3L-12501.2-140.6z"/>
						<path id="Path_4273" class="st22" d="M-12489.9-129.3l2.6,5.1h5.3l2.6-5.1l-5.2-5.3L-12489.9-129.3z"/>
						<path id="Path_4274" class="st22" d="M-12501.2-129.3l2.6,5.1h5.3l2.6-5.1l-5.2-5.3L-12501.2-129.3z"/>
						<path id="Path_4275" class="st23" d="M-12478.6-135.4h10.4l-5.2-10.4L-12478.6-135.4z"/>
						<path id="Path_4276" class="st23" d="M-12467.4-135.4h10.4l-5.2-10.4L-12467.4-135.4z"/>
						<path id="Path_4277" class="st23" d="M-12478.6-124.1h10.4l-5.2-10.4L-12478.6-124.1z"/>
						<path id="Path_4278" class="st23" d="M-12467.4-124.1h10.4l-5.2-10.4L-12467.4-124.1z"/>
						
							<rect id="Rectangle_6670" x="-12476.8" y="-155.9" transform="matrix(0.7071 -0.7071 0.7071 0.7071 -3545.6934 -8864.4014)" class="st24" width="7.4" height="7.4"/>
						
							<rect id="Rectangle_6671" x="-12465.5" y="-155.9" transform="matrix(0.7071 -0.7071 0.7071 0.7071 -3542.3838 -8856.4043)" class="st24" width="7.4" height="7.4"/>
						
							<rect id="Rectangle_6672" x="-12476.8" y="-167.2" transform="matrix(0.7071 -0.7071 0.7071 0.7071 -3537.6968 -8867.7119)" class="st24" width="7.4" height="7.4"/>
						
							<rect id="Rectangle_6673" x="-12465.5" y="-167.2" transform="matrix(0.7071 -0.7071 0.7071 0.7071 -3534.3865 -8859.7148)" class="st24" width="7.4" height="7.4"/>
					</g>
				</g>
				<path id="Path_4388" class="st25" d="M-11443.7,1956.4h148.5"/>
				<g id="Group_5141" transform="translate(1024.904 2106.791)">
					<path id="Path_4235" class="st15" d="M-12483.5-113.9l-15.1-25.6c-4.4-7.5-3.2-17.1,3-23.3l0,0c7.5-7.5,19.6-7.5,27.1,0l0,0
						c6.2,6.2,7.4,15.8,3,23.3l-15.1,25.6c-0.5,0.8-1.5,1.1-2.3,0.6C-12483.1-113.4-12483.3-113.6-12483.5-113.9z"/>
					<ellipse id="Ellipse_928" class="st26" cx="-12482" cy="-149.6" rx="9" ry="9"/>
				</g>
			</g>
		</g>
		<g id="Basic_pins" transform="translate(0 1669)">
			<g id="Group_5536">
				<g id="Group_5534">
					<text transform="matrix(1 0 0 1 -11317.5195 425.6731)" class="st18 st12">HAL Airport</text>
					<g id="Group_5519" transform="translate(13 5.6)">
						<path id="Path_4246" class="st19" d="M-11353.7,430.4c-0.3,1.8-2,3.1-3.8,2.8c-1.4-0.2-2.6-1.4-2.8-2.8H-11353.7z"/>
						<path id="Path_4247" class="st19" d="M-11353.7,404.7v23.8c0,0.2,0,0.3,0,0.5h-6.6c0-0.2,0-0.3,0-0.5v-23.8
							c0-1.8,1.5-3.3,3.3-3.3C-11355.2,401.4-11353.7,402.9-11353.7,404.7L-11353.7,404.7z"/>
						<path id="Path_4248" class="st19" d="M-11361.7,410.4v6.2h-14.2v-3.3L-11361.7,410.4z"/>
						<path id="Path_4249" class="st19" d="M-11338.1,413.4v3.3h-14.2v-6.2L-11338.1,413.4z"/>
						<path id="Path_4250" class="st19" d="M-11349.9,426.7v2.4h-14.4v-2.4l4-1.3l3.2-1l0,0l0,0l3.5,1.1L-11349.9,426.7z"/>
					</g>
				</g>
				<g id="Group_5535">
					<text transform="matrix(1 0 0 1 -11328.4336 -41.3388)" class="st18 st12">Bengaluru</text>
					<text transform="matrix(1 0 0 1 -11328.4336 -27.3388)" class="st18 st12">International Airport</text>
					<g id="Group_5520" transform="translate(1 -455.4)">
						<path id="Path_4246-2" class="st19" d="M-11353.7,430.4c-0.3,1.8-2,3.1-3.8,2.8c-1.4-0.2-2.6-1.4-2.8-2.8H-11353.7z"/>
						<path id="Path_4247-2" class="st19" d="M-11353.7,404.7v23.8c0,0.2,0,0.3,0,0.5h-6.6c0-0.2,0-0.3,0-0.5v-23.8
							c0-1.8,1.5-3.3,3.3-3.3C-11355.2,401.4-11353.7,402.9-11353.7,404.7L-11353.7,404.7z"/>
						<path id="Path_4248-2" class="st19" d="M-11361.7,410.4v6.2h-14.2v-3.3L-11361.7,410.4z"/>
						<path id="Path_4249-2" class="st19" d="M-11338.1,413.4v3.3h-14.2v-6.2L-11338.1,413.4z"/>
						<path id="Path_4250-2" class="st19" d="M-11349.9,426.7v2.4h-14.4v-2.4l4-1.3l3.2-1l0,0l0,0l3.5,1.1L-11349.9,426.7z"/>
					</g>
				</g>
			</g>
			<g id="Group_5533">
				<g id="Group_5529">
					<g id="Group_5501" transform="translate(998 463)">
						<g>
							<g>
								<g>
									<g>
										<defs>
											<rect id="SVGID_11_" x="-12501.2" y="-168.4" width="18.1" height="22"/>
										</defs>
										<clipPath id="SVGID_12_">
											<use xlink:href="#SVGID_11_"  style="overflow:visible;"/>
										</clipPath>
										<g id="Group_5500" transform="translate(0 0)" class="st27">
											<path id="Path_4541" class="st19" d="M-12495.3-167.1h6.2c2.5,0,4.5,2,4.5,4.5v6.2c0,2.6-2.1,4.6-4.6,4.6h-5.9
												c-2.6,0-4.6-2.1-4.6-4.6l0,0v-6.2C-12499.7-165.1-12497.7-167.1-12495.3-167.1L-12495.3-167.1"/>
											<path id="Path_4542" class="st26" d="M-12495.9-164.8h7.5c1.5,0,2.7,1.2,2.7,2.7l0,0v0.7c0,0.8-0.7,1.5-1.5,1.5h-10
												c-0.8,0-1.5-0.7-1.5-1.5v-0.7C-12498.6-163.6-12497.4-164.8-12495.9-164.8"/>
											<path id="Path_4543" class="st26" d="M-12488.6-158.5c0.7,0,1.3,0.6,1.3,1.3s-0.6,1.3-1.3,1.3s-1.3-0.6-1.3-1.3l0,0
												C-12489.9-157.9-12489.4-158.5-12488.6-158.5"/>
											<path id="Path_4544" class="st26" d="M-12495.7-158.6c0.7,0,1.3,0.6,1.3,1.3s-0.6,1.3-1.3,1.3s-1.3-0.6-1.3-1.3l0,0
												C-12497-158-12496.4-158.6-12495.7-158.6L-12495.7-158.6"/>
											<path id="Path_4545" class="st19" d="M-12500.5-147.9h16.6c0.4,0,0.7,0.4,0.7,0.8c0,0.4-0.3,0.7-0.7,0.7h-16.6
												c-0.4,0-0.8-0.3-0.8-0.7C-12501.2-147.5-12500.9-147.9-12500.5-147.9L-12500.5-147.9"/>
											<path id="Path_4546" class="st19" d="M-12498.4-150.5h12.6c0.4,0,0.8,0.3,0.8,0.7s-0.3,0.8-0.7,0.8c0,0,0,0-0.1,0h-12.6
												c-0.4,0-0.7-0.4-0.7-0.8C-12499.1-150.2-12498.8-150.5-12498.4-150.5"/>
											<path id="Path_4547" class="st19" d="M-12495.2-168.4L-12495.2-168.4c0.4,0,0.7,0.3,0.7,0.7v1.1c0,0.4-0.4,0.7-0.8,0.7
												c-0.4,0-0.7-0.3-0.7-0.7v-1.1C-12495.9-168.1-12495.6-168.4-12495.2-168.4"/>
											<path id="Path_4548" class="st19" d="M-12489.1-168.4L-12489.1-168.4c0.4,0,0.7,0.3,0.7,0.7l0,0v1.1
												c0,0.4-0.3,0.7-0.7,0.7s-0.7-0.3-0.7-0.7l0,0v-1.1C-12489.9-168.1-12489.5-168.4-12489.1-168.4"/>
										</g>
									</g>
								</g>
							</g>
						</g>
					</g>
					<text transform="matrix(1 0 0 1 -11480.1641 303.5791)" class="st18 st12">CANTONMENT</text>
					<text transform="matrix(1 0 0 1 -11480.1641 317.5791)" class="st18 st12">RAILWAY STATION</text>
				</g>
				<g id="Group_5532">
					<g id="Group_5502" transform="translate(883 635)">
						<g>
							<g>
								<g>
									<g>
										<defs>
											<rect id="SVGID_13_" x="-12501.2" y="-168.4" width="18.1" height="22"/>
										</defs>
										<clipPath id="SVGID_14_">
											<use xlink:href="#SVGID_13_"  style="overflow:visible;"/>
										</clipPath>
										<g id="Group_5500-2" transform="translate(0 0)" class="st28">
											<path id="Path_4541-2" class="st19" d="M-12495.3-167.1h6.2c2.5,0,4.5,2,4.5,4.5v6.2c0,2.6-2.1,4.6-4.6,4.6h-5.9
												c-2.6,0-4.6-2.1-4.6-4.6l0,0v-6.2C-12499.7-165.1-12497.7-167.1-12495.3-167.1L-12495.3-167.1"/>
											<path id="Path_4542-2" class="st26" d="M-12495.9-164.8h7.5c1.5,0,2.7,1.2,2.7,2.7l0,0v0.7c0,0.8-0.7,1.5-1.5,1.5h-10
												c-0.8,0-1.5-0.7-1.5-1.5v-0.7C-12498.6-163.6-12497.4-164.8-12495.9-164.8"/>
											<path id="Path_4543-2" class="st26" d="M-12488.6-158.5c0.7,0,1.3,0.6,1.3,1.3s-0.6,1.3-1.3,1.3s-1.3-0.6-1.3-1.3l0,0
												C-12489.9-157.9-12489.4-158.5-12488.6-158.5"/>
											<path id="Path_4544-2" class="st26" d="M-12495.7-158.6c0.7,0,1.3,0.6,1.3,1.3s-0.6,1.3-1.3,1.3s-1.3-0.6-1.3-1.3l0,0
												C-12497-158-12496.4-158.6-12495.7-158.6L-12495.7-158.6"/>
											<path id="Path_4545-2" class="st19" d="M-12500.5-147.9h16.6c0.4,0,0.7,0.4,0.7,0.8c0,0.4-0.3,0.7-0.7,0.7h-16.6
												c-0.4,0-0.8-0.3-0.8-0.7C-12501.2-147.5-12500.9-147.9-12500.5-147.9L-12500.5-147.9"/>
											<path id="Path_4546-2" class="st19" d="M-12498.4-150.5h12.6c0.4,0,0.8,0.3,0.8,0.7s-0.3,0.8-0.7,0.8c0,0,0,0-0.1,0
												h-12.6c-0.4,0-0.7-0.4-0.7-0.8C-12499.1-150.2-12498.8-150.5-12498.4-150.5"/>
											<path id="Path_4547-2" class="st19" d="M-12495.2-168.4L-12495.2-168.4c0.4,0,0.7,0.3,0.7,0.7v1.1c0,0.4-0.4,0.7-0.8,0.7
												c-0.4,0-0.7-0.3-0.7-0.7v-1.1C-12495.9-168.1-12495.6-168.4-12495.2-168.4"/>
											<path id="Path_4548-2" class="st19" d="M-12489.1-168.4L-12489.1-168.4c0.4,0,0.7,0.3,0.7,0.7l0,0v1.1
												c0,0.4-0.3,0.7-0.7,0.7s-0.7-0.3-0.7-0.7l0,0v-1.1C-12489.9-168.1-12489.5-168.4-12489.1-168.4"/>
										</g>
									</g>
								</g>
							</g>
						</g>
					</g>
					<text transform="matrix(1 0 0 1 -11740.1641 476.5791)" class="st18 st12">BENGALURU CITY</text>
					<text transform="matrix(1 0 0 1 -11740.1641 490.5791)" class="st18 st12">RAILWAY STATION</text>
				</g>
				<g id="Group_5530">
					<g id="Group_5507" transform="translate(1154 447)">
						<g>
							<g>
								<g>
									<g>
										<defs>
											<rect id="SVGID_15_" x="-12501.2" y="-168.4" width="18.1" height="22"/>
										</defs>
										<clipPath id="SVGID_16_">
											<use xlink:href="#SVGID_15_"  style="overflow:visible;"/>
										</clipPath>
										<g id="Group_5500-3" transform="translate(0 0)" class="st29">
											<path id="Path_4541-3" class="st19" d="M-12495.3-167.1h6.2c2.5,0,4.5,2,4.5,4.5v6.2c0,2.6-2.1,4.6-4.6,4.6h-5.9
												c-2.6,0-4.6-2.1-4.6-4.6l0,0v-6.2C-12499.7-165.1-12497.7-167.1-12495.3-167.1L-12495.3-167.1"/>
											<path id="Path_4542-3" class="st26" d="M-12495.9-164.8h7.5c1.5,0,2.7,1.2,2.7,2.7l0,0v0.7c0,0.8-0.7,1.5-1.5,1.5h-10
												c-0.8,0-1.5-0.7-1.5-1.5v-0.7C-12498.6-163.6-12497.4-164.8-12495.9-164.8"/>
											<path id="Path_4543-3" class="st26" d="M-12488.6-158.5c0.7,0,1.3,0.6,1.3,1.3s-0.6,1.3-1.3,1.3s-1.3-0.6-1.3-1.3l0,0
												C-12489.9-157.9-12489.4-158.5-12488.6-158.5"/>
											<path id="Path_4544-3" class="st26" d="M-12495.7-158.6c0.7,0,1.3,0.6,1.3,1.3s-0.6,1.3-1.3,1.3s-1.3-0.6-1.3-1.3l0,0
												C-12497-158-12496.4-158.6-12495.7-158.6L-12495.7-158.6"/>
											<path id="Path_4545-3" class="st19" d="M-12500.5-147.9h16.6c0.4,0,0.7,0.4,0.7,0.8c0,0.4-0.3,0.7-0.7,0.7h-16.6
												c-0.4,0-0.8-0.3-0.8-0.7C-12501.2-147.5-12500.9-147.9-12500.5-147.9L-12500.5-147.9"/>
											<path id="Path_4546-3" class="st19" d="M-12498.4-150.5h12.6c0.4,0,0.8,0.3,0.8,0.7s-0.3,0.8-0.7,0.8c0,0,0,0-0.1,0
												h-12.6c-0.4,0-0.7-0.4-0.7-0.8C-12499.1-150.2-12498.8-150.5-12498.4-150.5"/>
											<path id="Path_4547-3" class="st19" d="M-12495.2-168.4L-12495.2-168.4c0.4,0,0.7,0.3,0.7,0.7v1.1c0,0.4-0.4,0.7-0.8,0.7
												c-0.4,0-0.7-0.3-0.7-0.7v-1.1C-12495.9-168.1-12495.6-168.4-12495.2-168.4"/>
											<path id="Path_4548-3" class="st19" d="M-12489.1-168.4L-12489.1-168.4c0.4,0,0.7,0.3,0.7,0.7l0,0v1.1
												c0,0.4-0.3,0.7-0.7,0.7s-0.7-0.3-0.7-0.7l0,0v-1.1C-12489.9-168.1-12489.5-168.4-12489.1-168.4"/>
										</g>
									</g>
								</g>
							</g>
						</g>
					</g>
					<text transform="matrix(1 0 0 1 -11324.1641 287.5791)" class="st18 st12">K.R. PURAM</text>
					<text transform="matrix(1 0 0 1 -11324.1641 301.5791)" class="st18 st12">RAILWAY STATION</text>
				</g>
			</g>
			<g id="Group_5531">
				<text transform="matrix(1 0 0 1 -11638.0801 516.5791)" class="st18 st12">KSRTC</text>
				<text transform="matrix(1 0 0 1 -11691.4766 530.5791)" class="st18 st12">BUS TERMINAL</text>
				<g id="Group_5505" transform="translate(911.827 678.203)">
					<rect id="Rectangle_7064" x="-12500" y="-152" class="st30" width="2.3" height="2.3"/>
					<rect id="Rectangle_7065" x="-12488.2" y="-152" class="st30" width="2.3" height="2.3"/>
					<g id="Group_5504" transform="translate(0 0)">
						<g>
							<g>
								<g>
									<g>
										<defs>
											<rect id="SVGID_17_" x="-12501.2" y="-168.4" width="16.6" height="18.8"/>
										</defs>
										<clipPath id="SVGID_18_">
											<use xlink:href="#SVGID_17_"  style="overflow:visible;"/>
										</clipPath>
										<g id="Group_5503" class="st31">
											<path id="Path_4549" class="st19" d="M-12498.5-168.4h11.2c1.5,0,2.7,1.2,2.7,2.7l0,0v13.2h-16.6v-13.2
												C-12501.2-167.2-12500-168.4-12498.5-168.4"/>
											<path id="Path_4550" class="st26" d="M-12497.8-166.4h9.9c0.8,0,1.4,0.6,1.4,1.4l0,0v4.8h-12.6v-4.8
												C-12499.2-165.8-12498.6-166.4-12497.8-166.4"/>
											<rect id="Rectangle_7066" x="-12493.6" y="-167.2" class="st19" width="1.4" height="9.4"/>
											<path id="Path_4551" class="st26" d="M-12489.1-156.8c0.8,0,1.4,0.6,1.4,1.4s-0.6,1.4-1.4,1.4c-0.8,0-1.4-0.6-1.4-1.4
												S-12489.8-156.8-12489.1-156.8"/>
											<path id="Path_4552" class="st26" d="M-12496.8-156.9c0.8,0,1.4,0.6,1.4,1.4s-0.6,1.4-1.4,1.4c-0.8,0-1.4-0.6-1.4-1.4
												S-12497.6-156.9-12496.8-156.9"/>
											<rect id="Rectangle_7067" x="-12494.6" y="-156.2" class="st30" width="3.5" height="0.6"/>
											<rect id="Rectangle_7068" x="-12494.6" y="-155" class="st30" width="3.5" height="0.6"/>
										</g>
									</g>
								</g>
							</g>
						</g>
					</g>
				</g>
			</g>
		</g>
		<g id="BottomTabBG" transform="matrix(1, 0, 0, 1, 12486, 71)">
			<rect id="Rectangle_7071-2" x="-24709.2" y="2306.6" class="st26" width="1364" height="109.8"/>
		</g>
	</g>
	<g>
		<a>
			<g id="google_map_button" transform="translate(13665 891)">
				<path id="Rectangle_6742" class="st32" d="M-12482.2-168.4h129c10.5,0,19,8.5,19,19l0,0c0,10.5-8.5,19-19,19h-129
					c-10.5,0-19-8.5-19-19l0,0C-12501.2-159.9-12492.7-168.4-12482.2-168.4z"/>
				<text transform="matrix(1 0 0 1 -12481.5195 -143.3269)" class="st10 st11 st12">View in Google Maps</text>
			</g>
		</a>
	</g>
	<g id="Office_Button" transform="translate(13607 989.6)"  class="common_click_5">
		<text transform="matrix(1 0 0 1 -12462.3213 -148.0208)" class="st33 st11 st34">Offce</text>
		<g id="Group_5183" transform="translate(-6586.12 -2272)">
			<g id="Group_5181" transform="translate(6586.12 2284.253)">
				<path id="Path_4283" class="st33" d="M-12475.5-168.4v9.3c0,0.5-0.4,0.9-0.9,0.9l0,0h-23.9c-0.5,0-0.9-0.4-0.9-0.9v-9.3h10.8
					v1.6c0,1.2,0.9,2.1,2.1,2.1s2.1-0.9,2.1-2.1v-1.6H-12475.5z"/>
			</g>
			<g id="Group_5182" transform="translate(6586.12 2272)">
				<path id="Path_4284" class="st33" d="M-12476.4-162.1h-5.3c-0.3,0-0.6-0.3-0.6-0.6l0,0v-2.9c0-1.5-1.3-2.8-2.8-2.8h-6.3
					c-1.5,0-2.8,1.3-2.8,2.8v2.9c0,0.3-0.3,0.6-0.6,0.6l0,0h-5.4c-0.5,0-0.9,0.4-0.9,0.9v3.3h25.7v-3.3
					C-12475.4-161.7-12475.9-162.1-12476.4-162.1L-12476.4-162.1z M-12491.8-165.6c0-0.2,0.2-0.4,0.4-0.4h6.3c0.2,0,0.4,0.2,0.4,0.4
					v2.9c0,0.3-0.3,0.6-0.6,0.6l0,0h-5.8c-0.3,0-0.6-0.3-0.6-0.6L-12491.8-165.6z"/>
			</g>
		</g>
	</g>
	<g id="Retail_Button" transform="translate(13384 989)"  class="common_click_4">
		<text transform="matrix(1 0 0 1 -12462.7422 -147.4199)" class="st33 st11 st34">Retail</text>
		<g id="Group_5177" transform="translate(-6337.899 -2274.38)">
			<path id="Path_4280" class="st33" d="M-6143,2123.7h-11.5c-0.2,0-0.3,0.1-0.3,0.3v0.1l0.6,1.7c0,0.1,0.1,0.2,0.3,0.2h13.2
				c0.7,0,1.3,0.6,1.3,1.3s-0.6,1.3-1.3,1.3h-14.7c-0.4,0-0.7-0.2-0.8-0.6l-7.1-20.3c-0.2-0.7,0.1-1.4,0.8-1.7s1.4,0.1,1.7,0.8
				l1.8,5c0,0.1,0.2,0.2,0.3,0.2h20.2c0.2,0,0.3,0.2,0.3,0.3v0.1l-3.6,10.3C-6142,2123.3-6142.5,2123.7-6143,2123.7z"/>
			<circle id="Ellipse_941" class="st33" cx="-6156.4" cy="2131.2" r="2"/>
			<circle id="Ellipse_942" class="st33" cx="-6144.7" cy="2131.2" r="2"/>
		</g>
	</g>
	<g id="Hotel_Button" transform="translate(13153 990)"  class="common_click_3">
		<text transform="matrix(1 0 0 1 -12461.1641 -148.4209)" class="st33 st11 st34">Hotels</text>
		<g id="Group_5682" transform="translate(-13125 -1069)">
			<circle id="Ellipse_1168" class="st33" cx="637.8" cy="914.6" r="14"/>
			<g id="Group_5680" transform="translate(13129.177 1076.223)">
				<g>
					<g>
						<g>
							<g>
								<defs>
									<rect id="SVGID_19_" x="-12501.2" y="-168.4" width="20" height="13.7"/>
								</defs>
								<clipPath id="SVGID_20_">
									<use xlink:href="#SVGID_19_"  style="overflow:visible;"/>
								</clipPath>
								<g id="Group_5679" class="st35">
									<path id="Path_4785" class="st26" d="M-12491.2-157.5c-2.6,0-5.1,0-7.7,0c-0.4,0-0.5,0.1-0.4,0.5c0,0.4,0,0.9,0,1.3
										c0.1,0.5-0.3,0.9-0.8,1h-0.1c-0.5,0-0.9-0.4-0.9-0.9v-0.1c0-3.9,0-7.8,0-11.7c0-0.5,0.3-0.9,0.8-1c0,0,0,0,0.1,0
										c0.5,0,0.9,0.4,0.9,0.9v0.1c0,2.2,0,4.5,0,6.7c0,0.4,0.1,0.4,0.5,0.4c2.1,0,4.3,0,6.4,0c0.4,0,0.4-0.1,0.4-0.5
										c0-1.3,0-2.6,0-3.9c-0.1-1,0.6-1.9,1.7-2c0.1,0,0.2,0,0.3,0c1.7,0,3.5,0,5.2,0c2-0.1,3.7,1.5,3.7,3.5c0,0.1,0,0.2,0,0.2
										c0,2.4,0,4.7,0,7.1c0.1,0.5-0.2,0.9-0.7,1s-1-0.2-1.1-0.6c0-0.1,0-0.2,0-0.2c0-0.5,0-0.9,0-1.4c0-0.4-0.1-0.4-0.4-0.4
										C-12486-157.5-12488.6-157.5-12491.2-157.5"/>
									<path id="Path_4786" class="st26" d="M-12495.7-166.6c1.5,0,2.7,1.2,2.7,2.7s-1.2,2.7-2.7,2.7s-2.7-1.2-2.7-2.7
										C-12498.5-165.4-12497.2-166.6-12495.7-166.6L-12495.7-166.6"/>
								</g>
							</g>
						</g>
					</g>
				</g>
			</g>
		</g>
	</g>
	<g id="Hospital_Button" transform="translate(12899 990)"  class="common_click_2">
		<text transform="matrix(1 0 0 1 -12462.084 -148.4209)" class="st33 st11 st34">Hospitals</text>
		<g id="Group_5176">
			<ellipse id="Ellipse_927" class="st33" cx="-12487.2" cy="-154.4" rx="14" ry="14"/>
			<g id="Group_5138" transform="translate(5.69 5.689)">
				<path id="Path_4232" class="st36" d="M-12501.1-157.4l5.5,3.1v-3.1H-12501.1z"/>
				<path id="Path_4233" class="st26" d="M-12484.6-162.5v4.8c0,0.2-0.2,0.4-0.4,0.4h-4.8c-0.2,0-0.4,0.2-0.4,0.4l0,0v4.8
					c0,0.2-0.2,0.4-0.4,0.4l0,0h-4.8c-0.2,0-0.4-0.2-0.4-0.4l0,0v-4.8c0-0.2-0.2-0.4-0.4-0.4l0,0h-4.8c-0.2,0-0.4-0.2-0.4-0.4l0,0
					v-4.8c0-0.2,0.2-0.4,0.4-0.4l0,0h4.8c0.2,0,0.4-0.2,0.4-0.4l0,0v-4.8c0-0.2,0.2-0.4,0.4-0.4l0,0h4.8c0.2,0,0.4,0.2,0.4,0.4v4.8
					c0,0.2,0.2,0.4,0.4,0.4l0,0h4.8C-12484.7-162.9-12484.6-162.7-12484.6-162.5z"/>
			</g>
		</g>
	</g>
	<g id="School_button" transform="translate(12656 989.127)" class="common_click_1">
		<text transform="matrix(1 0 0 1 -12460.7109 -147.5479)" class="st33 st11 st34">Schools</text>
		<g id="Group_5216_1_" transform="translate(-524 -2454)">
			<g id="Group_5175_1_" transform="translate(524 2454)">
				<path id="Path_4236_1_" class="st33" d="M-12472-158l-13,10.2l-13.2-10.4l13-10.2L-12472-158z"/>
				<path id="Path_4237_1_" class="st33" d="M-12475.3-151.4v9.5h-19.6v-9.6l9.9,7.8L-12475.3-151.4z"/>
				<rect id="Rectangle_6663_1_" x="-12501.2" y="-158.1" class="st33" width="3" height="20.2"/>
			</g>
		</g>
	</g>
	<g id="Offices_2_">
		<g id="Office_Pins" transform="translate(12223 71)">
			<g id="Group_5565">
				<text transform="matrix(1 0 0 1 -11637.5195 119.6731)" class="st18 st12">L&amp;T Tech Park</text>
				<g id="Group_5560">
					<g id="Group_5516" transform="translate(-5626.12 -1999.906)">
						<g id="Group_5181-2" transform="translate(6586.12 2282.35)">
							<path id="Path_4283-2" class="st19" d="M-12479.4-168.4v7.9c0,0.4-0.4,0.8-0.8,0.8h-20.2c-0.4,0-0.8-0.4-0.8-0.8v-7.9h9.1
								v1.4c0,1,0.8,1.8,1.7,1.8c1,0,1.8-0.8,1.8-1.7v-0.1v-1.4H-12479.4z"/>
						</g>
						<g id="Group_5182-2" transform="translate(6586.12 2272)">
							<path id="Path_4284-2" class="st19" d="M-12480.2-163.1h-4.5c-0.3,0-0.5-0.2-0.5-0.5v-2.4c0-1.3-1.1-2.4-2.4-2.4l0,0h-5.3
								c-1.3,0-2.4,1.1-2.4,2.4v2.4c0,0.3-0.2,0.5-0.5,0.5h-4.6c-0.4,0-0.8,0.4-0.8,0.8v2.8h21.8v-2.8
								C-12479.4-162.7-12479.8-163.1-12480.2-163.1L-12480.2-163.1z M-12493.3-166c0-0.2,0.2-0.3,0.3-0.3h5.3
								c0.2,0,0.3,0.2,0.3,0.3v2.4c0,0.3-0.2,0.5-0.5,0.5h-4.9c-0.3,0-0.5-0.2-0.5-0.5L-12493.3-166z"/>
						</g>
					</g>
				</g>
			</g>
			<g id="Group_5563">
				<text transform="matrix(1 0 0 1 -11367.5195 101.6731)" class="st18 st12">Bhaartiya City Tech park</text>
				<g id="Group_5561" transform="translate(146 -19)">
					<g id="Group_5516-2" transform="translate(-5626.12 -1999.906)">
						<g id="Group_5181-3" transform="translate(6586.12 2282.35)">
							<path id="Path_4283-3" class="st19" d="M-12479.4-168.4v7.9c0,0.4-0.4,0.8-0.8,0.8h-20.2c-0.4,0-0.8-0.4-0.8-0.8v-7.9h9.1
								v1.4c0,1,0.8,1.8,1.7,1.8c1,0,1.8-0.8,1.8-1.7v-0.1v-1.4H-12479.4z"/>
						</g>
						<g id="Group_5182-3" transform="translate(6586.12 2272)">
							<path id="Path_4284-3" class="st19" d="M-12480.2-163.1h-4.5c-0.3,0-0.5-0.2-0.5-0.5v-2.4c0-1.3-1.1-2.4-2.4-2.4l0,0h-5.3
								c-1.3,0-2.4,1.1-2.4,2.4v2.4c0,0.3-0.2,0.5-0.5,0.5h-4.6c-0.4,0-0.8,0.4-0.8,0.8v2.8h21.8v-2.8
								C-12479.4-162.7-12479.8-163.1-12480.2-163.1L-12480.2-163.1z M-12493.3-166c0-0.2,0.2-0.3,0.3-0.3h5.3
								c0.2,0,0.3,0.2,0.3,0.3v2.4c0,0.3-0.2,0.5-0.5,0.5h-4.9c-0.3,0-0.5-0.2-0.5-0.5L-12493.3-166z"/>
						</g>
					</g>
				</g>
			</g>
			<g id="Group_5564">
				<text transform="matrix(1 0 0 1 -11416.5195 193.6731)" class="st18 st12">Manayata Tech Park</text>
				<g id="Group_5562" transform="translate(96 73)">
					<g id="Group_5516-3" transform="translate(-5626.12 -1999.906)">
						<g id="Group_5181-4" transform="translate(6586.12 2282.35)">
							<path id="Path_4283-4" class="st19" d="M-12479.4-168.4v7.9c0,0.4-0.4,0.8-0.8,0.8h-20.2c-0.4,0-0.8-0.4-0.8-0.8v-7.9h9.1
								v1.4c0,1,0.8,1.8,1.7,1.8c1,0,1.8-0.8,1.8-1.7v-0.1v-1.4H-12479.4z"/>
						</g>
						<g id="Group_5182-4" transform="translate(6586.12 2272)">
							<path id="Path_4284-4" class="st19" d="M-12480.2-163.1h-4.5c-0.3,0-0.5-0.2-0.5-0.5v-2.4c0-1.3-1.1-2.4-2.4-2.4l0,0h-5.3
								c-1.3,0-2.4,1.1-2.4,2.4v2.4c0,0.3-0.2,0.5-0.5,0.5h-4.6c-0.4,0-0.8,0.4-0.8,0.8v2.8h21.8v-2.8
								C-12479.4-162.7-12479.8-163.1-12480.2-163.1L-12480.2-163.1z M-12493.3-166c0-0.2,0.2-0.3,0.3-0.3h5.3
								c0.2,0,0.3,0.2,0.3,0.3v2.4c0,0.3-0.2,0.5-0.5,0.5h-4.9c-0.3,0-0.5-0.2-0.5-0.5L-12493.3-166z"/>
						</g>
					</g>
				</g>
			</g>
		</g>
		<g id="Office_Button_Active" transform="translate(13607 989.6)">
			<text transform="matrix(1 0 0 1 -12462.3213 -148.0208)" class="st33 st11 st34">Offce</text>
			<g id="Group_5183_1_" transform="translate(-6586.12 -2272)">
				<g id="Group_5181_1_" transform="translate(6586.12 2284.253)">
					<path id="Path_4283_1_" class="st19" d="M-12475.5-168.4v9.3c0,0.5-0.4,0.9-0.9,0.9l0,0h-23.9c-0.5,0-0.9-0.4-0.9-0.9v-9.3
						h10.8v1.6c0,1.2,0.9,2.1,2.1,2.1s2.1-0.9,2.1-2.1v-1.6H-12475.5z"/>
				</g>
				<g id="Group_5182_1_" transform="translate(6586.12 2272)">
					<path id="Path_4284_1_" class="st19" d="M-12476.4-162.1h-5.3c-0.3,0-0.6-0.3-0.6-0.6l0,0v-2.9c0-1.5-1.3-2.8-2.8-2.8h-6.3
						c-1.5,0-2.8,1.3-2.8,2.8v2.9c0,0.3-0.3,0.6-0.6,0.6l0,0h-5.4c-0.5,0-0.9,0.4-0.9,0.9v3.3h25.7v-3.3
						C-12475.4-161.7-12475.9-162.1-12476.4-162.1L-12476.4-162.1z M-12491.8-165.6c0-0.2,0.2-0.4,0.4-0.4h6.3
						c0.2,0,0.4,0.2,0.4,0.4v2.9c0,0.3-0.3,0.6-0.6,0.6l0,0h-5.8c-0.3,0-0.6-0.3-0.6-0.6L-12491.8-165.6z"/>
				</g>
			</g>
		</g>
	</g>
	<g id="Retail_2_">
		<g id="Retail_Pins" transform="translate(12223 71)">
			<g id="Group_5556">
				<text transform="matrix(1 0 0 1 -11629.5205 304.6731)" class="st18 st12">Orion Mall</text>
				<g id="Group_5510" transform="translate(893 436)">
					<g>
						<g>
							<g>
								<g>
									<defs>
										<rect id="SVGID_21_" x="-12501.2" y="-168.4" width="20.3" height="22"/>
									</defs>
									<clipPath id="SVGID_22_">
										<use xlink:href="#SVGID_21_"  style="overflow:visible;"/>
									</clipPath>
									<g id="Group_5509" transform="translate(0 0)" class="st37">
										<path id="Path_4553" class="st38" d="M-12484.8-154.1h-9.3c-0.1,0-0.2,0.1-0.2,0.2l0,0v0.1l0.5,1.4c0,0.1,0.1,0.1,0.2,0.1
											h10.7c0.6,0,1,0.5,1,1c0,0.6-0.5,1.1-1,1.1h-11.9c-0.3,0-0.5-0.2-0.6-0.5l-5.8-16.4c-0.2-0.5,0.1-1.2,0.6-1.4
											s1.2,0.1,1.4,0.6c0,0,0,0,0,0.1l1.4,4.1c0,0.1,0.1,0.2,0.2,0.2h16.3c0.2,0,0.3,0.1,0.3,0.3l0,0v0.1l-2.9,8.3
											C-12484-154.4-12484.4-154.1-12484.8-154.1"/>
										<path id="Path_4554" class="st38" d="M-12495.6-149.6c0.9,0,1.6,0.7,1.6,1.6c0,0.9-0.7,1.6-1.6,1.6
											c-0.9,0-1.6-0.7-1.6-1.6l0,0C-12497.2-148.9-12496.5-149.6-12495.6-149.6"/>
										<path id="Path_4555" class="st38" d="M-12486.1-149.6c0.9,0,1.6,0.7,1.6,1.6c0,0.9-0.7,1.6-1.6,1.6
											c-0.9,0-1.6-0.7-1.6-1.6l0,0C-12487.7-148.9-12487-149.6-12486.1-149.6"/>
									</g>
								</g>
							</g>
						</g>
					</g>
				</g>
			</g>
			<g id="Group_5557">
				<text transform="matrix(1 0 0 1 -11525.5205 19.6731)" class="st18 st12">RMZ</text>
				<text transform="matrix(1 0 0 1 -11525.5205 33.6731)" class="st18 st12">Galleria </text>
				<text transform="matrix(1 0 0 1 -11525.5205 47.6731)" class="st18 st12">Mall</text>
				<g id="Group_5511" transform="translate(982 222)">
					<g>
						<g>
							<g>
								<g>
									<defs>
										<rect id="SVGID_23_" x="-12501.2" y="-168.4" width="20.3" height="22"/>
									</defs>
									<clipPath id="SVGID_24_">
										<use xlink:href="#SVGID_23_"  style="overflow:visible;"/>
									</clipPath>
									<g id="Group_5509-2" transform="translate(0 0)" class="st39">
										<path id="Path_4553-2" class="st38" d="M-12484.8-154.1h-9.3c-0.1,0-0.2,0.1-0.2,0.2l0,0v0.1l0.5,1.4
											c0,0.1,0.1,0.1,0.2,0.1h10.7c0.6,0,1,0.5,1,1c0,0.6-0.5,1.1-1,1.1h-11.9c-0.3,0-0.5-0.2-0.6-0.5l-5.8-16.4
											c-0.2-0.5,0.1-1.2,0.6-1.4s1.2,0.1,1.4,0.6c0,0,0,0,0,0.1l1.4,4.1c0,0.1,0.1,0.2,0.2,0.2h16.3c0.2,0,0.3,0.1,0.3,0.3l0,0
											v0.1l-2.9,8.3C-12484-154.4-12484.4-154.1-12484.8-154.1"/>
										<path id="Path_4554-2" class="st38" d="M-12495.6-149.6c0.9,0,1.6,0.7,1.6,1.6c0,0.9-0.7,1.6-1.6,1.6
											c-0.9,0-1.6-0.7-1.6-1.6l0,0C-12497.2-148.9-12496.5-149.6-12495.6-149.6"/>
										<path id="Path_4555-2" class="st38" d="M-12486.1-149.6c0.9,0,1.6,0.7,1.6,1.6c0,0.9-0.7,1.6-1.6,1.6
											c-0.9,0-1.6-0.7-1.6-1.6l0,0C-12487.7-148.9-12487-149.6-12486.1-149.6"/>
									</g>
								</g>
							</g>
						</g>
					</g>
				</g>
			</g>
			<g id="Group_5558">
				<text transform="matrix(1 0 0 1 -11624.5205 35.6731)" class="st18 st12">Garuda Mall</text>
				<g id="Group_5512" transform="translate(937 205)">
					<g>
						<g>
							<g>
								<g>
									<defs>
										<rect id="SVGID_25_" x="-12501.2" y="-168.4" width="20.3" height="22"/>
									</defs>
									<clipPath id="SVGID_26_">
										<use xlink:href="#SVGID_25_"  style="overflow:visible;"/>
									</clipPath>
									<g id="Group_5509-3" transform="translate(0 0)" class="st40">
										<path id="Path_4553-3" class="st38" d="M-12484.8-154.1h-9.3c-0.1,0-0.2,0.1-0.2,0.2l0,0v0.1l0.5,1.4
											c0,0.1,0.1,0.1,0.2,0.1h10.7c0.6,0,1,0.5,1,1c0,0.6-0.5,1.1-1,1.1h-11.9c-0.3,0-0.5-0.2-0.6-0.5l-5.8-16.4
											c-0.2-0.5,0.1-1.2,0.6-1.4s1.2,0.1,1.4,0.6c0,0,0,0,0,0.1l1.4,4.1c0,0.1,0.1,0.2,0.2,0.2h16.3c0.2,0,0.3,0.1,0.3,0.3l0,0
											v0.1l-2.9,8.3C-12484-154.4-12484.4-154.1-12484.8-154.1"/>
										<path id="Path_4554-3" class="st38" d="M-12495.6-149.6c0.9,0,1.6,0.7,1.6,1.6c0,0.9-0.7,1.6-1.6,1.6
											c-0.9,0-1.6-0.7-1.6-1.6l0,0C-12497.2-148.9-12496.5-149.6-12495.6-149.6"/>
										<path id="Path_4555-3" class="st38" d="M-12486.1-149.6c0.9,0,1.6,0.7,1.6,1.6c0,0.9-0.7,1.6-1.6,1.6
											c-0.9,0-1.6-0.7-1.6-1.6l0,0C-12487.7-148.9-12487-149.6-12486.1-149.6"/>
									</g>
								</g>
							</g>
						</g>
					</g>
				</g>
			</g>
			<g id="Group_5555">
				<text transform="matrix(1 0 0 1 -11399.5195 190.6731)" class="st18 st12">Elements Mall</text>
				<g id="Group_5513" transform="translate(1078 344)">
					<g>
						<g>
							<g>
								<g>
									<defs>
										<rect id="SVGID_27_" x="-12501.2" y="-168.4" width="20.3" height="22"/>
									</defs>
									<clipPath id="SVGID_28_">
										<use xlink:href="#SVGID_27_"  style="overflow:visible;"/>
									</clipPath>
									<g id="Group_5509-4" transform="translate(0 0)" class="st41">
										<path id="Path_4553-4" class="st38" d="M-12484.8-154.1h-9.3c-0.1,0-0.2,0.1-0.2,0.2l0,0v0.1l0.5,1.4
											c0,0.1,0.1,0.1,0.2,0.1h10.7c0.6,0,1,0.5,1,1c0,0.6-0.5,1.1-1,1.1h-11.9c-0.3,0-0.5-0.2-0.6-0.5l-5.8-16.4
											c-0.2-0.5,0.1-1.2,0.6-1.4s1.2,0.1,1.4,0.6c0,0,0,0,0,0.1l1.4,4.1c0,0.1,0.1,0.2,0.2,0.2h16.3c0.2,0,0.3,0.1,0.3,0.3l0,0
											v0.1l-2.9,8.3C-12484-154.4-12484.4-154.1-12484.8-154.1"/>
										<path id="Path_4554-4" class="st38" d="M-12495.6-149.6c0.9,0,1.6,0.7,1.6,1.6c0,0.9-0.7,1.6-1.6,1.6
											c-0.9,0-1.6-0.7-1.6-1.6l0,0C-12497.2-148.9-12496.5-149.6-12495.6-149.6"/>
										<path id="Path_4555-4" class="st38" d="M-12486.1-149.6c0.9,0,1.6,0.7,1.6,1.6c0,0.9-0.7,1.6-1.6,1.6
											c-0.9,0-1.6-0.7-1.6-1.6l0,0C-12487.7-148.9-12487-149.6-12486.1-149.6"/>
									</g>
								</g>
							</g>
						</g>
					</g>
				</g>
			</g>
		</g>
		<g id="Retail_Button_Active" transform="translate(13384 989)">
			<text transform="matrix(1 0 0 1 -12462.7422 -147.4199)" class="st33 st11 st34">Retail</text>
			<g id="Group_5177_1_" transform="translate(-6337.899 -2274.38)">
				<path id="Path_4280_1_" class="st42" d="M-6143,2123.7h-11.5c-0.2,0-0.3,0.1-0.3,0.3v0.1l0.6,1.7c0,0.1,0.1,0.2,0.3,0.2h13.2
					c0.7,0,1.3,0.6,1.3,1.3s-0.6,1.3-1.3,1.3h-14.7c-0.4,0-0.7-0.2-0.8-0.6l-7.1-20.3c-0.2-0.7,0.1-1.4,0.8-1.7s1.4,0.1,1.7,0.8
					l1.8,5c0,0.1,0.2,0.2,0.3,0.2h20.2c0.2,0,0.3,0.2,0.3,0.3v0.1l-3.6,10.3C-6142,2123.3-6142.5,2123.7-6143,2123.7z"/>
				<circle id="Ellipse_941_1_" class="st42" cx="-6156.4" cy="2131.2" r="2"/>
				<circle id="Ellipse_942_1_" class="st42" cx="-6144.7" cy="2131.2" r="2"/>
			</g>
		</g>
	</g>
	<g id="Hotels_2_">
		<g id="Hotel_Pins" transform="translate(-970.644)">
			<g id="Group_5698">
				<g id="Group_5683" transform="translate(-138 102.018)">
					<circle id="Ellipse_1168-2" class="st15" cx="1769.3" cy="329.1" r="7.5"/>
					<g>
						<g>
							<g>
								<g>
									<defs>
										<rect id="SVGID_29_" x="44559.7" y="1807.1" width="10.7" height="7.3"/>
									</defs>
									<clipPath id="SVGID_30_">
										<use xlink:href="#SVGID_29_"  style="overflow:visible;"/>
									</clipPath>
									<g id="Group_5679-2" transform="translate(14265.229 493.853)" class="st43">
										<path id="Path_4785-2" class="st26" d="M-12495.9-162.6c-1.4,0-2.7,0-4.1,0c-0.2,0-0.2,0.1-0.2,0.2c0,0.2,0,0.5,0,0.7
											c0,0.3-0.2,0.5-0.4,0.5c0,0,0,0-0.1,0c-0.3,0-0.5-0.2-0.5-0.5c0,0,0,0,0-0.1c0-2.1,0-4.2,0-6.2c0-0.3,0.2-0.5,0.4-0.5l0,0
											c0.3,0,0.5,0.2,0.5,0.5l0,0c0,1.2,0,2.4,0,3.6c0,0.2,0.1,0.2,0.2,0.2c1.1,0,2.3,0,3.4,0c0.2,0,0.2-0.1,0.2-0.2
											c0-0.7,0-1.4,0-2.1c-0.1-0.5,0.3-1,0.9-1.1c0.1,0,0.1,0,0.2,0c0.9,0,1.9,0,2.8,0c1.1,0,2,0.8,2,1.9v0.1c0,1.3,0,2.5,0,3.8
											c0,0.2-0.1,0.5-0.4,0.5c-0.3,0.1-0.5-0.1-0.6-0.3v-0.1c0-0.3,0-0.5,0-0.8c0-0.2-0.1-0.2-0.2-0.2
											C-12493.1-162.6-12494.5-162.6-12495.9-162.6"/>
										<path id="Path_4786-2" class="st26" d="M-12498.3-167.4c0.8,0,1.5,0.7,1.4,1.5c0,0.8-0.7,1.5-1.5,1.4
											c-0.8,0-1.4-0.7-1.4-1.5C-12499.7-166.8-12499.1-167.4-12498.3-167.4L-12498.3-167.4"/>
									</g>
								</g>
							</g>
						</g>
					</g>
				</g>
				<text transform="matrix(1 0 0 1 1502.479 435.6731)" class="st18 st12">Taj West End Hotel</text>
			</g>
			<g id="Group_5697">
				<g id="Group_5684" transform="translate(-124 85.018)">
					<circle id="Ellipse_1168-3" class="st15" cx="1769.3" cy="329.1" r="7.5"/>
					<g>
						<g>
							<g>
								<g>
									<defs>
										<rect id="SVGID_31_" x="44559.7" y="1807.1" width="10.7" height="7.3"/>
									</defs>
									<clipPath id="SVGID_32_">
										<use xlink:href="#SVGID_31_"  style="overflow:visible;"/>
									</clipPath>
									<g id="Group_5679-3" transform="translate(14265.229 493.853)" class="st44">
										<path id="Path_4785-3" class="st26" d="M-12495.9-162.6c-1.4,0-2.7,0-4.1,0c-0.2,0-0.2,0.1-0.2,0.2c0,0.2,0,0.5,0,0.7
											c0,0.3-0.2,0.5-0.4,0.5c0,0,0,0-0.1,0c-0.3,0-0.5-0.2-0.5-0.5c0,0,0,0,0-0.1c0-2.1,0-4.2,0-6.2c0-0.3,0.2-0.5,0.4-0.5l0,0
											c0.3,0,0.5,0.2,0.5,0.5l0,0c0,1.2,0,2.4,0,3.6c0,0.2,0.1,0.2,0.2,0.2c1.1,0,2.3,0,3.4,0c0.2,0,0.2-0.1,0.2-0.2
											c0-0.7,0-1.4,0-2.1c-0.1-0.5,0.3-1,0.9-1.1c0.1,0,0.1,0,0.2,0c0.9,0,1.9,0,2.8,0c1.1,0,2,0.8,2,1.9v0.1c0,1.3,0,2.5,0,3.8
											c0,0.2-0.1,0.5-0.4,0.5c-0.3,0.1-0.5-0.1-0.6-0.3v-0.1c0-0.3,0-0.5,0-0.8c0-0.2-0.1-0.2-0.2-0.2
											C-12493.1-162.6-12494.5-162.6-12495.9-162.6"/>
										<path id="Path_4786-3" class="st26" d="M-12498.3-167.4c0.8,0,1.5,0.7,1.4,1.5c0,0.8-0.7,1.5-1.5,1.4
											c-0.8,0-1.4-0.7-1.4-1.5C-12499.7-166.8-12499.1-167.4-12498.3-167.4L-12498.3-167.4"/>
									</g>
								</g>
							</g>
						</g>
					</g>
				</g>
				<text transform="matrix(1 0 0 1 1655.479 418.6731)" class="st18 st12">Lalit Ashok</text>
			</g>
			<g id="Group_5696">
				<g id="Group_5685" transform="translate(-94 64.018)">
					<circle id="Ellipse_1168-4" class="st15" cx="1769.3" cy="329.1" r="7.5"/>
					<g>
						<g>
							<g>
								<g>
									<defs>
										<rect id="SVGID_33_" x="44559.7" y="1807.1" width="10.7" height="7.3"/>
									</defs>
									<clipPath id="SVGID_34_">
										<use xlink:href="#SVGID_33_"  style="overflow:visible;"/>
									</clipPath>
									<g id="Group_5679-4" transform="translate(14265.229 493.853)" class="st45">
										<path id="Path_4785-4" class="st26" d="M-12495.9-162.6c-1.4,0-2.7,0-4.1,0c-0.2,0-0.2,0.1-0.2,0.2c0,0.2,0,0.5,0,0.7
											c0,0.3-0.2,0.5-0.4,0.5c0,0,0,0-0.1,0c-0.3,0-0.5-0.2-0.5-0.5c0,0,0,0,0-0.1c0-2.1,0-4.2,0-6.2c0-0.3,0.2-0.5,0.4-0.5l0,0
											c0.3,0,0.5,0.2,0.5,0.5l0,0c0,1.2,0,2.4,0,3.6c0,0.2,0.1,0.2,0.2,0.2c1.1,0,2.3,0,3.4,0c0.2,0,0.2-0.1,0.2-0.2
											c0-0.7,0-1.4,0-2.1c-0.1-0.5,0.3-1,0.9-1.1c0.1,0,0.1,0,0.2,0c0.9,0,1.9,0,2.8,0c1.1,0,2,0.8,2,1.9v0.1c0,1.3,0,2.5,0,3.8
											c0,0.2-0.1,0.5-0.4,0.5c-0.3,0.1-0.5-0.1-0.6-0.3v-0.1c0-0.3,0-0.5,0-0.8c0-0.2-0.1-0.2-0.2-0.2
											C-12493.1-162.6-12494.5-162.6-12495.9-162.6"/>
										<path id="Path_4786-4" class="st26" d="M-12498.3-167.4c0.8,0,1.5,0.7,1.4,1.5c0,0.8-0.7,1.5-1.5,1.4
											c-0.8,0-1.4-0.7-1.4-1.5C-12499.7-166.8-12499.1-167.4-12498.3-167.4L-12498.3-167.4"/>
									</g>
								</g>
							</g>
						</g>
					</g>
				</g>
				<text transform="matrix(1 0 0 1 1590.479 397.6731)" class="st18 st12">Le Mridien</text>
			</g>
			<g id="Group_5695">
				<g id="Group_5686" transform="translate(-98 46.018)">
					<circle id="Ellipse_1168-5" class="st15" cx="1769.3" cy="329.1" r="7.5"/>
					<g>
						<g>
							<g>
								<g>
									<defs>
										<rect id="SVGID_35_" x="44559.7" y="1807.1" width="10.7" height="7.3"/>
									</defs>
									<clipPath id="SVGID_36_">
										<use xlink:href="#SVGID_35_"  style="overflow:visible;"/>
									</clipPath>
									<g id="Group_5679-5" transform="translate(14265.229 493.853)" class="st46">
										<path id="Path_4785-5" class="st26" d="M-12495.9-162.6c-1.4,0-2.7,0-4.1,0c-0.2,0-0.2,0.1-0.2,0.2c0,0.2,0,0.5,0,0.7
											c0,0.3-0.2,0.5-0.4,0.5c0,0,0,0-0.1,0c-0.3,0-0.5-0.2-0.5-0.5c0,0,0,0,0-0.1c0-2.1,0-4.2,0-6.2c0-0.3,0.2-0.5,0.4-0.5l0,0
											c0.3,0,0.5,0.2,0.5,0.5l0,0c0,1.2,0,2.4,0,3.6c0,0.2,0.1,0.2,0.2,0.2c1.1,0,2.3,0,3.4,0c0.2,0,0.2-0.1,0.2-0.2
											c0-0.7,0-1.4,0-2.1c-0.1-0.5,0.3-1,0.9-1.1c0.1,0,0.1,0,0.2,0c0.9,0,1.9,0,2.8,0c1.1,0,2,0.8,2,1.9v0.1c0,1.3,0,2.5,0,3.8
											c0,0.2-0.1,0.5-0.4,0.5c-0.3,0.1-0.5-0.1-0.6-0.3v-0.1c0-0.3,0-0.5,0-0.8c0-0.2-0.1-0.2-0.2-0.2
											C-12493.1-162.6-12494.5-162.6-12495.9-162.6"/>
										<path id="Path_4786-5" class="st26" d="M-12498.3-167.4c0.8,0,1.5,0.7,1.4,1.5c0,0.8-0.7,1.5-1.5,1.4
											c-0.8,0-1.4-0.7-1.4-1.5C-12499.7-166.8-12499.1-167.4-12498.3-167.4L-12498.3-167.4"/>
									</g>
								</g>
							</g>
						</g>
					</g>
				</g>
				<text transform="matrix(1 0 0 1 1566.479 379.6731)" class="st18 st12">Shangrila Hotel</text>
			</g>
			<g id="Group_5694">
				<g id="Group_5687" transform="translate(-99 29.018)">
					<circle id="Ellipse_1168-6" class="st15" cx="1769.3" cy="329.1" r="7.5"/>
					<g>
						<g>
							<g>
								<g>
									<defs>
										<rect id="SVGID_37_" x="44559.7" y="1807.1" width="10.7" height="7.3"/>
									</defs>
									<clipPath id="SVGID_38_">
										<use xlink:href="#SVGID_37_"  style="overflow:visible;"/>
									</clipPath>
									<g id="Group_5679-6" transform="translate(14265.229 493.853)" class="st47">
										<path id="Path_4785-6" class="st26" d="M-12495.9-162.6c-1.4,0-2.7,0-4.1,0c-0.2,0-0.2,0.1-0.2,0.2c0,0.2,0,0.5,0,0.7
											c0,0.3-0.2,0.5-0.4,0.5c0,0,0,0-0.1,0c-0.3,0-0.5-0.2-0.5-0.5c0,0,0,0,0-0.1c0-2.1,0-4.2,0-6.2c0-0.3,0.2-0.5,0.4-0.5l0,0
											c0.3,0,0.5,0.2,0.5,0.5l0,0c0,1.2,0,2.4,0,3.6c0,0.2,0.1,0.2,0.2,0.2c1.1,0,2.3,0,3.4,0c0.2,0,0.2-0.1,0.2-0.2
											c0-0.7,0-1.4,0-2.1c-0.1-0.5,0.3-1,0.9-1.1c0.1,0,0.1,0,0.2,0c0.9,0,1.9,0,2.8,0c1.1,0,2,0.8,2,1.9v0.1c0,1.3,0,2.5,0,3.8
											c0,0.2-0.1,0.5-0.4,0.5c-0.3,0.1-0.5-0.1-0.6-0.3v-0.1c0-0.3,0-0.5,0-0.8c0-0.2-0.1-0.2-0.2-0.2
											C-12493.1-162.6-12494.5-162.6-12495.9-162.6"/>
										<path id="Path_4786-6" class="st26" d="M-12498.3-167.4c0.8,0,1.5,0.7,1.4,1.5c0,0.8-0.7,1.5-1.5,1.4
											c-0.8,0-1.4-0.7-1.4-1.5C-12499.7-166.8-12499.1-167.4-12498.3-167.4L-12498.3-167.4"/>
									</g>
								</g>
							</g>
						</g>
					</g>
				</g>
				<text transform="matrix(1 0 0 1 1583.479 362.6731)" class="st18 st12">ITC Windsor</text>
			</g>
			<g id="Group_5693">
				<g id="Group_5688" transform="translate(-109 -25.982)">
					<circle id="Ellipse_1168-7" class="st15" cx="1769.3" cy="329.1" r="7.5"/>
					<g>
						<g>
							<g>
								<g>
									<defs>
										<rect id="SVGID_39_" x="44559.7" y="1807.1" width="10.7" height="7.3"/>
									</defs>
									<clipPath id="SVGID_40_">
										<use xlink:href="#SVGID_39_"  style="overflow:visible;"/>
									</clipPath>
									<g id="Group_5679-7" transform="translate(14265.229 493.853)" class="st48">
										<path id="Path_4785-7" class="st26" d="M-12495.9-162.6c-1.4,0-2.7,0-4.1,0c-0.2,0-0.2,0.1-0.2,0.2c0,0.2,0,0.5,0,0.7
											c0,0.3-0.2,0.5-0.4,0.5c0,0,0,0-0.1,0c-0.3,0-0.5-0.2-0.5-0.5c0,0,0,0,0-0.1c0-2.1,0-4.2,0-6.2c0-0.3,0.2-0.5,0.4-0.5l0,0
											c0.3,0,0.5,0.2,0.5,0.5l0,0c0,1.2,0,2.4,0,3.6c0,0.2,0.1,0.2,0.2,0.2c1.1,0,2.3,0,3.4,0c0.2,0,0.2-0.1,0.2-0.2
											c0-0.7,0-1.4,0-2.1c-0.1-0.5,0.3-1,0.9-1.1c0.1,0,0.1,0,0.2,0c0.9,0,1.9,0,2.8,0c1.1,0,2,0.8,2,1.9v0.1c0,1.3,0,2.5,0,3.8
											c0,0.2-0.1,0.5-0.4,0.5c-0.3,0.1-0.5-0.1-0.6-0.3v-0.1c0-0.3,0-0.5,0-0.8c0-0.2-0.1-0.2-0.2-0.2
											C-12493.1-162.6-12494.5-162.6-12495.9-162.6"/>
										<path id="Path_4786-7" class="st26" d="M-12498.3-167.4c0.8,0,1.5,0.7,1.4,1.5c0,0.8-0.7,1.5-1.5,1.4
											c-0.8,0-1.4-0.7-1.4-1.5C-12499.7-166.8-12499.1-167.4-12498.3-167.4L-12498.3-167.4"/>
									</g>
								</g>
							</g>
						</g>
					</g>
				</g>
				<text transform="matrix(1 0 0 1 1564.479 307.6731)" class="st18 st12">Four Seasons</text>
			</g>
			<g id="Group_5692">
				<g id="Group_5689" transform="translate(-165 -43.982)">
					<circle id="Ellipse_1168-8" class="st15" cx="1769.3" cy="329.1" r="7.5"/>
					<g>
						<g>
							<g>
								<g>
									<defs>
										<rect id="SVGID_41_" x="44559.7" y="1807.1" width="10.7" height="7.3"/>
									</defs>
									<clipPath id="SVGID_42_">
										<use xlink:href="#SVGID_41_"  style="overflow:visible;"/>
									</clipPath>
									<g id="Group_5679-8" transform="translate(14265.229 493.853)" class="st49">
										<path id="Path_4785-8" class="st26" d="M-12495.9-162.6c-1.4,0-2.7,0-4.1,0c-0.2,0-0.2,0.1-0.2,0.2c0,0.2,0,0.5,0,0.7
											c0,0.3-0.2,0.5-0.4,0.5c0,0,0,0-0.1,0c-0.3,0-0.5-0.2-0.5-0.5c0,0,0,0,0-0.1c0-2.1,0-4.2,0-6.2c0-0.3,0.2-0.5,0.4-0.5l0,0
											c0.3,0,0.5,0.2,0.5,0.5l0,0c0,1.2,0,2.4,0,3.6c0,0.2,0.1,0.2,0.2,0.2c1.1,0,2.3,0,3.4,0c0.2,0,0.2-0.1,0.2-0.2
											c0-0.7,0-1.4,0-2.1c-0.1-0.5,0.3-1,0.9-1.1c0.1,0,0.1,0,0.2,0c0.9,0,1.9,0,2.8,0c1.1,0,2,0.8,2,1.9v0.1c0,1.3,0,2.5,0,3.8
											c0,0.2-0.1,0.5-0.4,0.5c-0.3,0.1-0.5-0.1-0.6-0.3v-0.1c0-0.3,0-0.5,0-0.8c0-0.2-0.1-0.2-0.2-0.2
											C-12493.1-162.6-12494.5-162.6-12495.9-162.6"/>
										<path id="Path_4786-8" class="st26" d="M-12498.3-167.4c0.8,0,1.5,0.7,1.4,1.5c0,0.8-0.7,1.5-1.5,1.4
											c-0.8,0-1.4-0.7-1.4-1.5C-12499.7-166.8-12499.1-167.4-12498.3-167.4L-12498.3-167.4"/>
									</g>
								</g>
							</g>
						</g>
					</g>
				</g>
				<text transform="matrix(1 0 0 1 1520.479 276.6731)" class="st18 st12">Gokulam </text>
				<text transform="matrix(1 0 0 1 1520.479 290.6731)" class="st18 st12">Grand Hotel</text>
			</g>
			<g id="Group_5691">
				<g id="Group_5690" transform="translate(-144 -72.982)">
					<circle id="Ellipse_1168-9" class="st15" cx="1769.3" cy="329.1" r="7.5"/>
					<g>
						<g>
							<g>
								<g>
									<defs>
										<rect id="SVGID_43_" x="44559.7" y="1807.1" width="10.7" height="7.3"/>
									</defs>
									<clipPath id="SVGID_44_">
										<use xlink:href="#SVGID_43_"  style="overflow:visible;"/>
									</clipPath>
									<g id="Group_5679-9" transform="translate(14265.229 493.853)" class="st50">
										<path id="Path_4785-9" class="st26" d="M-12495.9-162.6c-1.4,0-2.7,0-4.1,0c-0.2,0-0.2,0.1-0.2,0.2c0,0.2,0,0.5,0,0.7
											c0,0.3-0.2,0.5-0.4,0.5c0,0,0,0-0.1,0c-0.3,0-0.5-0.2-0.5-0.5c0,0,0,0,0-0.1c0-2.1,0-4.2,0-6.2c0-0.3,0.2-0.5,0.4-0.5l0,0
											c0.3,0,0.5,0.2,0.5,0.5l0,0c0,1.2,0,2.4,0,3.6c0,0.2,0.1,0.2,0.2,0.2c1.1,0,2.3,0,3.4,0c0.2,0,0.2-0.1,0.2-0.2
											c0-0.7,0-1.4,0-2.1c-0.1-0.5,0.3-1,0.9-1.1c0.1,0,0.1,0,0.2,0c0.9,0,1.9,0,2.8,0c1.1,0,2,0.8,2,1.9v0.1c0,1.3,0,2.5,0,3.8
											c0,0.2-0.1,0.5-0.4,0.5c-0.3,0.1-0.5-0.1-0.6-0.3v-0.1c0-0.3,0-0.5,0-0.8c0-0.2-0.1-0.2-0.2-0.2
											C-12493.1-162.6-12494.5-162.6-12495.9-162.6"/>
										<path id="Path_4786-9" class="st26" d="M-12498.3-167.4c0.8,0,1.5,0.7,1.4,1.5c0,0.8-0.7,1.5-1.5,1.4
											c-0.8,0-1.4-0.7-1.4-1.5C-12499.7-166.8-12499.1-167.4-12498.3-167.4L-12498.3-167.4"/>
									</g>
								</g>
							</g>
						</g>
					</g>
				</g>
				<text transform="matrix(1 0 0 1 1545.479 245.6731)" class="st18 st12">Oberoi Hotel </text>
				<text transform="matrix(1 0 0 1 1545.479 259.6731)" class="st18 st12">(Proposed)</text>
			</g>
		</g>
		<g id="Hotel_Button_Active" transform="translate(13153 990)">
			<text transform="matrix(1 0 0 1 -12461.1641 -148.4209)" class="st33 st11 st34">Hotels</text>
			<g id="Group_5682_1_" transform="translate(-13125 -1069)">
				<circle id="Ellipse_1168_1_" class="st15" cx="637.8" cy="914.6" r="14"/>
				<g id="Group_5680_1_" transform="translate(13129.177 1076.223)">
					<g>
						<g>
							<g>
								<g>
									<defs>
										<rect id="SVGID_45_" x="-12501.2" y="-168.4" width="20" height="13.7"/>
									</defs>
									<clipPath id="SVGID_46_">
										<use xlink:href="#SVGID_45_"  style="overflow:visible;"/>
									</clipPath>
									<g id="Group_5679_1_" class="st51">
										<path id="Path_4785_1_" class="st26" d="M-12491.2-157.5c-2.6,0-5.1,0-7.7,0c-0.4,0-0.5,0.1-0.4,0.5c0,0.4,0,0.9,0,1.3
											c0.1,0.5-0.3,0.9-0.8,1h-0.1c-0.5,0-0.9-0.4-0.9-0.9v-0.1c0-3.9,0-7.8,0-11.7c0-0.5,0.3-0.9,0.8-1c0,0,0,0,0.1,0
											c0.5,0,0.9,0.4,0.9,0.9v0.1c0,2.2,0,4.5,0,6.7c0,0.4,0.1,0.4,0.5,0.4c2.1,0,4.3,0,6.4,0c0.4,0,0.4-0.1,0.4-0.5
											c0-1.3,0-2.6,0-3.9c-0.1-1,0.6-1.9,1.7-2c0.1,0,0.2,0,0.3,0c1.7,0,3.5,0,5.2,0c2-0.1,3.7,1.5,3.7,3.5c0,0.1,0,0.2,0,0.2
											c0,2.4,0,4.7,0,7.1c0.1,0.5-0.2,0.9-0.7,1s-1-0.2-1.1-0.6c0-0.1,0-0.2,0-0.2c0-0.5,0-0.9,0-1.4c0-0.4-0.1-0.4-0.4-0.4
											C-12486-157.5-12488.6-157.5-12491.2-157.5"/>
										<path id="Path_4786_1_" class="st26" d="M-12495.7-166.6c1.5,0,2.7,1.2,2.7,2.7s-1.2,2.7-2.7,2.7s-2.7-1.2-2.7-2.7
											C-12498.5-165.4-12497.2-166.6-12495.7-166.6L-12495.7-166.6"/>
									</g>
								</g>
							</g>
						</g>
					</g>
				</g>
			</g>
		</g>
	</g>
	<g id="Hospitals_2_">
		<g id="Hospital_Pins" transform="translate(11832 -175)">
			<g id="Group_5543" transform="translate(-5 28)">
				<text transform="matrix(1 0 0 1 -11255.5303 372.8901)" class="st18 st12">Aster CMI Hospital</text>
				<g id="Group_5473" transform="translate(966.523 311)">
					<ellipse id="Ellipse_927-2" class="st21" cx="-12096.7" cy="56.8" rx="7.5" ry="7.5"/>
					<g id="Group_5138-2" transform="translate(2.759 2.758)">
						<path id="Path_4232-2" class="st52" d="M-12104.1,55.5l3.2,1.7v-1.7H-12104.1z"/>
						<path id="Path_4233-2" class="st26" d="M-12094.7,52.6v2.7c0,0.1-0.1,0.2-0.2,0.2h-2.7c-0.1,0-0.2,0.1-0.2,0.2v2.7
							c0,0.1-0.1,0.2-0.2,0.2h-2.7c-0.1,0-0.2-0.1-0.2-0.2v-2.7c0-0.1-0.1-0.2-0.2-0.2l0,0h-2.8c-0.1,0-0.2-0.1-0.2-0.2v-2.7
							c0-0.1,0.1-0.2,0.2-0.2h2.8c0.1,0,0.2-0.1,0.2-0.2l0,0v-2.7c0-0.1,0.1-0.2,0.2-0.2h2.7c0.1,0,0.2,0.1,0.2,0.2v2.7
							c0,0.1,0.1,0.2,0.2,0.2h2.7C-12094.8,52.4-12094.7,52.5-12094.7,52.6z"/>
					</g>
				</g>
			</g>
			<g id="Group_5544">
				<text transform="matrix(1 0 0 1 -11264.4639 351.4481)" class="st18 st12">Motherhood hospital</text>
				<g id="Group_5475" transform="translate(972.523 290)">
					<ellipse id="Ellipse_927-3" class="st21" cx="-12096.7" cy="56.8" rx="7.5" ry="7.5"/>
					<g id="Group_5138-3" transform="translate(2.759 2.758)">
						<path id="Path_4232-3" class="st52" d="M-12104.1,55.5l3.2,1.7v-1.7H-12104.1z"/>
						<path id="Path_4233-3" class="st26" d="M-12094.7,52.6v2.7c0,0.1-0.1,0.2-0.2,0.2h-2.7c-0.1,0-0.2,0.1-0.2,0.2v2.7
							c0,0.1-0.1,0.2-0.2,0.2h-2.7c-0.1,0-0.2-0.1-0.2-0.2v-2.7c0-0.1-0.1-0.2-0.2-0.2l0,0h-2.8c-0.1,0-0.2-0.1-0.2-0.2v-2.7
							c0-0.1,0.1-0.2,0.2-0.2h2.8c0.1,0,0.2-0.1,0.2-0.2l0,0v-2.7c0-0.1,0.1-0.2,0.2-0.2h2.7c0.1,0,0.2,0.1,0.2,0.2v2.7
							c0,0.1,0.1,0.2,0.2,0.2h2.7C-12094.8,52.4-12094.7,52.5-12094.7,52.6z"/>
					</g>
				</g>
			</g>
			<g id="Group_5542" transform="translate(0 38)">
				<g id="Group_5474" transform="translate(984.523 326)">
					<ellipse id="Ellipse_927-4" class="st21" cx="-12096.7" cy="56.8" rx="7.5" ry="7.5"/>
					<g id="Group_5138-4" transform="translate(2.759 2.758)">
						<path id="Path_4232-4" class="st52" d="M-12104.1,55.5l3.2,1.7v-1.7H-12104.1z"/>
						<path id="Path_4233-4" class="st26" d="M-12094.7,52.6v2.7c0,0.1-0.1,0.2-0.2,0.2h-2.7c-0.1,0-0.2,0.1-0.2,0.2v2.7
							c0,0.1-0.1,0.2-0.2,0.2h-2.7c-0.1,0-0.2-0.1-0.2-0.2v-2.7c0-0.1-0.1-0.2-0.2-0.2l0,0h-2.8c-0.1,0-0.2-0.1-0.2-0.2v-2.7
							c0-0.1,0.1-0.2,0.2-0.2h2.8c0.1,0,0.2-0.1,0.2-0.2l0,0v-2.7c0-0.1,0.1-0.2,0.2-0.2h2.7c0.1,0,0.2,0.1,0.2,0.2v2.7
							c0,0.1,0.1,0.2,0.2,0.2h2.7C-12094.8,52.4-12094.7,52.5-12094.7,52.6z"/>
					</g>
				</g>
				<text transform="matrix(1 0 0 1 -11266.4082 388.3351)" class="st18 st12">Columbia Asia Hospital</text>
			</g>
			<g id="Group_5540">
				<g id="Group_5476" transform="translate(923.523 425)">
					<ellipse id="Ellipse_927-5" class="st21" cx="-12096.7" cy="56.8" rx="7.5" ry="7.5"/>
					<g id="Group_5138-5" transform="translate(2.759 2.758)">
						<path id="Path_4232-5" class="st52" d="M-12104.1,55.5l3.2,1.7v-1.7H-12104.1z"/>
						<path id="Path_4233-5" class="st26" d="M-12094.7,52.6v2.7c0,0.1-0.1,0.2-0.2,0.2h-2.7c-0.1,0-0.2,0.1-0.2,0.2v2.7
							c0,0.1-0.1,0.2-0.2,0.2h-2.7c-0.1,0-0.2-0.1-0.2-0.2v-2.7c0-0.1-0.1-0.2-0.2-0.2l0,0h-2.8c-0.1,0-0.2-0.1-0.2-0.2v-2.7
							c0-0.1,0.1-0.2,0.2-0.2h2.8c0.1,0,0.2-0.1,0.2-0.2l0,0v-2.7c0-0.1,0.1-0.2,0.2-0.2h2.7c0.1,0,0.2,0.1,0.2,0.2v2.7
							c0,0.1,0.1,0.2,0.2,0.2h2.7C-12094.8,52.4-12094.7,52.5-12094.7,52.6z"/>
					</g>
				</g>
				<text transform="matrix(1 0 0 1 -11293.0684 487.2261)" class="st18 st12">Ramaiah Hospital</text>
			</g>
			<g id="Group_5541">
				<text transform="matrix(1 0 0 1 -11104.4951 476.3471)" class="st18 st12">Baptist Hospital</text>
				<g id="Group_5477" transform="translate(980.523 415)">
					<ellipse id="Ellipse_927-6" class="st21" cx="-12096.7" cy="56.8" rx="7.5" ry="7.5"/>
					<g id="Group_5138-6" transform="translate(2.759 2.758)">
						<path id="Path_4232-6" class="st52" d="M-12104.1,55.5l3.2,1.7v-1.7H-12104.1z"/>
						<path id="Path_4233-6" class="st26" d="M-12094.7,52.6v2.7c0,0.1-0.1,0.2-0.2,0.2h-2.7c-0.1,0-0.2,0.1-0.2,0.2v2.7
							c0,0.1-0.1,0.2-0.2,0.2h-2.7c-0.1,0-0.2-0.1-0.2-0.2v-2.7c0-0.1-0.1-0.2-0.2-0.2l0,0h-2.8c-0.1,0-0.2-0.1-0.2-0.2v-2.7
							c0-0.1,0.1-0.2,0.2-0.2h2.8c0.1,0,0.2-0.1,0.2-0.2l0,0v-2.7c0-0.1,0.1-0.2,0.2-0.2h2.7c0.1,0,0.2,0.1,0.2,0.2v2.7
							c0,0.1,0.1,0.2,0.2,0.2h2.7C-12094.8,52.4-12094.7,52.5-12094.7,52.6z"/>
					</g>
				</g>
			</g>
		</g>
		<g id="Hospital_Button_Active" transform="translate(12899 990)">
			<text transform="matrix(1 0 0 1 -12462.084 -148.4209)" class="st33 st11 st34">Hospitals</text>
			<g id="Group_5176_1_">
				<ellipse id="Ellipse_927_1_" class="st53" cx="-12487.2" cy="-154.4" rx="14" ry="14"/>
				<g id="Group_5138_1_" transform="translate(5.69 5.689)">
					<path id="Path_4232_1_" class="st36" d="M-12501.1-157.4l5.5,3.1v-3.1H-12501.1z"/>
					<path id="Path_4233_1_" class="st26" d="M-12484.6-162.5v4.8c0,0.2-0.2,0.4-0.4,0.4h-4.8c-0.2,0-0.4,0.2-0.4,0.4l0,0v4.8
						c0,0.2-0.2,0.4-0.4,0.4l0,0h-4.8c-0.2,0-0.4-0.2-0.4-0.4l0,0v-4.8c0-0.2-0.2-0.4-0.4-0.4l0,0h-4.8c-0.2,0-0.4-0.2-0.4-0.4l0,0
						v-4.8c0-0.2,0.2-0.4,0.4-0.4l0,0h4.8c0.2,0,0.4-0.2,0.4-0.4l0,0v-4.8c0-0.2,0.2-0.4,0.4-0.4l0,0h4.8c0.2,0,0.4,0.2,0.4,0.4v4.8
						c0,0.2,0.2,0.4,0.4,0.4l0,0h4.8C-12484.7-162.9-12484.6-162.7-12484.6-162.5z"/>
				</g>
			</g>
		</g>
	</g>
	<g id="schools">
		<g id="School_Pins" transform="translate(12223 71)">
			<text transform="matrix(1 0 0 1 -11668.4893 22.7741)" class="st18 st12">Ryan International School</text>
			<g id="Group_5538">
				<g id="Group_5521">
					<g id="Group_5478" transform="translate(477.826 -2303.182)">
						<g id="Group_5175" transform="translate(524 2454)">
							<path id="Path_4236" class="st19" d="M-12487-163.3l-6.3,5l-6.4-5.1l6.3-5L-12487-163.3z"/>
							<path id="Path_4237" class="st19" d="M-12488.6-160.1v4.6h-9.5v-4.7l4.8,3.8L-12488.6-160.1z"/>
							<rect id="Rectangle_6663" x="-12501.2" y="-163.4" class="st19" width="1.5" height="9.8"/>
						</g>
					</g>
					<text transform="matrix(1 0 0 1 -11684.4893 -5.2259)" class="st18 st12">Stonehill International School</text>
				</g>
				<g id="Group_5479" transform="translate(473.826 -2276.182)">
					<g id="Group_5175-2" transform="translate(524 2454)">
						<path id="Path_4236-2" class="st19" d="M-12487-163.3l-6.3,5l-6.4-5.1l6.3-5L-12487-163.3z"/>
						<path id="Path_4237-2" class="st19" d="M-12488.6-160.1v4.6h-9.5v-4.7l4.8,3.8L-12488.6-160.1z"/>
						<rect id="Rectangle_6663-2" x="-12501.2" y="-163.4" class="st19" width="1.5" height="9.8"/>
					</g>
				</g>
				<g id="Group_5522">
					<g id="Group_5480" transform="translate(465.826 -2256.182)">
						<g id="Group_5175-3" transform="translate(524 2454)">
							<path id="Path_4236-3" class="st19" d="M-12487-163.3l-6.3,5l-6.4-5.1l6.3-5L-12487-163.3z"/>
							<path id="Path_4237-3" class="st19" d="M-12488.6-160.1v4.6h-9.5v-4.7l4.8,3.8L-12488.6-160.1z"/>
							<rect id="Rectangle_6663-3" x="-12501.2" y="-163.4" class="st19" width="1.5" height="9.8"/>
						</g>
					</g>
					<text transform="matrix(1 0 0 1 -11701.4893 42.7741)" class="st18 st12">Canadian International School</text>
				</g>
				<g id="Group_5525">
					<g id="Group_5481" transform="translate(434.826 -2226.182)">
						<g id="Group_5175-4" transform="translate(524 2454)">
							<path id="Path_4236-4" class="st19" d="M-12487-163.3l-6.3,5l-6.4-5.1l6.3-5L-12487-163.3z"/>
							<path id="Path_4237-4" class="st19" d="M-12488.6-160.1v4.6h-9.5v-4.7l4.8,3.8L-12488.6-160.1z"/>
							<rect id="Rectangle_6663-4" x="-12501.2" y="-163.4" class="st19" width="1.5" height="9.8"/>
						</g>
					</g>
					<text transform="matrix(1 0 0 1 -11585.2266 91.7741)" class="st18 st12">Mallya Aditi</text>
					<text transform="matrix(1 0 0 1 -11636.75 105.7741)" class="st18 st12">International School</text>
				</g>
				<g id="Group_5526">
					<g id="Group_5482" transform="translate(417.826 -2162.182)">
						<g id="Group_5175-5" transform="translate(524 2454)">
							<path id="Path_4236-5" class="st19" d="M-12487-163.3l-6.3,5l-6.4-5.1l6.3-5L-12487-163.3z"/>
							<path id="Path_4237-5" class="st19" d="M-12488.6-160.1v4.6h-9.5v-4.7l4.8,3.8L-12488.6-160.1z"/>
							<rect id="Rectangle_6663-5" x="-12501.2" y="-163.4" class="st19" width="1.5" height="9.8"/>
						</g>
					</g>
					<text transform="matrix(1 0 0 1 -11688.4893 135.7741)" class="st18 st12">Trio World Academy</text>
				</g>
				<g id="Group_5527">
					<g id="Group_5483" transform="translate(459.826 -2112.182)">
						<g id="Group_5175-6" transform="translate(524 2454)">
							<path id="Path_4236-6" class="st19" d="M-12487-163.3l-6.3,5l-6.4-5.1l6.3-5L-12487-163.3z"/>
							<path id="Path_4237-6" class="st19" d="M-12488.6-160.1v4.6h-9.5v-4.7l4.8,3.8L-12488.6-160.1z"/>
							<rect id="Rectangle_6663-6" x="-12501.2" y="-163.4" class="st19" width="1.5" height="9.8"/>
						</g>
					</g>
					<text transform="matrix(1 0 0 1 -11651.4893 184.7741)" class="st18 st12">Vidya Niketan School</text>
				</g>
				<g id="Group_5528">
					<g id="Group_5484" transform="translate(380.826 -2064.182)">
						<g id="Group_5175-7" transform="translate(524 2454)">
							<path id="Path_4236-7" class="st19" d="M-12487-163.3l-6.3,5l-6.4-5.1l6.3-5L-12487-163.3z"/>
							<path id="Path_4237-7" class="st19" d="M-12488.6-160.1v4.6h-9.5v-4.7l4.8,3.8L-12488.6-160.1z"/>
							<rect id="Rectangle_6663-7" x="-12501.2" y="-163.4" class="st19" width="1.5" height="9.8"/>
						</g>
					</g>
					<text transform="matrix(1 0 0 1 -11799.4893 233.7741)" class="st18 st12">Ramaiah Institute of Technology</text>
				</g>
				<g id="Group_5523">
					<g id="Group_5485" transform="translate(540.826 -2276.182)">
						<g id="Group_5175-8" transform="translate(524 2454)">
							<path id="Path_4236-8" class="st19" d="M-12487-163.3l-6.3,5l-6.4-5.1l6.3-5L-12487-163.3z"/>
							<path id="Path_4237-8" class="st19" d="M-12488.6-160.1v4.6h-9.5v-4.7l4.8,3.8L-12488.6-160.1z"/>
							<rect id="Rectangle_6663-8" x="-12501.2" y="-163.4" class="st19" width="1.5" height="9.8"/>
						</g>
					</g>
					<text transform="matrix(1 0 0 1 -11416.4893 22.7741)" class="st18 st12">Delhi Public School</text>
				</g>
				<g id="Group_5524">
					<g id="Group_5486" transform="translate(480.826 -2210.182)">
						<g id="Group_5175-9" transform="translate(524 2454)">
							<path id="Path_4236-9" class="st19" d="M-12487-163.3l-6.3,5l-6.4-5.1l6.3-5L-12487-163.3z"/>
							<path id="Path_4237-9" class="st19" d="M-12488.6-160.1v4.6h-9.5v-4.7l4.8,3.8L-12488.6-160.1z"/>
							<rect id="Rectangle_6663-9" x="-12501.2" y="-163.4" class="st19" width="1.5" height="9.8"/>
						</g>
					</g>
					<text transform="matrix(1 0 0 1 -11476.4893 88.7741)" class="st18 st12">Vidyashilp Academy</text>
				</g>
			</g>
		</g>
		<g id="School_Button_Active" transform="translate(12656 989.127)">
			<text transform="matrix(1 0 0 1 -12460.7109 -147.5479)" class="st33 st11 st34">Schools</text>
			<g id="Group_5216" transform="translate(-524 -2454)">
				<g id="Group_5175-10" transform="translate(524 2454)">
					<path id="Path_4236-10" class="st19" d="M-12472-158l-13,10.2l-13.2-10.4l13-10.2L-12472-158z"/>
					<path id="Path_4237-10" class="st19" d="M-12475.3-151.4v9.5h-19.6v-9.6l9.9,7.8L-12475.3-151.4z"/>
					<rect id="Rectangle_6663-10" x="-12501.2" y="-158.1" class="st19" width="3" height="20.2"/>
				</g>
			</g>
		</g>
	</g>
	<g id="north_icon" transform="translate(-12321 -801)">
		<g>
			<g>
				<defs>
					<rect id="SVGID_47_" x="25852.7" y="2227.1" width="56.4" height="56.4"/>
				</defs>
				<clipPath id="SVGID_48_">
					<use xlink:href="#SVGID_47_"  style="overflow:visible;"/>
				</clipPath>
				<g id="Group_5704" transform="translate(12326.112 806.112)" class="st54">
					<path id="Path_4790" class="st16" d="M1257,643.2c0,15.6-12.6,28.2-28.2,28.2s-28.2-12.6-28.2-28.2c0-15.6,12.6-28.2,28.2-28.2
						l0,0C1244.3,614.9,1257,627.6,1257,643.2"/>
				</g>
			</g>
		</g>
		<circle id="Ellipse_1169" class="st19" cx="13554.7" cy="1449.1" r="27.2"/>
		<g id="Ellipse_1170" transform="translate(12321 801)">
			<circle class="st16" cx="1233.7" cy="648.1" r="32.8"/>
			<circle class="st55" cx="1233.7" cy="648.1" r="31.9"/>
		</g>
		<g id="Group_5703" transform="translate(12343.557 832.171)">
			<g id="Group_5702" transform="translate(0 0)">
				<path id="Path_4788" class="st56" d="M1211.3,612.9v18.4l-12.1,4.3L1211.3,612.9z"/>
				<path id="Path_4789" class="st15" d="M1223.4,635.6l-12.1-4.3v-18.4L1223.4,635.6z"/>
			</g>
		</g>
		<text transform="matrix(1 0 0 1 13549.3232 1439.4121)" class="st26 st57 st58">N</text>
	</g>
</g>
</svg>
