<svg id="Location_map_hotels_1" xmlns="http://www.w3.org/2000/svg" xmlns:xlink="http://www.w3.org/1999/xlink" width="1394" height="1027" viewBox="0 0 1394 1027">
  <defs>
    <style>
      #Location_map_hotels_1 .cls-1, #Location_map_hotels_1 .cls-13, #Location_map_hotels_1 .cls-21, #Location_map_hotels_1 .cls-4, #Location_map_hotels_1 .cls-6, #Location_map_hotels_1 .cls-8 {
        fill: none;
      }

      #Location_map_hotels_1 .cls-2 {
        fill: #fff;
      }

      #Location_map_hotels_1 .cls-3 {
        fill: #edf0f5;
      }

      #Location_map_hotels_1 .cls-4, #Location_map_hotels_1 .cls-6 {
        stroke: #83b5dc;
      }

      #Location_map_hotels_1 .cls-4, #Location_map_hotels_1 .cls-8 {
        stroke-miterlimit: 10;
      }

      #Location_map_hotels_1 .cls-5 {
        clip-path: url(#clip-path2);
      }

      #Location_map_hotels_1 .cls-7 {
        fill: #83b5dc;
      }

      #Location_map_hotels_1 .cls-8 {
        stroke: #009ad8;
      }

      #Location_map_hotels_1 .cls-21, #Location_map_hotels_1 .cls-8 {
        stroke-width: 3px;
      }

      #Location_map_hotels_1 .cls-9 {
        fill: #6482a4;
      }

      #Location_map_hotels_1 .cls-14, #Location_map_hotels_1 .cls-9 {
        font-size: 14px;
      }

      #Location_map_hotels_1 .cls-11, #Location_map_hotels_1 .cls-26, #Location_map_hotels_1 .cls-9 {
        font-family: Roboto-Regular, Roboto;
      }

      #Location_map_hotels_1 .cls-10 {
        fill: #f6f9f9;
      }

      #Location_map_hotels_1 .cls-11 {
        font-size: 16px;
      }

      #Location_map_hotels_1 .cls-12 {
        fill: #fc932f;
      }

      #Location_map_hotels_1 .cls-13, #Location_map_hotels_1 .cls-21 {
        stroke: #fc932f;
      }

      #Location_map_hotels_1 .cls-13 {
        stroke-width: 2px;
      }

      #Location_map_hotels_1 .cls-14 {
        font-family: Roboto-Light, Roboto;
        font-weight: 300;
      }

      #Location_map_hotels_1 .cls-15 {
        fill: #0e7bd2;
      }

      #Location_map_hotels_1 .cls-16 {
        fill: #424143;
      }

      #Location_map_hotels_1 .cls-17 {
        fill: #00a551;
      }

      #Location_map_hotels_1 .cls-18 {
        fill: #ef4e30;
      }

      #Location_map_hotels_1 .cls-19 {
        fill: #0074bb;
      }

      #Location_map_hotels_1 .cls-20 {
        fill: #f6921e;
      }

      #Location_map_hotels_1 .cls-22 {
        clip-path: url(#clip-path-62);
      }

      #Location_map_hotels_1 .cls-23 {
        fill: #0052a2;
      }

      #Location_map_hotels_1 .cls-24 {
        clip-path: url(#clip-path-92);
      }

      #Location_map_hotels_1 .cls-25 {
        fill: #b1cee6;
        opacity: 0.46;
      }

      #Location_map_hotels_1 .cls-26, #Location_map_hotels_1 .cls-27 {
        fill: #7c92ab;
      }

      #Location_map_hotels_1 .cls-26 {
        font-size: 18px;
      }

      #Location_map_hotels_1 .cls-28 {
        fill: #4a6481;
      }

      #Location_map_hotels_1 .cls-29 {
        clip-path: url(#clip-path-102);
      }

      #Location_map_hotels_1 .cls-30 {
        clip-path: url(#clip-path-112);
      }

      #Location_map_hotels_1 .cls-31 {
        stroke: none;
      }

      #Location_map_hotels_1 .cls-32 {
        filter: url(#Rectangle_7071);
      }

      #Location_map_hotels_1 .cls-33 {
        filter: url(#Rectangle_6730-2);
      }

      #Location_map_hotels_1 .cls-34 {
        filter: url(#Rectangle_6678);
      }

      #Location_map_hotels_1 .cls-35 {
        filter: url(#Rectangle_6677);
      }

      #Location_map_hotels_1 .cls-36 {
        filter: url(#Rectangle_6679);
      }

      #Location_map_hotels_1 .cls-37 {
        filter: url(#Rectangle_6675);
      }

      #Location_map_hotels_1 .cls-38 {
        filter: url(#Rectangle_6730);
      }

      #Location_map_hotels_1 .cls-39 {
        filter: url(#Rectangle_6676);
      }

      #Location_map_hotels_1 .cls-40 {
        filter: url(#Rectangle_7051);
      }
    </style>
    <filter id="Rectangle_7051" x="0" y="85" width="1394" height="908" filterUnits="userSpaceOnUse">
      <feOffset dy="3" input="SourceAlpha"/>
      <feGaussianBlur stdDeviation="5" result="blur"/>
      <feFlood flood-opacity="0.09"/>
      <feComposite operator="in" in2="blur"/>
      <feComposite in="SourceGraphic"/>
    </filter>
    <clipPath id="clip-path2">
      <rect id="Rectangle_7058" data-name="Rectangle 7058" class="cls-1" width="854.287" height="1027"/>
    </clipPath>
    <filter id="Rectangle_6676" x="738.533" y="607.922" width="138.441" height="46.549" filterUnits="userSpaceOnUse">
      <feOffset dy="3" input="SourceAlpha"/>
      <feGaussianBlur stdDeviation="3" result="blur-2"/>
      <feFlood flood-opacity="0.071"/>
      <feComposite operator="in" in2="blur-2"/>
      <feComposite in="SourceGraphic"/>
    </filter>
    <filter id="Rectangle_6730" x="798.533" y="795.922" width="152.441" height="46.549" filterUnits="userSpaceOnUse">
      <feOffset dy="3" input="SourceAlpha"/>
      <feGaussianBlur stdDeviation="3" result="blur-3"/>
      <feFlood flood-opacity="0.071"/>
      <feComposite operator="in" in2="blur-3"/>
      <feComposite in="SourceGraphic"/>
    </filter>
    <filter id="Rectangle_6675" x="793.533" y="507.922" width="128.441" height="46.549" filterUnits="userSpaceOnUse">
      <feOffset dy="3" input="SourceAlpha"/>
      <feGaussianBlur stdDeviation="3" result="blur-4"/>
      <feFlood flood-opacity="0.071"/>
      <feComposite operator="in" in2="blur-4"/>
      <feComposite in="SourceGraphic"/>
    </filter>
    <filter id="Rectangle_6679" x="563.559" y="210.922" width="123.441" height="46.549" filterUnits="userSpaceOnUse">
      <feOffset dy="3" input="SourceAlpha"/>
      <feGaussianBlur stdDeviation="3" result="blur-5"/>
      <feFlood flood-opacity="0.071"/>
      <feComposite operator="in" in2="blur-5"/>
      <feComposite in="SourceGraphic"/>
    </filter>
    <filter id="Rectangle_6677" x="484.533" y="412.922" width="138.441" height="46.549" filterUnits="userSpaceOnUse">
      <feOffset dy="3" input="SourceAlpha"/>
      <feGaussianBlur stdDeviation="3" result="blur-6"/>
      <feFlood flood-opacity="0.071"/>
      <feComposite operator="in" in2="blur-6"/>
      <feComposite in="SourceGraphic"/>
    </filter>
    <filter id="Rectangle_6678" x="417.559" y="344.922" width="152.441" height="46.549" filterUnits="userSpaceOnUse">
      <feOffset dy="3" input="SourceAlpha"/>
      <feGaussianBlur stdDeviation="3" result="blur-7"/>
      <feFlood flood-opacity="0.071"/>
      <feComposite operator="in" in2="blur-7"/>
      <feComposite in="SourceGraphic"/>
    </filter>
    <filter id="Rectangle_6730-2" x="968.533" y="471.922" width="125.441" height="46.549" filterUnits="userSpaceOnUse">
      <feOffset dy="3" input="SourceAlpha"/>
      <feGaussianBlur stdDeviation="3" result="blur-8"/>
      <feFlood flood-opacity="0.071"/>
      <feComposite operator="in" in2="blur-8"/>
      <feComposite in="SourceGraphic"/>
    </filter>
    <clipPath id="clip-path-62">
      <rect id="Rectangle_7063" data-name="Rectangle 7063" class="cls-1" width="18.1" height="22"/>
    </clipPath>
    <clipPath id="clip-path-92">
      <rect id="Rectangle_7069" data-name="Rectangle 7069" class="cls-1" width="16.593" height="18.797"/>
    </clipPath>
    <filter id="Rectangle_7071" x="0" y="865" width="1394" height="128" filterUnits="userSpaceOnUse">
      <feOffset dy="3" input="SourceAlpha"/>
      <feGaussianBlur stdDeviation="5" result="blur-9"/>
      <feFlood flood-opacity="0.09"/>
      <feComposite operator="in" in2="blur-9"/>
      <feComposite in="SourceGraphic"/>
    </filter>
    <clipPath id="clip-path-102">
      <rect id="Rectangle_7232" data-name="Rectangle 7232" class="cls-2" width="20.029" height="13.658"/>
    </clipPath>
    <clipPath id="clip-path-112">
      <rect id="Rectangle_7232-2" data-name="Rectangle 7232" class="cls-2" width="10.684" height="7.286"/>
    </clipPath>
  </defs>
  <g id="Location_map_hotels" transform="translate(-12486 -71)">
    <g class="cls-40" transform="matrix(1, 0, 0, 1, 12486, 71)">
      <rect id="Rectangle_7051-2" data-name="Rectangle 7051" class="cls-2" width="1364" height="878" transform="translate(15 97)"/>
    </g>
    <g id="Group_5572" data-name="Group 5572" transform="translate(12223 -1598)">
      <g id="Group_5571" data-name="Group 5571">
        <g id="Group_5570" data-name="Group 5570">
          <g id="Group_5569" data-name="Group 5569">
            <g id="Group_5568" data-name="Group 5568">
              <g id="Group_5567" data-name="Group 5567">
                <path id="Path_4496" data-name="Path 4496" class="cls-3" d="M0,0H1364V780H0Z" transform="translate(278 1766)"/>
                <g id="Location_map_outline" transform="translate(545.027 1669)">
                  <path id="Path_4518" data-name="Path 4518" class="cls-4" d="M3.742,480.423,167.811,428.4l22.933,15.768,56.4-14.706,98.492,33.8-33.319,15.862L309.2,507.11h43.082" transform="translate(0.564 64.534)"/>
                  <g id="Group_5464" data-name="Group 5464">
                    <g id="Group_5463" data-name="Group 5463" class="cls-5">
                      <path id="Path_4519" data-name="Path 4519" class="cls-4" d="M25.1,838.568l24.575-26.441L164.23,651.349l33.561-15.738L271.1,574.137l115.631-62.93,38.393-.215,31.316-28.032,52.538,8.456,22.671-20.808L604.1,440.72,851.275,280.994" transform="translate(0.047 42.329)"/>
                      <path id="Path_4520" data-name="Path 4520" class="cls-4" d="M.313,109.094,59.649,130.5l53.389,8.618,31.124-11.731L205,139.118l-18.75,76.627,55.777,64.626,6.151,74.529" transform="translate(0.047 16.434)"/>
                    </g>
                  </g>
                  <line id="Line_12208" data-name="Line 12208" class="cls-4" x1="172.964" y1="92.97" transform="translate(6.485 248.854)"/>
                  <g id="Group_5466" data-name="Group 5466">
                    <g id="Group_5465" data-name="Group 5465" class="cls-5">
                      <path id="Path_4521" data-name="Path 4521" class="cls-4" d="M484.239,98,394.57,254.471,367.487,437.124,369.47,493.9l31.661,31.3" transform="translate(55.358 0.094)"/>
                      <line id="Line_12210" data-name="Line 12210" class="cls-6" x1="36" y1="7" transform="translate(390.473 406.5)"/>
                      <path id="Path_4540" data-name="Path 4540" class="cls-6" d="M18.284,72.742,0,0" transform="translate(380.473 365.5)"/>
                    </g>
                  </g>
                  <path id="Path_4522" data-name="Path 4522" class="cls-4" d="M293.587,473.611l6.044-76.97,8.958-12.215,16.008-6.969,12.787,9.751,41.123-1.25,12.78,4.01L406.92,435.01l17.445,1.171,16.865-17.3L458.435,421l38.083-77.491" transform="translate(44.226 51.746)"/>
                  <g id="Group_5468" data-name="Group 5468">
                    <g id="Group_5467" data-name="Group 5467" class="cls-5">
                      <path id="Path_4523" data-name="Path 4523" class="cls-4" d="M434.186,839.91l-35.75-7.842-40.5-3.953,18.655-94.649,30.276-127.593,27.322-.61L458.9,566.62l32.636-3.6,20.947-.864" transform="translate(53.919 84.682)"/>
                    </g>
                  </g>
                  <path id="Path_4524" data-name="Path 4524" class="cls-4" d="M396.149,279.949l-58.213-85.384-6.6-71.751" transform="translate(53.698 -25.325)"/>
                  <path id="Path_4525" data-name="Path 4525" class="cls-4" d="M415.176,203.983l119.4-23.653,61.071-72.46,12.867-15.679" transform="translate(61.059 5.67)"/>
                  <path id="Path_4526" data-name="Path 4526" class="cls-4" d="M457.857,172.144l14.581,19.062L458.031,328.781l-11.922,20.29" transform="translate(67.202 28.128)"/>
                  <path id="Path_4527" data-name="Path 4527" class="cls-4" d="M383.313,273.85l45.859,6.75v50.167" transform="translate(57.41 43.4)"/>
                  <path id="Path_4528" data-name="Path 4528" class="cls-4" d="M432.192,576.561,372.15,573.8,368.3,611.5l-52.558,39.037-49.87,61.328L235.859,809.07l-12.606,34.238" transform="translate(26.723 86.436)"/>
                  <path id="Path_4529" data-name="Path 4529" class="cls-4" d="M325.295,381.383c-2.614-4.249-11.722-18.71-11.722-18.71l-36.2-16.324-52.975,129.59,5.1,38.111,63.98,70.28,40.091,18.68,28.781,32.9,62.773-2.524V610.824l16.375-134.376" transform="translate(33.802 52.174)"/>
                  <path id="Path_4530" data-name="Path 4530" class="cls-4" d="M627.063,500.948l-48.691,6.777-28.933-11.99L450.072,477.1l-60.4,5-6.612-13.346" transform="translate(57.704 70.613)"/>
                  <path id="Path_4531" data-name="Path 4531" class="cls-4" d="M371.344,480.881l-13.5,21.54-.494,85.938" transform="translate(53.831 72.44)"/>
                  <path id="Path_4532" data-name="Path 4532" class="cls-4" d="M357.779,515.574l11.086-14.521,18.581,12.322,13.721,24.168,28.55,11.166,24.153,35.018" transform="translate(53.896 75.478)"/>
                  <line id="Line_12209" data-name="Line 12209" class="cls-4" x1="14.978" y1="40.676" transform="translate(468.634 583.512)"/>
                  <path id="Path_4533" data-name="Path 4533" class="cls-4" d="M485.191,483.125l.06,35.152-17.54,23.657-21.142,6.578-12.919,25.168" transform="translate(65.325 72.778)"/>
                  <g id="Group_5470" data-name="Group 5470">
                    <g id="Group_5469" data-name="Group 5469" class="cls-5">
                      <path id="Path_4534" data-name="Path 4534" class="cls-4" d="M634.637,829.688l-24.192-6.644L522.221,699.565" transform="translate(78.667 105.382)"/>
                    </g>
                  </g>
                  <path id="Path_4535" data-name="Path 4535" class="cls-4" d="M724.316,288.1,663.908,589.888l19.585,52.929,61.053,97.451" transform="translate(100.011 43.4)"/>
                  <g id="Group_5472" data-name="Group 5472">
                    <g id="Mask_Group_166" data-name="Mask Group 166" class="cls-5">
                      <path id="Path_4536" data-name="Path 4536" class="cls-7" d="M420.007,310.417l-.658,4.706a5.345,5.345,0,0,1-5.619,4.578l-14.681-.871a5.324,5.324,0,0,1-4.895-6.5l.441-1.9a5.335,5.335,0,0,1,4.522-4.082l14.9-1.935a5.337,5.337,0,0,1,5.991,6.012" transform="translate(59.354 45.849)"/>
                      <path id="Path_4537" data-name="Path 4537" class="cls-7" d="M352.875,297.585l-.436,4.217a4.657,4.657,0,0,0,3.734,5.04l4.963.99a4.646,4.646,0,0,1,1.381.512l3.894,2.191a4.685,4.685,0,0,0,6.888-3.123l1.176-5.738a4.653,4.653,0,0,0-3.588-5.476l-12.358-2.683a4.676,4.676,0,0,0-5.653,4.071" transform="translate(53.088 44.199)"/>
                      <path id="Path_4539" data-name="Path 4539" class="cls-6" d="M397.973,361l-5.25-55,48.5,5.25"/>
                      <path id="Path_4538" data-name="Path 4538" class="cls-8" d="M136.079,639.377l22.24-342.672L295.748,355.97,304,333.811l83.443-19.053,16.661,11.3,86.1,4.737,87.2,57.118,5.268,39.816c-1,1.436,1.8,8.005,8.316,5.406l27.481-9.8,50.543,75.525-10.526,62.1L632.053,585.7l-49.311,24.724-34.585-10.213L525.229,619.84l-25.194-1.494s-7.72-.919-5.212,6.892l83.206,124.3s7.869,9.6,2.246,11.006L513.91,733.869l-46.848,26.668-106.8,24.178-144.976-56.26Z" transform="translate(20.499 44.696)"/>
                    </g>
                  </g>
                </g>
              </g>
              <text id="Map_not_to_scale" data-name="Map not to scale" class="cls-9" transform="translate(1461.645 2475.094)"><tspan x="0" y="0">Map not to scale</tspan></text>
            </g>
            <g id="Group_5491" data-name="Group 5491" transform="translate(41 1625)">
              <g class="cls-39" transform="matrix(1, 0, 0, 1, 222, 44)">
                <rect id="Rectangle_6676-2" data-name="Rectangle 6676" class="cls-10" width="120.441" height="28.549" rx="14" transform="translate(747.53 613.92)"/>
              </g>
              <text id="Koramangala" class="cls-11" transform="translate(983.209 677.1)"><tspan x="0" y="0">Koramangala</tspan></text>
            </g>
            <g id="Group_5492" data-name="Group 5492" transform="translate(62 115)">
              <g class="cls-38" transform="matrix(1, 0, 0, 1, 201, 1554)">
                <rect id="Rectangle_6730-3" data-name="Rectangle 6730" class="cls-10" width="134.441" height="28.549" rx="14" transform="translate(807.53 801.92)"/>
              </g>
              <text id="Electronic_City" data-name="Electronic City" class="cls-11" transform="translate(1025.377 2375.652)"><tspan x="0" y="0">Electronic City</tspan></text>
            </g>
            <g id="Group_5494" data-name="Group 5494" transform="translate(-15 1600)">
              <g class="cls-37" transform="matrix(1, 0, 0, 1, 278, 69)">
                <rect id="Rectangle_6675-2" data-name="Rectangle 6675" class="cls-10" width="110.441" height="28.549" rx="14" transform="translate(802.53 513.92)"/>
              </g>
              <text id="Indiranagar" class="cls-11" transform="translate(1095.181 602.445)"><tspan x="0" y="0">Indiranagar</tspan></text>
            </g>
            <g id="Group_5495" data-name="Group 5495" transform="translate(96 1606)">
              <g class="cls-36" transform="matrix(1, 0, 0, 1, 167, 63)">
                <rect id="Rectangle_6679-2" data-name="Rectangle 6679" class="cls-10" width="105.441" height="28.549" rx="14" transform="translate(572.56 216.92)"/>
              </g>
              <text id="Yelahanka" class="cls-11" transform="translate(752.167 299.912)"><tspan x="0" y="0">Yelahanka</tspan></text>
            </g>
            <g id="Group_5496" data-name="Group 5496" transform="translate(28 1565)">
              <g class="cls-35" transform="matrix(1, 0, 0, 1, 235, 104)">
                <rect id="Rectangle_6677-2" data-name="Rectangle 6677" class="cls-10" width="120.441" height="28.549" rx="14" transform="translate(493.53 418.92)"/>
              </g>
              <text id="Yeshwantpur" class="cls-11" transform="translate(741.516 542.791)"><tspan x="0" y="0">Yeshwantpur</tspan></text>
            </g>
            <g id="Group_5497" data-name="Group 5497" transform="translate(-5 147)">
              <circle id="Ellipse_1006" data-name="Ellipse 1006" class="cls-12" cx="7.5" cy="7.5" r="7.5" transform="translate(975 1887)"/>
              <g id="Ellipse_1007" data-name="Ellipse 1007" class="cls-13" transform="translate(969 1881)">
                <circle class="cls-31" cx="13.5" cy="13.5" r="13.5"/>
                <circle class="cls-1" cx="13.5" cy="13.5" r="12.5"/>
              </g>
              <path id="Path_4383" data-name="Path 4383" class="cls-13" d="M10097-18415.666,9952-18421" transform="translate(-9127 20309)"/>
              <g id="Group_5297" data-name="Group 5297" transform="translate(-137 -65)">
                <g class="cls-34" transform="matrix(1, 0, 0, 1, 405, 1587)">
                  <rect id="Rectangle_6678-2" data-name="Rectangle 6678" class="cls-10" width="134.441" height="28.549" rx="14" transform="translate(426.56 350.92)"/>
                </g>
                <text id="Hebbal_Flyover" data-name="Hebbal Flyover" class="cls-11" transform="translate(845.632 1958.006)"><tspan x="0" y="0">Hebbal Flyover</tspan></text>
              </g>
            </g>
            <g id="Group_5508" data-name="Group 5508" transform="translate(232 -209)">
              <g class="cls-33" transform="matrix(1, 0, 0, 1, 31, 1878)">
                <rect id="Rectangle_6730-4" data-name="Rectangle 6730" class="cls-10" width="107.441" height="28.549" rx="14" transform="translate(977.53 477.92)"/>
              </g>
              <text id="Whitefield" class="cls-11" transform="translate(1025.377 2375.652)"><tspan x="0" y="0">Whitefield</tspan></text>
            </g>
          </g>
          <text id="Mekhri_Circle" data-name="Mekhri Circle" class="cls-14" transform="translate(973.675 2112.195)"><tspan x="0" y="0">Mekhri Circle</tspan></text>
        </g>
        <circle id="Ellipse_1042" data-name="Ellipse 1042" class="cls-15" cx="3" cy="3" r="3" transform="translate(965 2104)"/>
        <g id="KTC_pin" transform="translate(0 -138)">
          <g id="Layer_2" data-name="Layer 2" transform="translate(1223.984 2103.506)">
            <g id="Group_5174" data-name="Group 5174" transform="translate(0 0)">
              <g id="Group_5173" data-name="Group 5173" transform="translate(59.972 0.019)">
                <path id="Path_4256" data-name="Path 4256" class="cls-16" d="M7595.777,340.543l-8.58,9.243,9.3,9.739v.221H7592l-8.083-8.553v8.553h-3.642V340.433h3.642V348.6l7.339-8.166h4.524Z" transform="translate(-7580.272 -340.433)"/>
                <path id="Path_4257" data-name="Path 4257" class="cls-16" d="M7616.26,348.726h3.229v13.6h-3.173l-.166-1.987c-.772,1.6-2.895,2.373-4.413,2.4-4.028.028-7.009-2.456-7.009-7.228,0-4.69,3.118-7.145,7.092-7.118a4.989,4.989,0,0,1,4.33,2.207Zm-8.165,6.786a3.9,3.9,0,0,0,4.026,4.138c5.3,0,5.3-8.249,0-8.249A3.872,3.872,0,0,0,7608.095,355.513Z" transform="translate(-7588.202 -343.015)"/>
                <path id="Path_4258" data-name="Path 4258" class="cls-16" d="M7633.895,348.713l.247,1.572a4.009,4.009,0,0,1,3.836-1.931,5.164,5.164,0,0,1,3.5,1.3l-1.519,2.924a3.368,3.368,0,0,0-2.43-.883,3.138,3.138,0,0,0-3.393,3.448v7.174h-3.366v-13.6Z" transform="translate(-7596.648 -343.002)"/>
                <path id="Path_4259" data-name="Path 4259" class="cls-16" d="M7651.831,340.474v19.285H7648.5V340.474Z" transform="translate(-7602.394 -340.446)"/>
                <path id="Path_4260" data-name="Path 4260" class="cls-16" d="M7660.382,356.687c.221,1.683,1.682,2.9,4.056,2.9a5.613,5.613,0,0,0,3.642-1.269l2.151,2.124a8.352,8.352,0,0,1-5.848,2.207c-4.69,0-7.478-2.9-7.478-7.255a6.807,6.807,0,0,1,7.229-7.118c4.553,0,7.394,2.815,6.87,8.415Zm7.395-2.787c-.223-1.766-1.6-2.648-3.532-2.648a3.663,3.663,0,0,0-3.807,2.648Z" transform="translate(-7605.121 -342.975)"/>
              </g>
              <path id="Path_4261" data-name="Path 4261" class="cls-16" d="M7586.446,380.53h-6.125v-3.311h15.89v3.311h-6.123v16h-3.642Z" transform="translate(-7520.316 -352.342)"/>
              <path id="Path_4262" data-name="Path 4262" class="cls-16" d="M7614.44,392.353a7.077,7.077,0,1,1-7.117-7.091A6.876,6.876,0,0,1,7614.44,392.353Zm-10.789,0c0,2.069,1.243,4,3.7,4s3.7-1.931,3.7-4a3.842,3.842,0,0,0-3.7-4.028A3.739,3.739,0,0,0,7603.651,392.353Z" transform="translate(-7526.79 -354.95)"/>
              <path id="Path_4263" data-name="Path 4263" class="cls-16" d="M7636.167,385.63l2.981,10.235,3.117-10.235h3.726l-4.746,13.684h-3.918l-1.407-4.027-1.215-4.552-1.211,4.552-1.408,4.027h-3.918L7623.4,385.63h3.753l3.116,10.235,2.952-10.235Z" transform="translate(-7534.283 -355.069)"/>
              <path id="Path_4264" data-name="Path 4264" class="cls-16" d="M7671.012,399.166v-7.118c0-2.069-1.13-3.642-3.283-3.642a3.579,3.579,0,0,0-3.476,3.807v6.953h-3.339V385.537h3.008l.221,1.848a6.134,6.134,0,0,1,4.47-2.041c3.2,0,5.765,2.4,5.765,6.676v7.146Z" transform="translate(-7546.448 -354.977)"/>
              <path id="Path_4265" data-name="Path 4265" class="cls-16" d="M7710.5,393.919a10.177,10.177,0,0,1-7.339,2.869c-7.173,0-10.208-4.938-10.235-9.96-.027-5.048,3.256-10.18,10.235-10.18a9.959,9.959,0,0,1,7.09,2.952l-2.427,2.345a6.632,6.632,0,0,0-4.663-1.821,6.331,6.331,0,0,0-6.648,6.7c.027,3.2,1.875,6.538,6.648,6.538a7.11,7.11,0,0,0,4.856-1.958Z" transform="translate(-7556.829 -352.157)"/>
              <path id="Path_4266" data-name="Path 4266" class="cls-16" d="M7723.753,393.473c.221,1.683,1.683,2.9,4.056,2.9a5.616,5.616,0,0,0,3.643-1.269l2.151,2.124a8.354,8.354,0,0,1-5.85,2.208c-4.689,0-7.476-2.9-7.476-7.256a6.806,6.806,0,0,1,7.228-7.118c4.553,0,7.395,2.815,6.87,8.415Zm7.394-2.787c-.221-1.766-1.6-2.648-3.53-2.648a3.665,3.665,0,0,0-3.808,2.648Z" transform="translate(-7565.697 -354.884)"/>
              <path id="Path_4267" data-name="Path 4267" class="cls-16" d="M7754.954,399.166v-7.118c0-2.069-1.132-3.642-3.284-3.642a3.579,3.579,0,0,0-3.477,3.807v6.953h-3.337V385.537h3.007l.22,1.848a6.138,6.138,0,0,1,4.471-2.041c3.2,0,5.766,2.4,5.766,6.676v7.146Z" transform="translate(-7573.667 -354.977)"/>
              <path id="Path_4268" data-name="Path 4268" class="cls-16" d="M7772.4,380v3.862h3.753v2.9h-3.779v5.877a1.689,1.689,0,0,0,1.765,1.931,3.835,3.835,0,0,0,1.628-.414l.938,2.869a7.509,7.509,0,0,1-2.786.58c-2.952.11-4.883-1.572-4.883-4.966v-5.877H7766.5v-2.9h2.538v-3.5Z" transform="translate(-7580.684 -353.242)"/>
              <path id="Path_4269" data-name="Path 4269" class="cls-16" d="M7787.615,385.5l.25,1.572a4.009,4.009,0,0,1,3.835-1.931,5.165,5.165,0,0,1,3.5,1.3l-1.518,2.925a3.364,3.364,0,0,0-2.43-.883,3.138,3.138,0,0,0-3.393,3.449V399.1H7784.5V385.5Z" transform="translate(-7586.521 -354.91)"/>
              <path id="Path_4270" data-name="Path 4270" class="cls-16" d="M7804.8,393.473c.221,1.683,1.683,2.9,4.056,2.9a5.614,5.614,0,0,0,3.643-1.269l2.151,2.124a8.355,8.355,0,0,1-5.849,2.208c-4.69,0-7.477-2.9-7.477-7.256a6.807,6.807,0,0,1,7.228-7.118c4.554,0,7.395,2.815,6.869,8.415Zm7.394-2.787c-.221-1.766-1.6-2.648-3.531-2.648a3.663,3.663,0,0,0-3.807,2.648Z" transform="translate(-7591.977 -354.884)"/>
              <ellipse id="Ellipse_937" data-name="Ellipse 937" class="cls-17" cx="5.027" cy="5.027" rx="5.027" ry="5.027" transform="translate(11.465 11.465)"/>
              <ellipse id="Ellipse_938" data-name="Ellipse 938" class="cls-17" cx="5.027" cy="5.027" rx="5.027" ry="5.027" transform="translate(0.184 11.465)"/>
              <ellipse id="Ellipse_939" data-name="Ellipse 939" class="cls-17" cx="5.027" cy="5.027" rx="5.027" ry="5.027" transform="translate(11.465 0.184)"/>
              <ellipse id="Ellipse_940" data-name="Ellipse 940" class="cls-17" cx="5.027" cy="5.027" rx="5.027" ry="5.027" transform="translate(0.184 0.184)"/>
              <path id="Path_4271" data-name="Path 4271" class="cls-18" d="M7508.216,379.074l2.563,5.142h5.294l2.564-5.142-5.212-5.281Z" transform="translate(-7496.935 -351.231)"/>
              <path id="Path_4272" data-name="Path 4272" class="cls-18" d="M7491.521,379.074l2.565,5.142h5.292l2.566-5.142-5.212-5.281Z" transform="translate(-7491.521 -351.231)"/>
              <path id="Path_4273" data-name="Path 4273" class="cls-18" d="M7508.216,395.768l2.563,5.142h5.294l2.564-5.142-5.212-5.281Z" transform="translate(-7496.935 -356.644)"/>
              <path id="Path_4274" data-name="Path 4274" class="cls-18" d="M7491.521,395.768l2.565,5.142h5.292l2.566-5.142-5.212-5.281Z" transform="translate(-7491.521 -356.644)"/>
              <path id="Path_4275" data-name="Path 4275" class="cls-19" d="M7524.908,384.216h10.424l-5.208-10.423Z" transform="translate(-7502.346 -351.231)"/>
              <path id="Path_4276" data-name="Path 4276" class="cls-19" d="M7541.6,384.216h10.424l-5.207-10.423Z" transform="translate(-7507.76 -351.231)"/>
              <path id="Path_4277" data-name="Path 4277" class="cls-19" d="M7524.908,400.91h10.424l-5.208-10.423Z" transform="translate(-7502.346 -356.644)"/>
              <path id="Path_4278" data-name="Path 4278" class="cls-19" d="M7541.6,400.91h10.424l-5.207-10.423Z" transform="translate(-7507.76 -356.644)"/>
              <rect id="Rectangle_6670" data-name="Rectangle 6670" class="cls-20" width="7.37" height="7.37" transform="translate(27.773 11.281) rotate(45)"/>
              <rect id="Rectangle_6671" data-name="Rectangle 6671" class="cls-20" width="7.37" height="7.37" transform="translate(39.054 11.281) rotate(45)"/>
              <rect id="Rectangle_6672" data-name="Rectangle 6672" class="cls-20" width="7.37" height="7.37" transform="translate(27.773 0) rotate(45)"/>
              <rect id="Rectangle_6673" data-name="Rectangle 6673" class="cls-20" width="7.37" height="7.37" transform="translate(39.054) rotate(45)"/>
            </g>
          </g>
          <path id="Path_4388" data-name="Path 4388" class="cls-21" d="M8255.643-18172.182H8404.12" transform="translate(-7198.12 20297)"/>
          <g id="Group_5141" data-name="Group 5141" transform="translate(1024.904 2106.791)">
            <path id="Path_4235" data-name="Path 4235" class="cls-12" d="M7222.2,585.51l-15.073-25.6a19.178,19.178,0,0,1,2.966-23.289h0a19.177,19.177,0,0,1,27.12,0h0a19.177,19.177,0,0,1,2.966,23.289l-15.073,25.6A1.686,1.686,0,0,1,7222.2,585.51Z" transform="translate(-7204.479 -531)"/>
            <ellipse id="Ellipse_928" data-name="Ellipse 928" class="cls-2" cx="8.97" cy="8.97" rx="8.97" ry="8.97" transform="translate(10.208 9.807)"/>
          </g>
        </g>
      </g>
      <g id="Basic_pins" transform="translate(0 1669)">
        <g id="Group_5536" data-name="Group 5536">
          <g id="Group_5534" data-name="Group 5534">
            <text id="HAL_Airport" data-name="HAL Airport" class="cls-14" transform="translate(1183.644 594.094)"><tspan x="0" y="0">HAL Airport</tspan></text>
            <g id="Group_5519" data-name="Group 5519" transform="translate(13 5.6)">
              <path id="Path_4246" data-name="Path 4246" class="cls-15" d="M7396.063,1082.14a3.343,3.343,0,0,1-6.607,0Z" transform="translate(-6248.581 -483.348)"/>
              <path id="Path_4247" data-name="Path 4247" class="cls-15" d="M7396.038,1007.842v23.79a3.948,3.948,0,0,1-.036.511h-6.609a3.781,3.781,0,0,1-.037-.511v-23.79a3.341,3.341,0,1,1,6.683,0Z" transform="translate(-6248.517 -434.695)"/>
              <path id="Path_4248" data-name="Path 4248" class="cls-15" d="M7361.948,1028.62v6.205h-14.184v-3.252Z" transform="translate(-6222.454 -449.81)"/>
              <path id="Path_4249" data-name="Path 4249" class="cls-15" d="M7425.039,1031.573v3.252h-14.184v-6.205Z" transform="translate(-6261.989 -449.81)"/>
              <path id="Path_4250" data-name="Path 4250" class="cls-15" d="M7393.093,1068.4v2.36h-14.407v-2.36l3.983-1.258,3.218-1.016v.034l0-.034,3.462,1.094Z" transform="translate(-6241.831 -473.316)"/>
            </g>
          </g>
          <g id="Group_5535" data-name="Group 5535">
            <text id="Bengaluru_International_Airport" data-name="Bengaluru
International Airport" class="cls-14" transform="translate(1172.731 127.082)"><tspan x="0" y="0">Bengaluru</tspan><tspan x="0" y="14">International Airport</tspan></text>
            <g id="Group_5520" data-name="Group 5520" transform="translate(1 -455.4)">
              <path id="Path_4246-2" data-name="Path 4246" class="cls-15" d="M7396.063,1082.14a3.343,3.343,0,0,1-6.607,0Z" transform="translate(-6248.581 -483.348)"/>
              <path id="Path_4247-2" data-name="Path 4247" class="cls-15" d="M7396.038,1007.842v23.79a3.948,3.948,0,0,1-.036.511h-6.609a3.781,3.781,0,0,1-.037-.511v-23.79a3.341,3.341,0,1,1,6.683,0Z" transform="translate(-6248.517 -434.695)"/>
              <path id="Path_4248-2" data-name="Path 4248" class="cls-15" d="M7361.948,1028.62v6.205h-14.184v-3.252Z" transform="translate(-6222.454 -449.81)"/>
              <path id="Path_4249-2" data-name="Path 4249" class="cls-15" d="M7425.039,1031.573v3.252h-14.184v-6.205Z" transform="translate(-6261.989 -449.81)"/>
              <path id="Path_4250-2" data-name="Path 4250" class="cls-15" d="M7393.093,1068.4v2.36h-14.407v-2.36l3.983-1.258,3.218-1.016v.034l0-.034,3.462,1.094Z" transform="translate(-6241.831 -473.316)"/>
            </g>
          </g>
        </g>
        <g id="Group_5533" data-name="Group 5533">
          <g id="Group_5529" data-name="Group 5529">
            <g id="Group_5501" data-name="Group 5501" transform="translate(998 463)">
              <g id="Group_5500" data-name="Group 5500" class="cls-22" transform="translate(0 0)">
                <path id="Path_4541" data-name="Path 4541" class="cls-15" d="M5.929,1.271h6.232a4.472,4.472,0,0,1,4.472,4.472v6.217A4.644,4.644,0,0,1,11.989,16.6H6.1a4.643,4.643,0,0,1-4.644-4.644V5.743A4.472,4.472,0,0,1,5.929,1.271" transform="translate(0.005 0.004)"/>
                <path id="Path_4542" data-name="Path 4542" class="cls-2" d="M5.274,3.6h7.532A2.69,2.69,0,0,1,15.5,6.287v.68a1.469,1.469,0,0,1-1.469,1.469H4.053A1.469,1.469,0,0,1,2.585,6.968v-.68A2.689,2.689,0,0,1,5.274,3.6" transform="translate(0.009 0.012)"/>
                <path id="Path_4543" data-name="Path 4543" class="cls-2" d="M12.525,9.832a1.305,1.305,0,1,1-1.3,1.306,1.306,1.306,0,0,1,1.3-1.306" transform="translate(0.039 0.034)"/>
                <path id="Path_4544" data-name="Path 4544" class="cls-2" d="M5.482,9.763a1.305,1.305,0,1,1-1.306,1.3,1.3,1.3,0,0,1,1.306-1.3" transform="translate(0.014 0.033)"/>
                <path id="Path_4545" data-name="Path 4545" class="cls-15" d="M.746,20.439H17.355a.746.746,0,0,1,0,1.491H.746a.746.746,0,1,1,0-1.491" transform="translate(0 0.07)"/>
                <path id="Path_4546" data-name="Path 4546" class="cls-15" d="M2.767,17.822H15.319a.746.746,0,1,1,0,1.491H2.767a.746.746,0,0,1,0-1.491" transform="translate(0.007 0.061)"/>
                <path id="Path_4547" data-name="Path 4547" class="cls-15" d="M5.991,0h0a.746.746,0,0,1,.746.746V1.818a.746.746,0,0,1-1.491,0V.746A.746.746,0,0,1,5.991,0" transform="translate(0.018 0)"/>
                <path id="Path_4548" data-name="Path 4548" class="cls-15" d="M12.053,0h0A.745.745,0,0,1,12.8.746V1.818a.745.745,0,1,1-1.49,0V.746A.745.745,0,0,1,12.053,0" transform="translate(0.039 0)"/>
              </g>
            </g>
            <text id="CANTONMENT_RAILWAY_STATION" data-name="CANTONMENT
RAILWAY STATION" class="cls-14" transform="translate(1021 472)"><tspan x="0" y="0">CANTONMENT</tspan><tspan x="0" y="14">RAILWAY STATION</tspan></text>
          </g>
          <g id="Group_5532" data-name="Group 5532">
            <g id="Group_5502" data-name="Group 5502" transform="translate(883 635)">
              <g id="Group_5500-2" data-name="Group 5500" class="cls-22" transform="translate(0 0)">
                <path id="Path_4541-2" data-name="Path 4541" class="cls-15" d="M5.929,1.271h6.232a4.472,4.472,0,0,1,4.472,4.472v6.217A4.644,4.644,0,0,1,11.989,16.6H6.1a4.643,4.643,0,0,1-4.644-4.644V5.743A4.472,4.472,0,0,1,5.929,1.271" transform="translate(0.005 0.004)"/>
                <path id="Path_4542-2" data-name="Path 4542" class="cls-2" d="M5.274,3.6h7.532A2.69,2.69,0,0,1,15.5,6.287v.68a1.469,1.469,0,0,1-1.469,1.469H4.053A1.469,1.469,0,0,1,2.585,6.968v-.68A2.689,2.689,0,0,1,5.274,3.6" transform="translate(0.009 0.012)"/>
                <path id="Path_4543-2" data-name="Path 4543" class="cls-2" d="M12.525,9.832a1.305,1.305,0,1,1-1.3,1.306,1.306,1.306,0,0,1,1.3-1.306" transform="translate(0.039 0.034)"/>
                <path id="Path_4544-2" data-name="Path 4544" class="cls-2" d="M5.482,9.763a1.305,1.305,0,1,1-1.306,1.3,1.3,1.3,0,0,1,1.306-1.3" transform="translate(0.014 0.033)"/>
                <path id="Path_4545-2" data-name="Path 4545" class="cls-15" d="M.746,20.439H17.355a.746.746,0,0,1,0,1.491H.746a.746.746,0,1,1,0-1.491" transform="translate(0 0.07)"/>
                <path id="Path_4546-2" data-name="Path 4546" class="cls-15" d="M2.767,17.822H15.319a.746.746,0,1,1,0,1.491H2.767a.746.746,0,0,1,0-1.491" transform="translate(0.007 0.061)"/>
                <path id="Path_4547-2" data-name="Path 4547" class="cls-15" d="M5.991,0h0a.746.746,0,0,1,.746.746V1.818a.746.746,0,0,1-1.491,0V.746A.746.746,0,0,1,5.991,0" transform="translate(0.018 0)"/>
                <path id="Path_4548-2" data-name="Path 4548" class="cls-15" d="M12.053,0h0A.745.745,0,0,1,12.8.746V1.818a.745.745,0,1,1-1.49,0V.746A.745.745,0,0,1,12.053,0" transform="translate(0.039 0)"/>
              </g>
            </g>
            <text id="BENGALURU_CITY_RAILWAY_STATION" data-name="BENGALURU CITY
RAILWAY STATION" class="cls-14" transform="translate(761 645)"><tspan x="0" y="0">BENGALURU CITY</tspan><tspan x="0" y="14">RAILWAY STATION</tspan></text>
          </g>
          <g id="Group_5530" data-name="Group 5530">
            <g id="Group_5507" data-name="Group 5507" transform="translate(1154 447)">
              <g id="Group_5500-3" data-name="Group 5500" class="cls-22" transform="translate(0 0)">
                <path id="Path_4541-3" data-name="Path 4541" class="cls-15" d="M5.929,1.271h6.232a4.472,4.472,0,0,1,4.472,4.472v6.217A4.644,4.644,0,0,1,11.989,16.6H6.1a4.643,4.643,0,0,1-4.644-4.644V5.743A4.472,4.472,0,0,1,5.929,1.271" transform="translate(0.005 0.004)"/>
                <path id="Path_4542-3" data-name="Path 4542" class="cls-2" d="M5.274,3.6h7.532A2.69,2.69,0,0,1,15.5,6.287v.68a1.469,1.469,0,0,1-1.469,1.469H4.053A1.469,1.469,0,0,1,2.585,6.968v-.68A2.689,2.689,0,0,1,5.274,3.6" transform="translate(0.009 0.012)"/>
                <path id="Path_4543-3" data-name="Path 4543" class="cls-2" d="M12.525,9.832a1.305,1.305,0,1,1-1.3,1.306,1.306,1.306,0,0,1,1.3-1.306" transform="translate(0.039 0.034)"/>
                <path id="Path_4544-3" data-name="Path 4544" class="cls-2" d="M5.482,9.763a1.305,1.305,0,1,1-1.306,1.3,1.3,1.3,0,0,1,1.306-1.3" transform="translate(0.014 0.033)"/>
                <path id="Path_4545-3" data-name="Path 4545" class="cls-15" d="M.746,20.439H17.355a.746.746,0,0,1,0,1.491H.746a.746.746,0,1,1,0-1.491" transform="translate(0 0.07)"/>
                <path id="Path_4546-3" data-name="Path 4546" class="cls-15" d="M2.767,17.822H15.319a.746.746,0,1,1,0,1.491H2.767a.746.746,0,0,1,0-1.491" transform="translate(0.007 0.061)"/>
                <path id="Path_4547-3" data-name="Path 4547" class="cls-15" d="M5.991,0h0a.746.746,0,0,1,.746.746V1.818a.746.746,0,0,1-1.491,0V.746A.746.746,0,0,1,5.991,0" transform="translate(0.018 0)"/>
                <path id="Path_4548-3" data-name="Path 4548" class="cls-15" d="M12.053,0h0A.745.745,0,0,1,12.8.746V1.818a.745.745,0,1,1-1.49,0V.746A.745.745,0,0,1,12.053,0" transform="translate(0.039 0)"/>
              </g>
            </g>
            <text id="K.R._PURAM_RAILWAY_STATION" data-name="K.R. PURAM
RAILWAY STATION" class="cls-14" transform="translate(1177 456)"><tspan x="0" y="0">K.R. PURAM</tspan><tspan x="0" y="14">RAILWAY STATION</tspan></text>
          </g>
        </g>
        <g id="Group_5531" data-name="Group 5531">
          <text id="KSRTC_BUS_TERMINAL" data-name="KSRTC
BUS TERMINAL" class="cls-14" transform="translate(906 685)"><tspan x="-42.916" y="0">KSRTC</tspan><tspan x="-96.312" y="14">BUS TERMINAL</tspan></text>
          <g id="Group_5505" data-name="Group 5505" transform="translate(911.827 678.203)">
            <rect id="Rectangle_7064" data-name="Rectangle 7064" class="cls-23" width="2.319" height="2.349" transform="translate(1.242 16.449)"/>
            <rect id="Rectangle_7065" data-name="Rectangle 7065" class="cls-23" width="2.32" height="2.349" transform="translate(13.031 16.449)"/>
            <g id="Group_5504" data-name="Group 5504" transform="translate(0 0)">
              <g id="Group_5503" data-name="Group 5503" class="cls-24">
                <path id="Path_4549" data-name="Path 4549" class="cls-15" d="M2.709,0H13.884a2.709,2.709,0,0,1,2.709,2.709V15.92H0V2.709A2.709,2.709,0,0,1,2.709,0" transform="translate(0 -0.001)"/>
                <path id="Path_4550" data-name="Path 4550" class="cls-2" d="M3.235,1.856h9.883a1.374,1.374,0,0,1,1.374,1.375V7.987H1.86V3.231A1.375,1.375,0,0,1,3.235,1.856" transform="translate(0.121 0.12)"/>
                <rect id="Rectangle_7066" data-name="Rectangle 7066" class="cls-15" width="1.351" height="9.35" transform="translate(7.621 1.201)"/>
                <path id="Path_4551" data-name="Path 4551" class="cls-2" d="M11.487,10.848a1.426,1.426,0,1,1-1.427,1.427,1.428,1.428,0,0,1,1.427-1.427" transform="translate(0.653 0.703)"/>
                <path id="Path_4552" data-name="Path 4552" class="cls-2" d="M4.23,10.778A1.426,1.426,0,1,1,2.8,12.2,1.427,1.427,0,0,1,4.23,10.778" transform="translate(0.182 0.699)"/>
                <rect id="Rectangle_7067" data-name="Rectangle 7067" class="cls-23" width="3.453" height="0.551" transform="translate(6.583 12.223)"/>
                <rect id="Rectangle_7068" data-name="Rectangle 7068" class="cls-23" width="3.453" height="0.551" transform="translate(6.583 13.424)"/>
              </g>
            </g>
          </g>
        </g>
      </g>
    </g>
    <g class="cls-32" transform="matrix(1, 0, 0, 1, 12486, 71)">
      <rect id="Rectangle_7071-2" data-name="Rectangle 7071" class="cls-2" width="1364" height="98" transform="translate(15 877)"/>
    </g>
    <g id="google_map_button" data-name="google map_button" transform="translate(13665 891)">
      <rect id="Rectangle_6742" data-name="Rectangle 6742" class="cls-25" width="167" height="38" rx="19"/>
      <text id="View_in_Google_Maps" data-name="View in Google Maps" class="cls-9" transform="translate(19.644 25.094)"><tspan x="0" y="0">View in Google Maps</tspan></text>
    </g>
    <g id="office_button" transform="translate(13607 989.6)">
      <text id="Offices" class="cls-26" transform="translate(36.843 20.4)"><tspan x="0" y="0">Offices</tspan></text>
      <g id="Group_5183" data-name="Group 5183" transform="translate(-6586.12 -2272)">
        <g id="Group_5181" data-name="Group 5181" transform="translate(6586.12 2284.253)">
          <path id="Path_4283" data-name="Path 4283" class="cls-27" d="M6611.868,2307.87v9.308a.941.941,0,0,1-.939.943h-23.867a.945.945,0,0,1-.943-.943v-9.308h10.761v1.636a2.114,2.114,0,1,0,4.228,0v-1.636Z" transform="translate(-6586.119 -2307.87)"/>
        </g>
        <g id="Group_5182" data-name="Group 5182" transform="translate(6586.12 2272)">
          <path id="Path_4284" data-name="Path 4284" class="cls-27" d="M6610.929,2278.319h-5.3a.628.628,0,0,1-.629-.628V2274.8a2.8,2.8,0,0,0-2.8-2.8h-6.279a2.8,2.8,0,0,0-2.8,2.8v2.893a.628.628,0,0,1-.629.628h-5.431a.943.943,0,0,0-.943.943v3.327h25.749v-3.331A.939.939,0,0,0,6610.929,2278.319Zm-15.416-3.521a.408.408,0,0,1,.406-.406h6.279a.408.408,0,0,1,.406.406v2.893a.628.628,0,0,1-.629.628h-5.833a.629.629,0,0,1-.629-.628Z" transform="translate(-6586.119 -2272)"/>
        </g>
      </g>
    </g>
    <g id="hospital_button" transform="translate(12899 990)">
      <text id="Hospitals" class="cls-26" transform="translate(37.08 20)"><tspan x="0" y="0">Hospitals</tspan></text>
      <g id="Group_5176" data-name="Group 5176">
        <ellipse id="Ellipse_927" data-name="Ellipse 927" class="cls-27" cx="14" cy="14" rx="14" ry="14"/>
        <g id="Group_5138" data-name="Group 5138" transform="translate(5.69 5.689)">
          <path id="Path_4232" data-name="Path 4232" class="cls-28" d="M7141.84,709.736l5.54,3.062v-3.062Z" transform="translate(-7141.7 -698.74)"/>
          <path id="Path_4233" data-name="Path 4233" class="cls-2" d="M7158.16,692.069v4.81a.366.366,0,0,1-.365.366h-4.77a.366.366,0,0,0-.366.366v4.81a.365.365,0,0,1-.365.366h-4.808a.366.366,0,0,1-.366-.366v-4.81a.365.365,0,0,0-.365-.366h-4.849a.366.366,0,0,1-.366-.366v-4.81a.366.366,0,0,1,.366-.366h4.849a.365.365,0,0,0,.365-.366V686.53a.366.366,0,0,1,.366-.366h4.808a.366.366,0,0,1,.365.366v4.807a.366.366,0,0,0,.366.366h4.77A.366.366,0,0,1,7158.16,692.069Z" transform="translate(-7141.54 -686.164)"/>
        </g>
      </g>
    </g>
    <g id="School_button" transform="translate(12656 989.127)">
      <text id="Schools" class="cls-26" transform="translate(38.453 20.873)"><tspan x="0" y="0">Schools</tspan></text>
      <g id="Group_5216" data-name="Group 5216" transform="translate(-524 -2454)">
        <g id="Group_5175" data-name="Group 5175" transform="translate(524 2454)">
          <path id="Path_4236" data-name="Path 4236" class="cls-27" d="M7181.7,258.166l-12.972,10.224-13.186-10.395,12.971-10.224Z" transform="translate(-7152.525 -247.771)"/>
          <path id="Path_4237" data-name="Path 4237" class="cls-27" d="M7177.993,262.465v9.458h-19.638V262.3l9.922,7.823Z" transform="translate(-7152.074 -245.449)"/>
          <rect id="Rectangle_6663" data-name="Rectangle 6663" class="cls-27" width="3.04" height="20.155" transform="translate(0 10.255)"/>
        </g>
      </g>
    </g>
    <g id="retail_button" transform="translate(13384 989)">
      <text id="Retail" class="cls-26" transform="translate(36.422 21.001)"><tspan x="0" y="0">Retail</tspan></text>
      <g id="Group_5177" data-name="Group 5177" transform="translate(-6337.899 -2274.38)">
        <path id="Path_4280" data-name="Path 4280" class="cls-27" d="M6358.18,2292.075h-11.454a.285.285,0,0,0-.269.381l.612,1.729a.273.273,0,0,0,.255.181l13.243,0a1.3,1.3,0,0,1,0,2.6l-14.671,0a.85.85,0,0,1-.8-.569l-7.121-20.284a1.3,1.3,0,0,1,2.456-.87l1.783,5.043a.293.293,0,0,0,.276.2h20.182a.342.342,0,0,1,.322.45l-3.567,10.258A1.315,1.315,0,0,1,6358.18,2292.075Z" transform="translate(0.001)"/>
        <circle id="Ellipse_941" data-name="Ellipse 941" class="cls-27" cx="1.959" cy="1.959" r="1.959" transform="translate(6342.884 2297.683)"/>
        <circle id="Ellipse_942" data-name="Ellipse 942" class="cls-27" cx="1.959" cy="1.959" r="1.959" transform="translate(6354.591 2297.683)"/>
      </g>
    </g>
    <g id="Component_256_10" data-name="Component 256 – 10" transform="translate(13153 990)">
      <text id="Hotels" class="cls-26" transform="translate(40 20)"><tspan x="0" y="0">Hotels</tspan></text>
      <g id="Group_5682" data-name="Group 5682" transform="translate(-13125 -1069)">
        <circle id="Ellipse_1168" data-name="Ellipse 1168" class="cls-12" cx="14" cy="14" r="14" transform="translate(13125 1069)"/>
        <g id="Group_5680" data-name="Group 5680" transform="translate(13129.177 1076.223)">
          <g id="Group_5679" data-name="Group 5679" class="cls-29">
            <path id="Path_4785" data-name="Path 4785" class="cls-2" d="M9.978,10.925c-2.574,0-5.149.007-7.723-.008-.359,0-.469.1-.444.451.029.425.011.853.006,1.28A.911.911,0,0,1,.9,13.654a.89.89,0,0,1-.9-.978Q0,6.829,0,.984A.909.909,0,0,1,.9,0a.928.928,0,0,1,.911,1.02c0,2.247.011,4.495-.007,6.742,0,.368.109.441.454.439q3.2-.024,6.4,0c.362,0,.449-.1.444-.454C9.086,6.44,9.095,5.131,9.1,3.823a1.83,1.83,0,0,1,1.99-1.993c1.735,0,3.471-.007,5.206,0a3.6,3.6,0,0,1,3.729,3.706c.01,2.361,0,4.722,0,7.083a.927.927,0,0,1-.672,1.01.905.905,0,0,1-1.137-.884,13.5,13.5,0,0,1,0-1.407c.024-.353-.109-.421-.433-.419-2.6.012-5.206.007-7.809.007" transform="translate(-0.001 -0.001)"/>
            <path id="Path_4786" data-name="Path 4786" class="cls-2" d="M34.646,21.347A2.73,2.73,0,1,1,31.9,24.063a2.727,2.727,0,0,1,2.745-2.716" transform="translate(-29.166 -19.517)"/>
          </g>
        </g>
      </g>
    </g>
    <g id="Group_5699" data-name="Group 5699" transform="translate(-970.644)">
      <g id="Group_5698" data-name="Group 5698">
        <g id="Group_5683" data-name="Group 5683" transform="translate(-138 102.018)">
          <circle id="Ellipse_1168-2" data-name="Ellipse 1168" class="cls-12" cx="7.5" cy="7.5" r="7.5" transform="translate(14263 489.982)"/>
          <g id="Group_5679-2" data-name="Group 5679" class="cls-30" transform="translate(14265.229 493.853)">
            <path id="Path_4785-2" data-name="Path 4785" class="cls-2" d="M5.323,5.828c-1.373,0-2.747,0-4.12,0-.191,0-.25.053-.237.241.016.227.006.455,0,.683a.486.486,0,0,1-.489.537A.475.475,0,0,1,0,6.762Q0,3.643,0,.525A.485.485,0,0,1,.482,0,.5.5,0,0,1,.968.545c0,1.2.006,2.4,0,3.6,0,.2.058.235.242.234q1.707-.013,3.414,0c.193,0,.24-.056.237-.242-.011-.7-.006-1.4,0-2.094A.976.976,0,0,1,5.915.977c.926,0,1.851,0,2.777,0a1.922,1.922,0,0,1,1.989,1.977c.006,1.259,0,2.519,0,3.778a.494.494,0,0,1-.359.539A.483.483,0,0,1,9.717,6.8a7.2,7.2,0,0,1,0-.751c.013-.188-.058-.224-.231-.224-1.388.006-2.777,0-4.165,0" transform="translate(-0.001 -0.001)"/>
            <path id="Path_4786-2" data-name="Path 4786" class="cls-2" d="M33.365,21.347A1.456,1.456,0,1,1,31.9,22.8a1.455,1.455,0,0,1,1.464-1.449" transform="translate(-30.442 -20.371)"/>
          </g>
        </g>
        <text id="Taj_West_End_Hotel" data-name="Taj West End Hotel" class="cls-14" transform="translate(14003.644 604.094)"><tspan x="0" y="0">Taj West End Hotel</tspan></text>
      </g>
      <g id="Group_5697" data-name="Group 5697">
        <g id="Group_5684" data-name="Group 5684" transform="translate(-124 85.018)">
          <circle id="Ellipse_1168-3" data-name="Ellipse 1168" class="cls-12" cx="7.5" cy="7.5" r="7.5" transform="translate(14263 489.982)"/>
          <g id="Group_5679-3" data-name="Group 5679" class="cls-30" transform="translate(14265.229 493.853)">
            <path id="Path_4785-3" data-name="Path 4785" class="cls-2" d="M5.323,5.828c-1.373,0-2.747,0-4.12,0-.191,0-.25.053-.237.241.016.227.006.455,0,.683a.486.486,0,0,1-.489.537A.475.475,0,0,1,0,6.762Q0,3.643,0,.525A.485.485,0,0,1,.482,0,.5.5,0,0,1,.968.545c0,1.2.006,2.4,0,3.6,0,.2.058.235.242.234q1.707-.013,3.414,0c.193,0,.24-.056.237-.242-.011-.7-.006-1.4,0-2.094A.976.976,0,0,1,5.915.977c.926,0,1.851,0,2.777,0a1.922,1.922,0,0,1,1.989,1.977c.006,1.259,0,2.519,0,3.778a.494.494,0,0,1-.359.539A.483.483,0,0,1,9.717,6.8a7.2,7.2,0,0,1,0-.751c.013-.188-.058-.224-.231-.224-1.388.006-2.777,0-4.165,0" transform="translate(-0.001 -0.001)"/>
            <path id="Path_4786-3" data-name="Path 4786" class="cls-2" d="M33.365,21.347A1.456,1.456,0,1,1,31.9,22.8a1.455,1.455,0,0,1,1.464-1.449" transform="translate(-30.442 -20.371)"/>
          </g>
        </g>
        <text id="Lalit_Ashok" data-name="Lalit Ashok" class="cls-14" transform="translate(14156.644 587.094)"><tspan x="0" y="0">Lalit Ashok</tspan></text>
      </g>
      <g id="Group_5696" data-name="Group 5696">
        <g id="Group_5685" data-name="Group 5685" transform="translate(-94 64.018)">
          <circle id="Ellipse_1168-4" data-name="Ellipse 1168" class="cls-12" cx="7.5" cy="7.5" r="7.5" transform="translate(14263 489.982)"/>
          <g id="Group_5679-4" data-name="Group 5679" class="cls-30" transform="translate(14265.229 493.853)">
            <path id="Path_4785-4" data-name="Path 4785" class="cls-2" d="M5.323,5.828c-1.373,0-2.747,0-4.12,0-.191,0-.25.053-.237.241.016.227.006.455,0,.683a.486.486,0,0,1-.489.537A.475.475,0,0,1,0,6.762Q0,3.643,0,.525A.485.485,0,0,1,.482,0,.5.5,0,0,1,.968.545c0,1.2.006,2.4,0,3.6,0,.2.058.235.242.234q1.707-.013,3.414,0c.193,0,.24-.056.237-.242-.011-.7-.006-1.4,0-2.094A.976.976,0,0,1,5.915.977c.926,0,1.851,0,2.777,0a1.922,1.922,0,0,1,1.989,1.977c.006,1.259,0,2.519,0,3.778a.494.494,0,0,1-.359.539A.483.483,0,0,1,9.717,6.8a7.2,7.2,0,0,1,0-.751c.013-.188-.058-.224-.231-.224-1.388.006-2.777,0-4.165,0" transform="translate(-0.001 -0.001)"/>
            <path id="Path_4786-4" data-name="Path 4786" class="cls-2" d="M33.365,21.347A1.456,1.456,0,1,1,31.9,22.8a1.455,1.455,0,0,1,1.464-1.449" transform="translate(-30.442 -20.371)"/>
          </g>
        </g>
        <text id="Le_Méridien" data-name="Le Méridien" class="cls-14" transform="translate(14091.644 566.094)"><tspan x="0" y="0">Le Méridien</tspan></text>
      </g>
      <g id="Group_5695" data-name="Group 5695">
        <g id="Group_5686" data-name="Group 5686" transform="translate(-98 46.018)">
          <circle id="Ellipse_1168-5" data-name="Ellipse 1168" class="cls-12" cx="7.5" cy="7.5" r="7.5" transform="translate(14263 489.982)"/>
          <g id="Group_5679-5" data-name="Group 5679" class="cls-30" transform="translate(14265.229 493.853)">
            <path id="Path_4785-5" data-name="Path 4785" class="cls-2" d="M5.323,5.828c-1.373,0-2.747,0-4.12,0-.191,0-.25.053-.237.241.016.227.006.455,0,.683a.486.486,0,0,1-.489.537A.475.475,0,0,1,0,6.762Q0,3.643,0,.525A.485.485,0,0,1,.482,0,.5.5,0,0,1,.968.545c0,1.2.006,2.4,0,3.6,0,.2.058.235.242.234q1.707-.013,3.414,0c.193,0,.24-.056.237-.242-.011-.7-.006-1.4,0-2.094A.976.976,0,0,1,5.915.977c.926,0,1.851,0,2.777,0a1.922,1.922,0,0,1,1.989,1.977c.006,1.259,0,2.519,0,3.778a.494.494,0,0,1-.359.539A.483.483,0,0,1,9.717,6.8a7.2,7.2,0,0,1,0-.751c.013-.188-.058-.224-.231-.224-1.388.006-2.777,0-4.165,0" transform="translate(-0.001 -0.001)"/>
            <path id="Path_4786-5" data-name="Path 4786" class="cls-2" d="M33.365,21.347A1.456,1.456,0,1,1,31.9,22.8a1.455,1.455,0,0,1,1.464-1.449" transform="translate(-30.442 -20.371)"/>
          </g>
        </g>
        <text id="Shangrila_Hotel" data-name="Shangrila Hotel" class="cls-14" transform="translate(14067.644 548.094)"><tspan x="0" y="0">Shangrila Hotel</tspan></text>
      </g>
      <g id="Group_5694" data-name="Group 5694">
        <g id="Group_5687" data-name="Group 5687" transform="translate(-99 29.018)">
          <circle id="Ellipse_1168-6" data-name="Ellipse 1168" class="cls-12" cx="7.5" cy="7.5" r="7.5" transform="translate(14263 489.982)"/>
          <g id="Group_5679-6" data-name="Group 5679" class="cls-30" transform="translate(14265.229 493.853)">
            <path id="Path_4785-6" data-name="Path 4785" class="cls-2" d="M5.323,5.828c-1.373,0-2.747,0-4.12,0-.191,0-.25.053-.237.241.016.227.006.455,0,.683a.486.486,0,0,1-.489.537A.475.475,0,0,1,0,6.762Q0,3.643,0,.525A.485.485,0,0,1,.482,0,.5.5,0,0,1,.968.545c0,1.2.006,2.4,0,3.6,0,.2.058.235.242.234q1.707-.013,3.414,0c.193,0,.24-.056.237-.242-.011-.7-.006-1.4,0-2.094A.976.976,0,0,1,5.915.977c.926,0,1.851,0,2.777,0a1.922,1.922,0,0,1,1.989,1.977c.006,1.259,0,2.519,0,3.778a.494.494,0,0,1-.359.539A.483.483,0,0,1,9.717,6.8a7.2,7.2,0,0,1,0-.751c.013-.188-.058-.224-.231-.224-1.388.006-2.777,0-4.165,0" transform="translate(-0.001 -0.001)"/>
            <path id="Path_4786-6" data-name="Path 4786" class="cls-2" d="M33.365,21.347A1.456,1.456,0,1,1,31.9,22.8a1.455,1.455,0,0,1,1.464-1.449" transform="translate(-30.442 -20.371)"/>
          </g>
        </g>
        <text id="ITC_Windsor" data-name="ITC Windsor" class="cls-14" transform="translate(14084.644 531.094)"><tspan x="0" y="0">ITC Windsor</tspan></text>
      </g>
      <g id="Group_5693" data-name="Group 5693">
        <g id="Group_5688" data-name="Group 5688" transform="translate(-109 -25.982)">
          <circle id="Ellipse_1168-7" data-name="Ellipse 1168" class="cls-12" cx="7.5" cy="7.5" r="7.5" transform="translate(14263 489.982)"/>
          <g id="Group_5679-7" data-name="Group 5679" class="cls-30" transform="translate(14265.229 493.853)">
            <path id="Path_4785-7" data-name="Path 4785" class="cls-2" d="M5.323,5.828c-1.373,0-2.747,0-4.12,0-.191,0-.25.053-.237.241.016.227.006.455,0,.683a.486.486,0,0,1-.489.537A.475.475,0,0,1,0,6.762Q0,3.643,0,.525A.485.485,0,0,1,.482,0,.5.5,0,0,1,.968.545c0,1.2.006,2.4,0,3.6,0,.2.058.235.242.234q1.707-.013,3.414,0c.193,0,.24-.056.237-.242-.011-.7-.006-1.4,0-2.094A.976.976,0,0,1,5.915.977c.926,0,1.851,0,2.777,0a1.922,1.922,0,0,1,1.989,1.977c.006,1.259,0,2.519,0,3.778a.494.494,0,0,1-.359.539A.483.483,0,0,1,9.717,6.8a7.2,7.2,0,0,1,0-.751c.013-.188-.058-.224-.231-.224-1.388.006-2.777,0-4.165,0" transform="translate(-0.001 -0.001)"/>
            <path id="Path_4786-7" data-name="Path 4786" class="cls-2" d="M33.365,21.347A1.456,1.456,0,1,1,31.9,22.8a1.455,1.455,0,0,1,1.464-1.449" transform="translate(-30.442 -20.371)"/>
          </g>
        </g>
        <text id="Four_Seasons" data-name="Four Seasons" class="cls-14" transform="translate(14065.644 476.094)"><tspan x="0" y="0">Four Seasons</tspan></text>
      </g>
      <g id="Group_5692" data-name="Group 5692">
        <g id="Group_5689" data-name="Group 5689" transform="translate(-165 -43.982)">
          <circle id="Ellipse_1168-8" data-name="Ellipse 1168" class="cls-12" cx="7.5" cy="7.5" r="7.5" transform="translate(14263 489.982)"/>
          <g id="Group_5679-8" data-name="Group 5679" class="cls-30" transform="translate(14265.229 493.853)">
            <path id="Path_4785-8" data-name="Path 4785" class="cls-2" d="M5.323,5.828c-1.373,0-2.747,0-4.12,0-.191,0-.25.053-.237.241.016.227.006.455,0,.683a.486.486,0,0,1-.489.537A.475.475,0,0,1,0,6.762Q0,3.643,0,.525A.485.485,0,0,1,.482,0,.5.5,0,0,1,.968.545c0,1.2.006,2.4,0,3.6,0,.2.058.235.242.234q1.707-.013,3.414,0c.193,0,.24-.056.237-.242-.011-.7-.006-1.4,0-2.094A.976.976,0,0,1,5.915.977c.926,0,1.851,0,2.777,0a1.922,1.922,0,0,1,1.989,1.977c.006,1.259,0,2.519,0,3.778a.494.494,0,0,1-.359.539A.483.483,0,0,1,9.717,6.8a7.2,7.2,0,0,1,0-.751c.013-.188-.058-.224-.231-.224-1.388.006-2.777,0-4.165,0" transform="translate(-0.001 -0.001)"/>
            <path id="Path_4786-8" data-name="Path 4786" class="cls-2" d="M33.365,21.347A1.456,1.456,0,1,1,31.9,22.8a1.455,1.455,0,0,1,1.464-1.449" transform="translate(-30.442 -20.371)"/>
          </g>
        </g>
        <text id="Gokulam_Grand_Hotel" data-name="Gokulam 
Grand Hotel" class="cls-14" transform="translate(14021.644 445.094)"><tspan x="0" y="0">Gokulam </tspan><tspan x="0" y="14">Grand Hotel</tspan></text>
      </g>
      <g id="Group_5691" data-name="Group 5691">
        <g id="Group_5690" data-name="Group 5690" transform="translate(-144 -72.982)">
          <circle id="Ellipse_1168-9" data-name="Ellipse 1168" class="cls-12" cx="7.5" cy="7.5" r="7.5" transform="translate(14263 489.982)"/>
          <g id="Group_5679-9" data-name="Group 5679" class="cls-30" transform="translate(14265.229 493.853)">
            <path id="Path_4785-9" data-name="Path 4785" class="cls-2" d="M5.323,5.828c-1.373,0-2.747,0-4.12,0-.191,0-.25.053-.237.241.016.227.006.455,0,.683a.486.486,0,0,1-.489.537A.475.475,0,0,1,0,6.762Q0,3.643,0,.525A.485.485,0,0,1,.482,0,.5.5,0,0,1,.968.545c0,1.2.006,2.4,0,3.6,0,.2.058.235.242.234q1.707-.013,3.414,0c.193,0,.24-.056.237-.242-.011-.7-.006-1.4,0-2.094A.976.976,0,0,1,5.915.977c.926,0,1.851,0,2.777,0a1.922,1.922,0,0,1,1.989,1.977c.006,1.259,0,2.519,0,3.778a.494.494,0,0,1-.359.539A.483.483,0,0,1,9.717,6.8a7.2,7.2,0,0,1,0-.751c.013-.188-.058-.224-.231-.224-1.388.006-2.777,0-4.165,0" transform="translate(-0.001 -0.001)"/>
            <path id="Path_4786-9" data-name="Path 4786" class="cls-2" d="M33.365,21.347A1.456,1.456,0,1,1,31.9,22.8a1.455,1.455,0,0,1,1.464-1.449" transform="translate(-30.442 -20.371)"/>
          </g>
        </g>
        <text id="Oberoi_Hotel_Proposed_" data-name="Oberoi Hotel 
(Proposed)" class="cls-14" transform="translate(14046.644 414.094)"><tspan x="0" y="0">Oberoi Hotel </tspan><tspan x="0" y="14">(Proposed)</tspan></text>
      </g>
    </g>
  </g>
</svg>
