<svg xmlns="http://www.w3.org/2000/svg" width="49.766" height="62.93" viewBox="0 0 49.766 62.93">
  <defs>
    <style>
      .cls-1 {
        fill: #0e7bd2;
      }

      .cls-2 {
        fill: #fc932f;
      }
    </style>
  </defs>
  <g id="Group_5253" data-name="Group 5253" transform="translate(-4711.744 -8508.589)">
    <path id="Path_4319" data-name="Path 4319" class="cls-1" d="M4756.7,8546.986l.209-8.109,4.6-6.457-4.527-6.773-.175-8.109-7.792-2.562-4.666-6.388-7.617,2.386-8-2.386-4.843,6.318-7.615,2.738-.177,8.1-4.351,6.706,4.492,6.354.21,8,6.564,2.282-7.757,16.671,9.335-3.4,3.72,9.16,8.319-17.691-.141-.35.177-.066.139.066-.139.35,8.316,17.691,3.721-9.16,9.335,3.4-7.722-16.6Zm-20.076.877a16.444,16.444,0,1,1,16.426-16.461A16.462,16.462,0,0,1,4736.627,8547.863Z" transform="translate(0.001 0.001)"/>
    <g id="Group_5252" data-name="Group 5252" transform="translate(4722.378 8517.188)">
      <path id="Path_4320" data-name="Path 4320" class="cls-2" d="M4729.024,8511.039a14.213,14.213,0,1,0,14.213,14.214A14.254,14.254,0,0,0,4729.024,8511.039Zm6.071,23.407-6.143-4.036-5.86,3.932,2.21-6.739-6-4.6h7.511l2.247-6.916,2.422,6.916h7.264l-5.757,4.492Z" transform="translate(-4714.773 -8511.039)"/>
    </g>
  </g>
</svg>
