<svg xmlns="http://www.w3.org/2000/svg" width="50.201" height="41.66" viewBox="0 0 50.201 41.66">
  <defs>
    <style>
      .cls-1 {
        fill: #ef4e30;
      }

      .cls-2 {
        fill: #d2200c;
      }

      .cls-3 {
        fill: #edf0f5;
      }
    </style>
  </defs>
  <g id="Group_5251" data-name="Group 5251" transform="translate(-1077 -2984.006)">
    <g id="Group_5246" data-name="Group 5246" transform="translate(1077 2994.114)">
      <path id="Path_4318" data-name="Path 4318" class="cls-1" d="M0,0H50.2V7.259H0Z"/>
    </g>
    <g id="Group_5247" data-name="Group 5247" transform="translate(1077 3002.919)">
      <path id="Rectangle_6697" data-name="Rectangle 6697" class="cls-1" d="M0,0H50.2a0,0,0,0,1,0,0V19.772a2.974,2.974,0,0,1-2.974,2.974H2.974A2.974,2.974,0,0,1,0,19.772V0A0,0,0,0,1,0,0Z"/>
    </g>
    <g id="Group_5248" data-name="Group 5248" transform="translate(1091.838 2984.006)">
      <path id="Path_4317" data-name="Path 4317" class="cls-1" d="M4632.586,8521.1h-4.073v-10.585a4.771,4.771,0,0,1,4.765-4.766h10.7a4.77,4.77,0,0,1,4.766,4.766v10.148h-4.074v-10.148a.693.693,0,0,0-.691-.692h-10.7a.693.693,0,0,0-.692.692Z" transform="translate(-4628.513 -8505.75)"/>
    </g>
    <g id="Group_5250" data-name="Group 5250" transform="translate(1097.031 3006.629)">
      <path id="Path_1162" data-name="Path 1162" class="cls-2" d="M5131.488,1379.488a.727.727,0,0,1-.238-.2c-1.744-2.081-3.5-4.152-5.354-6.137a.549.549,0,0,1-.159-.407c.006-.4,0-.806,0-1.209,0-.317.13-.441.453-.446.614-.008,1.229.028,1.842-.032a3.805,3.805,0,0,0,1.964-.66,2.091,2.091,0,0,0,.738-1.007c.045-.127.014-.149-.11-.149q-2.216.005-4.43,0a.66.66,0,0,1-.224-.022.31.31,0,0,1-.229-.3c0-.388-.007-.775,0-1.163a.321.321,0,0,1,.326-.329c.054,0,.11,0,.165,0h4.216c.049,0,.118.026.142-.017s-.031-.1-.059-.144a2.028,2.028,0,0,0-1.033-.8,5.213,5.213,0,0,0-1.9-.282c-.468,0-.937,0-1.406,0-.33,0-.456-.127-.456-.457,0-.429,0-.856,0-1.284,0-.3.124-.425.42-.425h9.007c.289,0,.414.122.417.414q.008.5,0,1c0,.291-.125.409-.418.41-.776,0-1.552,0-2.327,0-.044,0-.1-.023-.126.02s.028.08.052.115a3.657,3.657,0,0,1,.571,1.3.161.161,0,0,0,.19.151c.549-.007,1.1,0,1.647,0,.314,0,.43.115.431.427,0,.333,0,.665,0,1a.349.349,0,0,1-.4.4c-.549,0-1.1,0-1.647,0-.108,0-.155.022-.176.141a4.043,4.043,0,0,1-1.372,2.418,5.138,5.138,0,0,1-2.307,1.1c-.235.05-.473.088-.713.132.01.066.065.1.1.142,1.7,1.841,3.289,3.773,4.879,5.707.19.232.148.421-.126.609Z" transform="translate(-5124.583 -1364.012)"/>
      <path id="Path_1163" data-name="Path 1163" class="cls-3" d="M5128.71,1379.488a.727.727,0,0,1-.238-.2c-1.743-2.081-3.5-4.152-5.354-6.137a.549.549,0,0,1-.159-.407c.007-.4,0-.806,0-1.209,0-.317.131-.441.454-.446.614-.008,1.229.028,1.842-.032a3.805,3.805,0,0,0,1.964-.66,2.094,2.094,0,0,0,.738-1.007c.045-.127.014-.149-.11-.149q-2.214.005-4.428,0a.664.664,0,0,1-.225-.022.309.309,0,0,1-.229-.3c0-.388-.008-.775,0-1.163a.32.32,0,0,1,.324-.329c.056,0,.11,0,.167,0h4.215c.048,0,.116.026.14-.017s-.03-.1-.058-.144a2.02,2.02,0,0,0-1.033-.8,5.208,5.208,0,0,0-1.9-.282c-.468,0-.937,0-1.405,0-.329,0-.456-.127-.457-.457,0-.429,0-.856,0-1.284,0-.3.123-.425.422-.425h9c.289,0,.415.122.418.414q.009.5,0,1c0,.291-.125.409-.418.41-.776,0-1.552,0-2.328,0-.043,0-.1-.023-.126.02s.027.08.052.115a3.623,3.623,0,0,1,.571,1.3.162.162,0,0,0,.19.151c.55-.007,1.1,0,1.648,0,.313,0,.429.115.432.427,0,.333,0,.665,0,1a.349.349,0,0,1-.4.4c-.55,0-1.1,0-1.648,0-.107,0-.155.022-.176.141a4.041,4.041,0,0,1-1.372,2.418,5.136,5.136,0,0,1-2.306,1.1c-.236.05-.474.088-.712.132.01.066.064.1.1.142,1.7,1.841,3.29,3.773,4.88,5.707.19.232.149.421-.126.609Z" transform="translate(-5122.959 -1364.012)"/>
    </g>
  </g>
</svg>
