<svg xmlns="http://www.w3.org/2000/svg" width="62.984" height="47.809" viewBox="0 0 62.984 47.809">
  <defs>
    <style>
      .cls-1 {
        fill: #0e7bd2;
      }

      .cls-2 {
        fill: #004fb5;
      }

      .cls-3 {
        fill: #fff;
      }
    </style>
  </defs>
  <g id="Group_5232" data-name="Group 5232" transform="translate(-613.516 -3222.573)">
    <g id="Group_3983" data-name="Group 3983" transform="translate(613.516 3222.573)">
      <path id="Path_346" data-name="Path 346" class="cls-1" d="M0,0H11.838V47.8H0Z" transform="translate(25.042)"/>
      <path id="Path_340" data-name="Path 340" class="cls-2" d="M3200.888,4979.853V4992a19.225,19.225,0,0,0-5.391-.764c-.264,0-.528,0-.806.014a19.431,19.431,0,0,0-5.641,1.084v-12.268a29.112,29.112,0,0,1,5.641-.667c.278,0,.542-.014.806-.014A30.013,30.013,0,0,1,3200.888,4979.853Z" transform="translate(-3164.009 -4959.107)"/>
      <path id="Path_341" data-name="Path 341" class="cls-3" d="M3194.33,5012.595h-1.248v-2.9h1.248Zm0-8.514h-1.248v-5.611h1.248Zm0-11.869h-1.248V4986.6h1.248Zm0-10.58h-1.248v-5.611h1.248Zm0-11.224h-1.248v-5.613h1.248Z" transform="translate(-3162.439 -4964.786)"/>
      <path id="Path_342" data-name="Path 342" class="cls-1" d="M3234.011,5007.75h-11.848a19.67,19.67,0,0,0-19.643-19.643c-.268,0-.537.005-.8.018a19.667,19.667,0,0,0-18.839,19.625h-11.848a31.518,31.518,0,0,1,30.687-31.479c.268-.007.536-.013.8-.013a31.5,31.5,0,0,1,31.492,31.492Z" transform="translate(-3171.027 -4960.322)"/>
      <path id="Path_343" data-name="Path 343" class="cls-3" d="M3227.9,5006.183h-1.249a25.066,25.066,0,0,0-.59-5.43l1.217-.271A26.344,26.344,0,0,1,3227.9,5006.183Zm-51.861,0h-1.249c0-.745.032-1.481.092-2.207l1.242.1Q3176.034,5005.116,3176.035,5006.183Zm1.133-7.461-1.188-.375a25.432,25.432,0,0,1,2.332-5.245l1.075.633A24.389,24.389,0,0,0,3177.168,4998.721Zm47.113-3.131a24.078,24.078,0,0,0-2.89-4.631l.976-.777a25.418,25.418,0,0,1,3.04,4.871Zm-41.617-6.22-.906-.855a26.007,26.007,0,0,1,4.374-3.713l.7,1.033A24.843,24.843,0,0,0,3182.663,4989.371Zm34.883-2.287a25.052,25.052,0,0,0-4.6-2.943l.553-1.118a26.288,26.288,0,0,1,4.83,3.089Zm-25.883-3.8-.459-1.162a27.342,27.342,0,0,1,5.521-1.535l.207,1.232A25.735,25.735,0,0,0,3191.664,4983.285Zm16.148-1.035a26.4,26.4,0,0,0-5.418-.773l.049-1.246a27.616,27.616,0,0,1,5.673.811Z" transform="translate(-3169.563 -4958.777)"/>
    </g>
  </g>
</svg>
