<svg xmlns="http://www.w3.org/2000/svg" width="83.389" height="48.207" viewBox="0 0 83.389 48.207">
  <defs>
    <style>
      .cls-1 {
        fill: #f6921e;
      }

      .cls-2 {
        fill: #e94e30;
      }

      .cls-3 {
        fill: #00ac51;
      }

      .cls-4 {
        fill: #f37523;
      }

      .cls-5 {
        fill: #ef4e30;
      }

      .cls-6 {
        fill: #009852;
      }

      .cls-7 {
        fill: #0081c8;
      }
    </style>
  </defs>
  <g id="Group_5259" data-name="Group 5259" transform="translate(-4304.06 -8648.05)">
    <g id="Group_5258" data-name="Group 5258" transform="translate(4311.301 8648.05)">
      <path id="Path_4329" data-name="Path 4329" class="cls-1" d="M4342.963,8660.638v22.878c-.306-.024-.631-.045-.979-.045a9,9,0,0,0-3.544.651,11.96,11.96,0,0,0-2.5,1.544,6.76,6.76,0,0,1-4.392,1.718l-1.023-.042a7.046,7.046,0,0,1-3.651-1.676,9.059,9.059,0,0,0-6.046-2.2h-.021a13.674,13.674,0,0,0-1.392.087,9.272,9.272,0,0,0-4.631,2.108c-.195.152-.413.307-.61.435a6.143,6.143,0,0,1-3.934,1.283,5.8,5.8,0,0,1-2.849-.631v-16.068a1.893,1.893,0,0,1,1.891-1.892h10.133v-18.265a2.48,2.48,0,0,1,2.479-2.48h10.5a2.421,2.421,0,0,1,1.935.937l8.089,10.088A2.587,2.587,0,0,1,4342.963,8660.638Z" transform="translate(-4307.39 -8648.048)"/>
      <g id="Rectangle_6376" data-name="Rectangle 6376" transform="translate(44.614 25.169)">
        <rect id="Rectangle_6699" data-name="Rectangle 6699" class="cls-2" width="1.754" height="11.661"/>
      </g>
      <g id="Rectangle_6376-2" data-name="Rectangle 6376" transform="translate(38.248 25.159)">
        <path id="Path_4330" data-name="Path 4330" class="cls-2" d="M4326.741,8659.619V8671.3h-.479a10.289,10.289,0,0,0-1.283-.718v-10.959Z" transform="translate(-4324.979 -8659.619)"/>
      </g>
      <path id="Path_4331" data-name="Path 4331" class="cls-3" d="M4339,8664.64a12.038,12.038,0,0,0-2.5,1.541c-.218.154-.413.309-.631.458a6.133,6.133,0,0,1-3.914,1.262,6.659,6.659,0,0,1-4.522-1.72c-.349-.257-.718-.519-1.11-.779a10.129,10.129,0,0,0-1.282-.719.165.165,0,0,1-.108-.043Z" transform="translate(-4286.791 -8628.566)"/>
      <path id="Path_4332" data-name="Path 4332" class="cls-4" d="M4315.75,8657.819v14.263a9.286,9.286,0,0,0-4.631,2.107c-.2.154-.413.308-.609.437Z" transform="translate(-4303.726 -8636.574)"/>
      <path id="Path_4333" data-name="Path 4333" class="cls-5" d="M4348.637,8654.28l.007,28.561-.072.03a8.024,8.024,0,0,1-1.348.109,6.724,6.724,0,0,1-4.544-1.719,11.929,11.929,0,0,0-2.5-1.543,9.969,9.969,0,0,0-7.089,0,11.938,11.938,0,0,0-2.5,1.543c-.218.152-.413.307-.631.457v-19.766a2.472,2.472,0,0,1,.544-1.543l6.154-7.674a2.385,2.385,0,0,1,1.936-.937h7.567A2.477,2.477,0,0,1,4348.637,8654.28Z" transform="translate(-4280.883 -8643.645)"/>
      <g id="Ellipse_871" data-name="Ellipse 871" transform="translate(40.409 20.905)">
        <circle id="Ellipse_977" data-name="Ellipse 977" class="cls-6" cx="5.082" cy="5.082" r="5.082"/>
      </g>
      <g id="Ellipse_871-2" data-name="Ellipse 871" transform="translate(31.825 16.285)">
        <circle id="Ellipse_978" data-name="Ellipse 978" class="cls-3" cx="7.297" cy="7.297" r="7.297"/>
      </g>
    </g>
    <path id="Path_4334" data-name="Path 4334" class="cls-7" d="M4387.448,8666.1v8.979H4304.06V8666.1a8.694,8.694,0,0,1,5.566,2.174,6.842,6.842,0,0,0,9.067,0,9.418,9.418,0,0,1,12.09,0,6.84,6.84,0,0,0,9.066,0,9.417,9.417,0,0,1,12.09,0,6.842,6.842,0,0,0,9.068,0,9.416,9.416,0,0,1,12.089,0,6.872,6.872,0,0,0,9.09,0A9.367,9.367,0,0,1,4387.448,8666.1Z" transform="translate(0 21.177)"/>
  </g>
</svg>
