<!-- Generator: Adobe Illustrator 24.0.2, SVG Export Plug-In . SVG Version: 6.00 Build 0)  -->
<svg version="1.1" id="Layer_3" class="w-100" xmlns="http://www.w3.org/2000/svg" xmlns:xlink="http://www.w3.org/1999/xlink" x="0px" y="0px"
	 viewBox="0 0 45.3 34.4" style="enable-background:new 0 0 45.3 34.4;" xml:space="preserve">
<style type="text/css">
	#Layer_3 .st0{fill:#0E7BD2;}
	#Layer_3 .st1{fill:#004FB5;}
	#Layer_3 .st2{fill:#FFFFFF;}
</style>
<g id="location_x5F_icon_x5F_3" transform="translate(19010 16635)">
	<g class="Path_346 common-fill-box animate-speed-one">
		<path id="Path_346" class="st0" d="M-18992-16635h8.5v34.4h-8.5V-16635z"/>
	</g>
	<path id="Path_340" class="st1" d="M-18983.5-16620.1v8.7c-1.3-0.4-2.6-0.6-3.9-0.6c-0.2,0-0.4,0-0.6,0c-1.4,0.1-2.8,0.3-4.1,0.8
		v-8.8c1.3-0.3,2.7-0.5,4.1-0.5c0.2,0,0.4,0,0.6,0C-18986-16620.4-18984.7-16620.3-18983.5-16620.1z"/>
	<path id="Path_341" class="st2" d="M-18987-16600.6h-0.9v-2.1h0.9V-16600.6z M-18987-16606.7h-0.9v-4h0.9V-16606.7z
		 M-18987-16615.3h-0.9v-4h0.9V-16615.3z M-18987-16622.9h-0.9v-4h0.9V-16622.9z M-18987-16631h-0.9v-4h0.9V-16631z"/>
	<path id="Path_342" class="st0" d="M-18964.7-16600.9h-8.5c0-7.8-6.3-14.1-14.1-14.1c-0.2,0-0.4,0-0.6,0
		c-7.6,0.3-13.5,6.5-13.6,14.1h-8.5c0-12.3,9.8-22.3,22.1-22.7c0.2,0,0.4,0,0.6,0C-18974.8-16623.5-18964.7-16613.4-18964.7-16600.9
		L-18964.7-16600.9z"/>
	<path id="Path_343" class="st2" d="M-18968-16600.9h-0.9c0-1.3-0.1-2.6-0.4-3.9l0.9-0.2
		C-18968.2-16603.6-18968-16602.3-18968-16600.9z M-19005.3-16600.9h-0.9c0-0.5,0-1.1,0.1-1.6l0.9,0.1
		C-19005.3-16601.9-19005.3-16601.4-19005.3-16600.9z M-19004.5-16606.3l-0.9-0.3c0.4-1.3,1-2.6,1.7-3.8l0.8,0.5
		C-19003.6-16608.7-19004.1-16607.5-19004.5-16606.3z M-18970.6-16608.5c-0.6-1.2-1.3-2.3-2.1-3.3l0.7-0.6c0.9,1.1,1.6,2.3,2.2,3.5
		L-18970.6-16608.5z M-19000.6-16613l-0.7-0.6c0.9-1,2-1.9,3.1-2.7l0.5,0.7C-18998.7-16614.8-18999.7-16613.9-19000.6-16613
		L-19000.6-16613z M-18975.5-16614.6c-1-0.8-2.1-1.5-3.3-2.1l0.4-0.8c1.2,0.6,2.4,1.4,3.5,2.2L-18975.5-16614.6z M-18994.1-16617.4
		l-0.3-0.8c1.3-0.5,2.6-0.9,4-1.1l0.2,0.9C-18991.6-16618.2-18992.9-16617.8-18994.1-16617.4L-18994.1-16617.4z M-18982.5-16618.1
		c-1.3-0.3-2.6-0.5-3.9-0.6l0-0.9c1.4,0.1,2.7,0.2,4.1,0.6L-18982.5-16618.1z"/>
</g>
</svg>
