<svg xmlns="http://www.w3.org/2000/svg" width="599.85" height="161.743" viewBox="0 0 599.85 161.743"><path d="M151.397 47.31l-9.254-1.346V40.58h42.906c22.21 0 46.943 4.543 46.943 31.297 0 14.638-13.63 24.902-26.753 27.09l27.763 52.664 9.254 1.347v5.385h-28.604l-30.118-58.217h-11.61v51.486l9.254 1.347v5.385h-39.037v-5.385l9.254-1.346V47.31zm20.528 47.45h7.57c22.043 0 30.288-8.414 30.288-24.567 0-17.835-12.62-24.23-26.753-24.23-3.197 0-7.235.506-11.105.842V94.76z"/><path d="M239.227 118.147c0-22.715 14.47-42.737 36.175-42.737 21.706 0 36.176 20.022 36.176 42.737 0 19.35-13.965 42.57-36.176 42.57-22.21 0-36.175-18.173-36.175-42.57zm53.17 0c0-24.062-4.712-36.85-16.995-36.85-12.283 0-16.994 12.452-16.994 36.85 0 22.715 3.534 36.68 16.994 36.68s16.994-22.04 16.994-36.68zM381.74 145.237c-9.087 10.432-18.173 15.48-27.427 15.48-21.873 0-35.503-16.49-35.503-38.868 0-26.587 15.985-46.44 39.373-46.44 7.57 0 19.013 3.028 19.013 13.797 0 4.88-4.543 8.244-9.254 8.244-12.45 0-8.918-16.15-14.134-16.15-9.254 0-18.172 9.758-18.172 31.968 0 15.144 9.086 34.83 26.248 34.83 6.226 0 10.6-2.355 15.144-6.562l4.71 3.7zM429.858 158.36v-4.542l9.254-1.683-20.19-35.503-7.74 12.45v23.053l8.076 1.683v4.543h-34.156v-4.542l9.254-1.683V51.685c0-5.553-3.197-7.235-9.254-7.235v-4.543l26.08-10.096v86.99h.336l9.255-14.638c8.244-13.124 19.854-26.753 28.604-26.753 4.71 0 9.59 3.868 9.59 9.253 0 7.74-6.225 10.6-10.263 10.6s-7.235-3.7-10.096-3.7c-3.197 0-8.244 7.74-9.59 10.263l28.603 50.31 8.077 1.683v4.542h-35.84zM481.68 119.83c.504 13.46 7.907 28.268 23.387 28.268 10.264 0 13.124-5.048 18.51-11.105l4.542 3.533c-8.246 11.947-16.827 20.19-32.307 20.19-19.687 0-30.96-19.18-30.96-39.034 0-21.033 10.77-46.27 33.82-46.27 17.835 0 29.108 15.815 29.276 31.968l-46.27 12.45zm17.834-12.116c6.73-1.682 9.255-5.384 9.255-13.46 0-8.413-5.05-12.956-12.62-12.956-11.61 0-16.153 14.64-16.153 31.465l19.517-5.05zM532.826 85.336v-7.57h9.255v-23.22l16.826-9.592v32.81h19.014v7.572h-19.014v56.535c0 5.385 4.207 7.91 8.918 7.91 4.375 0 8.076-2.525 11.946-5.554l2.524 4.543c-5.048 5.888-13.798 11.945-21.874 11.945-14.807 0-18.34-11.273-18.34-19.014V85.337h-9.254z"/><g><path d="M599.85 155.096c0 3.724-2.923 6.646-6.727 6.646-3.764 0-6.767-2.923-6.767-6.646 0-3.644 3.003-6.566 6.767-6.566 3.804 0 6.727 2.923 6.727 6.566zm-11.81 0c0 2.923 2.16 5.245 5.124 5.245 2.883 0 5.005-2.32 5.005-5.204 0-2.923-2.123-5.285-5.046-5.285s-5.085 2.363-5.085 5.246zm4.043 3.444h-1.52v-6.566c.6-.12 1.44-.2 2.52-.2 1.242 0 1.803.2 2.283.48.36.28.64.8.64 1.44 0 .722-.56 1.282-1.36 1.522v.08c.64.24 1 .72 1.2 1.602.2 1 .32 1.4.48 1.642h-1.64c-.2-.24-.32-.84-.522-1.602-.12-.72-.52-1.04-1.36-1.04h-.722v2.642zm.04-3.724h.72c.842 0 1.522-.28 1.522-.96 0-.602-.44-1.002-1.4-1.002-.4 0-.682.04-.842.08v1.882z"/></g><path d="M65.756 45.036L53.042 101.73 20.195 90.21 49.95 45.036H0v112.902h116.544V45.036"/><g><path d="M68.13 26.15L73.64 0 59.276 22.683c3.394.08 6.483 1.376 8.854 3.467"/></g></svg>