<svg id="inspire_4" xmlns="http://www.w3.org/2000/svg" width="82.001" height="54.817" viewBox="0 0 82.001 54.817">
  <defs>
    <style>
      #inspire_4 .cls-1 {
        fill: #0052a2;
      }

      #inspire_4 .cls-2 {
        fill: #0e7bd2;
      }

      #inspire_4 .cls-3 {
        fill: #fff;
      }
    </style>
  </defs>
  <g id="Group_5099" data-name="Group 5099" transform="translate(-264.997 -1731.294)">
    <g id="Group_5032" data-name="Group 5032" transform="translate(264.997 1734.918)">
      <rect id="Rectangle_6580" data-name="Rectangle 6580" class="cls-1" width="2.352" height="33.923" transform="translate(8.295 17.148)"/>
      <path id="Path_4197" data-name="Path 4197" class="cls-2" d="M279.856,1768.183h-12.9a7.234,7.234,0,0,1,12.9,0Z" transform="translate(-263.933 -1716.99)"/>
      <circle id="Ellipse_920" data-name="Ellipse 920" class="cls-2" cx="9.471" cy="9.471" r="9.471"/>
    </g>
    <g id="Group_5033" data-name="Group 5033" transform="translate(297.383 1776.454)">
      <rect id="Rectangle_6581" data-name="Rectangle 6581" class="cls-1" width="9.533" height="9.657"/>
      <rect id="Rectangle_6582" data-name="Rectangle 6582" class="cls-1" width="9.533" height="9.657" transform="translate(34.973)"/>
    </g>
    <path id="Rectangle_6583" data-name="Rectangle 6583" class="cls-2" d="M3.287,0h48.15a3.287,3.287,0,0,1,3.287,3.287V46.3a0,0,0,0,1,0,0H0a0,0,0,0,1,0,0V3.287A3.287,3.287,0,0,1,3.287,0Z" transform="translate(292.275 1731.294)"/>
    <path id="Rectangle_6584" data-name="Rectangle 6584" class="cls-3" d="M1.861,0h42.83a1.861,1.861,0,0,1,1.861,1.861v21.2a0,0,0,0,1,0,0H0a0,0,0,0,1,0,0V1.861A1.861,1.861,0,0,1,1.861,0Z" transform="translate(296.361 1735.484)"/>
    <rect id="Rectangle_6585" data-name="Rectangle 6585" class="cls-2" width="4.457" height="24.64" transform="translate(317.408 1735.256)"/>
    <g id="Group_5034" data-name="Group 5034" transform="translate(302.118 1762.951)">
      <circle id="Ellipse_921" data-name="Ellipse 921" class="cls-3" cx="4.705" cy="4.705" r="4.705" transform="translate(25.485 0.248)"/>
      <circle id="Ellipse_922" data-name="Ellipse 922" class="cls-3" cx="4.705" cy="4.705" r="4.705"/>
    </g>
    <path id="Rectangle_6586" data-name="Rectangle 6586" class="cls-2" d="M1.122,0H7.263a0,0,0,0,1,0,0V3.467a0,0,0,0,1,0,0H1.122A1.122,1.122,0,0,1,0,2.344V1.122A1.122,1.122,0,0,1,1.122,0Z" transform="translate(285.754 1774.131)"/>
    <g id="Group_5035" data-name="Group 5035" transform="translate(313.983 1765.408)">
      <rect id="Rectangle_6587" data-name="Rectangle 6587" class="cls-1" width="11.39" height="1.816"/>
      <rect id="Rectangle_6588" data-name="Rectangle 6588" class="cls-1" width="11.39" height="1.816" transform="translate(0 3.962)"/>
    </g>
  </g>
</svg>
