<svg id="inspire_3" xmlns="http://www.w3.org/2000/svg" width="62.135" height="62.137" viewBox="0 0 62.135 62.137">
  <defs>
    <style>
      #inspire_3 .cls-1 {
        fill: #0e7bd2;
      }
    </style>
  </defs>
  <g id="Group_5100" data-name="Group 5100" transform="translate(-264.965 -2061.055)">
    <path id="Path_4203" data-name="Path 4203" class="cls-1" d="M327.1,2092.094a31.067,31.067,0,1,1-31.075-31.039A31.029,31.029,0,0,1,327.1,2092.094Zm-53.123-1.36c1.742,0,3.485-.033,5.227.016.736.021,1.006-.177,1.018-.956a48.929,48.929,0,0,1,1.279-10.35c.148-.638.024-.91-.64-1.078a30.6,30.6,0,0,1-6.911-2.644c-.6-.318-.858-.244-1.229.3a28.645,28.645,0,0,0-4.952,13.911c-.058.677.168.829.794.817C270.368,2090.711,272.173,2090.734,273.977,2090.734Zm44.088,0c1.835,0,3.669-.012,5.5.007.511,0,.782-.072.729-.7a28.416,28.416,0,0,0-5.055-14.151c-.277-.4-.487-.5-.946-.255a33.377,33.377,0,0,1-7.158,2.764c-.554.146-.734.341-.6.934a50.807,50.807,0,0,1,1.31,10.622c.01.591.2.8.8.79C314.458,2090.713,316.262,2090.734,318.065,2090.734Zm-44.076,2.78c-1.835,0-3.669.012-5.5-.008-.526-.007-.772.1-.72.709a28.4,28.4,0,0,0,5.06,14.15c.28.4.494.491.951.249a32.233,32.233,0,0,1,7.16-2.758c.562-.145.715-.37.581-.949a50.823,50.823,0,0,1-1.309-10.624c-.01-.6-.218-.789-.81-.78C277.6,2093.534,275.793,2093.514,273.989,2093.514Zm44.126,0c-1.835,0-3.669.016-5.5-.01-.555-.006-.746.186-.757.738a51.778,51.778,0,0,1-1.319,10.712c-.127.554.038.736.554.875a33.5,33.5,0,0,1,7.243,2.8c.5.271.683.046.932-.312a28.362,28.362,0,0,0,5.026-14.067c.048-.559-.088-.76-.672-.751C321.785,2093.534,319.95,2093.514,318.115,2093.514Zm-29.325-2.78c1.683,0,3.367-.018,5.05.009.555.008.825-.107.819-.748q-.041-4.452,0-8.905c.007-.643-.258-.734-.806-.753a54.782,54.782,0,0,1-8.749-.957c-.633-.125-.763.057-.887.618a56.811,56.811,0,0,0-1.271,9.9c-.031.744.242.858.886.844C285.486,2090.71,287.138,2090.734,288.791,2090.734Zm-.005,2.78c-1.683,0-3.367.017-5.048-.01-.567-.008-.81.112-.788.755a54.719,54.719,0,0,0,1.3,10.085c.108.483.225.657.775.547a53.311,53.311,0,0,1,8.929-.979c.585-.019.708-.227.705-.758-.019-2.938-.024-5.876,0-8.814.007-.631-.172-.854-.824-.839C292.154,2093.541,290.469,2093.514,288.785,2093.514Zm14.5,0c-1.713,0-3.427.017-5.141-.01-.559-.01-.741.176-.738.736q.034,4.5,0,9c-.005.535.2.655.7.671a56,56,0,0,1,8.929.972c.53.1.674-.021.786-.526a55.483,55.483,0,0,0,1.293-10.085c.022-.631-.2-.774-.777-.764C306.653,2093.534,304.97,2093.514,303.286,2093.514Zm.015-2.78c1.683,0,3.367-.012,5.049.007.5,0,.779-.064.76-.688a55.923,55.923,0,0,0-1.314-10.266c-.1-.434-.26-.528-.691-.442a55.538,55.538,0,0,1-9.017.994c-.512.017-.683.172-.679.688q.028,4.5,0,9c0,.578.215.727.753.719C299.875,2090.716,301.587,2090.734,303.3,2090.734Zm-8.654-20.012c0-2.022-.014-4.043.007-6.063.007-.572-.167-.689-.693-.481a8.3,8.3,0,0,0-2.3,1.322c-3.357,2.8-5.009,6.636-6.392,10.629-.162.468.115.5.445.562a64.39,64.39,0,0,0,8.206.9c.581.033.738-.165.731-.715C294.634,2074.823,294.647,2072.772,294.647,2070.722Zm2.77.031c0,1.989.022,3.98-.014,5.97-.012.659.126.917.86.869a69.9,69.9,0,0,0,8.023-.89c.447-.083.643-.155.464-.689a28.045,28.045,0,0,0-4.024-8.1,10.822,10.822,0,0,0-4.478-3.693c-.588-.242-.865-.2-.848.56C297.447,2066.772,297.417,2068.764,297.417,2070.753Zm-2.77,42.7c0-1.989-.019-3.98.012-5.97.009-.614-.127-.867-.81-.824a70.625,70.625,0,0,0-8.116.886c-.531.094-.554.275-.4.729a27.828,27.828,0,0,0,3.922,7.945A10.956,10.956,0,0,0,293.77,2120c.646.271.913.229.892-.581C294.616,2117.431,294.647,2115.44,294.647,2113.45Zm2.77-.015c0,2.05.014,4.1-.009,6.152-.005.574.172.681.695.481a9.5,9.5,0,0,0,3.7-2.638,25.786,25.786,0,0,0,4.956-9.227c.158-.47.01-.574-.416-.652a65.679,65.679,0,0,0-8.206-.9c-.581-.033-.736.167-.729.717C297.431,2109.395,297.417,2111.415,297.417,2113.435Zm6.407-48.549a29.036,29.036,0,0,1,5.647,10.48c.124.387.241.6.76.445a40.327,40.327,0,0,0,6.259-2.333c.435-.209.549-.356.163-.762A28.538,28.538,0,0,0,303.824,2064.886Zm0,54.471a28.444,28.444,0,0,0,12.881-7.889c.4-.425.126-.528-.208-.691a38.408,38.408,0,0,0-6.257-2.339c-.5-.143-.641.024-.77.43A29,29,0,0,1,303.821,2119.357Zm-15.586-54.46a28.289,28.289,0,0,0-13.214,8.269,34.526,34.526,0,0,0,6.942,2.674c.383.106.492-.038.585-.332A29.3,29.3,0,0,1,288.235,2064.9Zm-.095,54.427c-.672-.9-1.267-1.642-1.8-2.424a31.429,31.429,0,0,1-3.735-7.925c-.1-.3-.067-.74-.683-.561a39.129,39.129,0,0,0-6.342,2.356c-.406.2-.583.333-.179.756A28.506,28.506,0,0,0,288.141,2119.324Z" transform="translate(0 0)"/>
  </g>
</svg>
