<svg version="1.1" id="express_1" xmlns="http://www.w3.org/2000/svg" width="69.181" height="92.759" viewBox="0 0 69.181 92.759">
  <defs>
    <style>
      #express_1 .cls-1 {
        fill: #ff5f4d;
      }

      #express_1 .cls-2 {
        fill: #ffa400;
      }

      #express_1 .cls-3 {
        fill: #f77e0b;
      }

      #express_1 .cls-4 {
        fill: #fff;
      }

      #express_1 .cls-5 {
        fill: #ea3521;
      }

      #express_1 .cls-6 {
        fill: #c12417;
      }

      #express_1 .cls-7 {
        fill: #ff6100;
      }
    </style>
  </defs>
  <g id="Group_5085" data-name="Group 5085" transform="translate(-132.265 -1254.725)">
    <g id="Group_5016" data-name="Group 5016" transform="translate(180.24 1294.919)">
      <path id="Path_4148" data-name="Path 4148" class="cls-1" d="M172.466,1285.239l-.9,14.146H161.414l-.9-14.146Z" transform="translate(-155.826 -1268.549)"/>
      <path id="Path_4149" data-name="Path 4149" class="cls-2" d="M179.205,1282.107a10.606,10.606,0,0,1-21.205,0Z" transform="translate(-158 -1271.255)"/>
      <path id="Path_4150" data-name="Path 4150" class="cls-1" d="M171.15,1292.827l-.947,14.818a1.392,1.392,0,0,1-.05.324H162a1.5,1.5,0,0,1-.05-.324L161,1292.827Z" transform="translate(-155.409 -1261.991)"/>
      <path id="Path_4151" data-name="Path 4151" class="cls-3" d="M169.691,1300.95a4.12,4.12,0,0,1-8.158,0Z" transform="translate(-154.947 -1254.971)"/>
      <path id="Path_4152" data-name="Path 4152" class="cls-3" d="M179.205,1286.888v.25H158v-.25a10.6,10.6,0,0,1,21.205,0Z" transform="translate(-158 -1276.286)"/>
      <circle id="Ellipse_909" data-name="Ellipse 909" class="cls-4" cx="1.93" cy="1.93" r="1.93" transform="translate(8.837 28.797)"/>
    </g>
    <g id="Group_5017" data-name="Group 5017" transform="translate(132.265 1254.725)">
      <path id="Path_4153" data-name="Path 4153" class="cls-5" d="M177.283,1307.875a21.834,21.834,0,1,1-36.2-16.42,14.807,14.807,0,0,1-.1-1.67,14.471,14.471,0,1,1,28.942,0,14.814,14.814,0,0,1-.1,1.67A21.689,21.689,0,0,1,177.283,1307.875Z" transform="translate(-131.099 -1236.941)"/>
      <path id="Path_4154" data-name="Path 4154" class="cls-1" d="M175.934,1307.875a21.835,21.835,0,1,1-36.2-16.42,15.259,15.259,0,0,1-.1-1.67,14.47,14.47,0,1,1,28.94,0,15.251,15.251,0,0,1-.1,1.67A21.694,21.694,0,0,1,175.934,1307.875Z" transform="translate(-132.265 -1236.941)"/>
      <circle id="Ellipse_31" data-name="Ellipse 31" class="cls-4" cx="9.511" cy="9.511" r="9.511" transform="translate(12.319 57.657)"/>
      <rect id="Rectangle_6567" data-name="Rectangle 6567" class="cls-6" width="1.837" height="37.743" transform="translate(25.578 13.507)"/>
      <rect id="Rectangle_6568" data-name="Rectangle 6568" class="cls-5" width="34.864" height="8.122" transform="translate(17.601 51.282) rotate(-90)"/>
      <path id="Path_154" data-name="Path 154" class="cls-7" d="M144.829,1254.725l-2.12,16.411h8.029l4.243-7.3-8.258-9.1Z" transform="translate(-123.239 -1254.725)"/>
      <path id="Path_154-2" data-name="Path 154" class="cls-3" d="M139.409,1263.831l4.243,7.3h8.029l4.243-7.3-8.258-9.1Z" transform="translate(-126.091 -1254.717)"/>
    </g>
  </g>
</svg>
