<svg id="inspire_1" xmlns="http://www.w3.org/2000/svg" width="91.001" height="58.814" viewBox="0 0 91.001 58.814">
  <defs>
    <style>
      #inspire_1 .cls-1 {
        fill: #0074bb;
      }

      #inspire_1 .cls-2 {
        fill: #00ac51;
      }

      #inspire_1 .cls-3 {
        fill: #0e7bd2;
      }

      #inspire_1 .cls-4 {
        fill: #005bbb;
      }

      #inspire_1 .cls-5 {
        fill: #fff;
      }
    </style>
  </defs>
  <g id="Group_5097" data-name="Group 5097" transform="translate(-113.892 -1946.183)">
    <g id="Group_5037" data-name="Group 5037" transform="translate(113.892 1986.525)">
      <path id="Path_4198" data-name="Path 4198" class="cls-1" d="M190.513,1987.58h-53.9a33.106,33.106,0,0,1,53.9,0Z" transform="translate(-99.512 -1969.108)"/>
      <path id="Path_4199" data-name="Path 4199" class="cls-2" d="M185.632,1989.36h-71.74a44.063,44.063,0,0,1,71.74,0Z" transform="translate(-113.892 -1970.888)"/>
    </g>
    <g id="Group_5038" data-name="Group 5038" transform="translate(138.543 1946.183)">
      <path id="Path_4200" data-name="Path 4200" class="cls-3" d="M167.177,1973.687H138.905l-9.917,10.4v-34.394a3.51,3.51,0,0,1,3.509-3.511h34.679a3.512,3.512,0,0,1,3.511,3.511v20.482A3.512,3.512,0,0,1,167.177,1973.687Z" transform="translate(-128.988 -1946.183)"/>
      <path id="Path_4201" data-name="Path 4201" class="cls-4" d="M158.78,1967.468s-3.851-7.293-14.024-6.96v6.294l-8.988-8.1,8.988-8.085v5.315a19.16,19.16,0,0,1,7.468,1.27C155.282,1958.535,158.22,1962.579,158.78,1967.468Z" transform="translate(-124.696 -1943.376)"/>
      <path id="Path_4202" data-name="Path 4202" class="cls-5" d="M158.342,1965.562s-3.163-6.313-13.338-5.98v5.314l-9.674-8.1,9.674-8.085v5.313a16.31,16.31,0,0,1,6.783,1.272C154.846,1956.629,157.782,1960.671,158.342,1965.562Z" transform="translate(-124.974 -1944.583)"/>
    </g>
  </g>
</svg>
