<svg version="1.1" id="express_3" xmlns="http://www.w3.org/2000/svg" width="64.26" height="79.877" viewBox="0 0 64.26 79.877">
  <defs>
    <style>
      #express_3 .cls-1 {
        fill: #ef4e30;
      }

      #express_3 .cls-2 {
        fill: #f6921e;
      }

      #express_3 .cls-3 {
        fill: #f6721e;
      }

      #express_3 .cls-4 {
        fill: #ea3521;
      }

      #express_3 .cls-5 {
        fill: #ff5f4d;
      }

      #express_3 .cls-6 {
        fill: #f84530;
      }
    </style>
  </defs>
  <g id="Group_5088" data-name="Group 5088" transform="translate(-270 -3427.82)">
    <rect id="Rectangle_6575" data-name="Rectangle 6575" class="cls-1" width="6.376" height="20.028" transform="translate(270 3446.554) rotate(-45)"/>
    <rect id="Rectangle_6576" data-name="Rectangle 6576" class="cls-1" width="6.376" height="20.167" transform="translate(312.847 3456.122) rotate(-45)"/>
    <path id="Path_4171" data-name="Path 4171" class="cls-2" d="M308.071,1418.157l-4.516,4.5-20.035-19.987,11.933-11.933,4.5,4.516-7.385,7.4Z" transform="translate(4.133 2078.734)"/>
    <rect id="Rectangle_6577" data-name="Rectangle 6577" class="cls-2" width="6.376" height="31.249" transform="translate(307.655 3485.592) rotate(-45)"/>
    <rect id="Rectangle_6578" data-name="Rectangle 6578" class="cls-3" width="6.376" height="4.095" transform="translate(307.655 3485.592) rotate(-45)"/>
    <path id="Path_4172" data-name="Path 4172" class="cls-4" d="M288.36,1397.889l12.14,12.14,6.381-6.379a8.145,8.145,0,0,0,0-11.521l-6.381-6.38Z" transform="translate(7.183 2075.591)"/>
    <path id="Path_4173" data-name="Path 4173" class="cls-5" d="M308.373,1387.3l-12.145,12.128L284.1,1387.3l7.238-7.238,4.891-4.907,4.059,4.06Z" transform="translate(4.499 2068.909)"/>
    <circle id="Ellipse_914" data-name="Ellipse 914" class="cls-2" cx="9.826" cy="9.826" r="9.826" transform="translate(289.171 3427.82)"/>
    <circle id="Ellipse_919" data-name="Ellipse 919" class="cls-6" cx="10" cy="10" r="10" transform="translate(271 3487.698)"/>
  </g>
</svg>
