<svg xmlns="http://www.w3.org/2000/svg" width="110.667" height="20.246" viewBox="0 0 110.667 20.246">
  <g id="resource-pro-vector-logo" transform="translate(-20.982 -307.7)">
    <path id="Path_4978" data-name="Path 4978" d="M156.146,355.357l-2.6-4.427h-1.937v4.427H149.8V344.4h3.8a5.41,5.41,0,0,1,3.062.738,2.734,2.734,0,0,1,1.125,2.435,3.041,3.041,0,0,1-.646,1.992,3.54,3.54,0,0,1-1.789,1.107l2.841,4.667h-2.048Zm-4.556-5.811h1.771a3.193,3.193,0,0,0,1.937-.5,1.736,1.736,0,0,0,.664-1.476,1.532,1.532,0,0,0-.646-1.383,3.662,3.662,0,0,0-1.955-.424h-1.771Z" transform="translate(-105.055 -29.93)" fill="#082658"/>
    <path id="Path_4979" data-name="Path 4979" d="M205.46,362.959h-5.719a2.7,2.7,0,0,0,.9,1.882,2.875,2.875,0,0,0,1.882.646,3.957,3.957,0,0,0,2.085-.627l.627,1.07a5.486,5.486,0,0,1-2.933.867,4.323,4.323,0,0,1-2.14-.517,3.8,3.8,0,0,1-1.513-1.494,4.928,4.928,0,0,1,0-4.538,4.1,4.1,0,0,1,1.457-1.513,3.832,3.832,0,0,1,1.937-.535,3.259,3.259,0,0,1,2.6,1.051,4.158,4.158,0,0,1,.922,2.822c-.037.332-.055.627-.111.885m-1.476-1.162a2.479,2.479,0,0,0-.5-1.66,1.8,1.8,0,0,0-1.439-.59,2.08,2.08,0,0,0-1.457.572,2.733,2.733,0,0,0-.812,1.679Z" transform="translate(-144.445 -41.184)" fill="#082658"/>
    <path id="Path_4980" data-name="Path 4980" d="M243.963,354.4a5.311,5.311,0,0,1-1.863-1.2l1.07-1.181a4.878,4.878,0,0,0,1.457.959,3.985,3.985,0,0,0,1.642.35,2.821,2.821,0,0,0,1.623-.424,1.345,1.345,0,0,0,.59-1.144,1.284,1.284,0,0,0-.221-.775,2.02,2.02,0,0,0-.59-.516,7.819,7.819,0,0,0-1.051-.461L245,349.348c-1.568-.609-2.361-1.568-2.361-2.859a2.6,2.6,0,0,1,.48-1.531,3.2,3.2,0,0,1,1.365-1.07,4.744,4.744,0,0,1,1.955-.387,5.315,5.315,0,0,1,1.937.369,4.829,4.829,0,0,1,1.586,1l-.941,1.088a3.948,3.948,0,0,0-2.564-.978,2.379,2.379,0,0,0-1.439.387,1.236,1.236,0,0,0-.535,1.033,1.122,1.122,0,0,0,.258.738,1.782,1.782,0,0,0,.627.48,9.468,9.468,0,0,0,1,.443l1.623.646a4.432,4.432,0,0,1,1.752,1.125,2.647,2.647,0,0,1,.609,1.808,2.854,2.854,0,0,1-.5,1.623,3.585,3.585,0,0,1-1.42,1.162,5.177,5.177,0,0,1-2.158.424,6.744,6.744,0,0,1-2.306-.443" transform="translate(-180.329 -29.196)" fill="#082658"/>
    <path id="Path_4981" data-name="Path 4981" d="M292.648,366.461a3.876,3.876,0,0,1-1.494-1.494,4.966,4.966,0,0,1,0-4.556,3.876,3.876,0,0,1,1.494-1.494,4.051,4.051,0,0,1,2.029-.517,4,4,0,0,1,2.029.517,3.876,3.876,0,0,1,1.494,1.494,4.966,4.966,0,0,1,0,4.556,3.876,3.876,0,0,1-1.494,1.494,4.244,4.244,0,0,1-4.058,0m3.652-1.66a3.937,3.937,0,0,0,0-4.206,2.029,2.029,0,0,0-3.247,0,3.937,3.937,0,0,0,0,4.206,1.92,1.92,0,0,0,1.623.793,1.968,1.968,0,0,0,1.623-.793" transform="translate(-219.882 -41.347)" fill="#082658"/>
    <path id="Path_4982" data-name="Path 4982" d="M342,364.647V359.5h1.789v4.944a2.57,2.57,0,0,0,.35,1.531,1.314,1.314,0,0,0,1.125.461,2.055,2.055,0,0,0,1.07-.277,4.719,4.719,0,0,0,1.033-.959v-5.682h1.789v8.172h-1.476l-.148-1.236h-.055a5.225,5.225,0,0,1-1.31,1.07,3.112,3.112,0,0,1-1.513.369c-1.771-.018-2.656-1.088-2.656-3.247" transform="translate(-261.8 -42.244)" fill="#082658"/>
    <path id="Path_4983" data-name="Path 4983" d="M391.8,358.6h1.476l.148,1.476h.055a4.024,4.024,0,0,1,1.107-1.236,2.51,2.51,0,0,1,2.324-.277l-.314,1.476a3.088,3.088,0,0,0-.867-.129,2.006,2.006,0,0,0-1.162.424,3.092,3.092,0,0,0-.959,1.347v5.11h-1.789V358.6Z" transform="translate(-302.413 -41.347)" fill="#082658"/>
    <path id="Path_4984" data-name="Path 4984" d="M421.711,366.461a3.556,3.556,0,0,1-1.476-1.476,4.513,4.513,0,0,1-.535-2.287,4.35,4.35,0,0,1,.59-2.287,3.941,3.941,0,0,1,1.568-1.494,4.4,4.4,0,0,1,2.121-.517,3.886,3.886,0,0,1,2.546.941l-.885,1.107a3.934,3.934,0,0,0-.756-.48,1.91,1.91,0,0,0-.793-.166,2.3,2.3,0,0,0-1.826.812,3.053,3.053,0,0,0-.7,2.1,3.1,3.1,0,0,0,.683,2.1,2.237,2.237,0,0,0,1.789.793,3.007,3.007,0,0,0,1.9-.756l.738,1.125a3.95,3.95,0,0,1-1.328.756,4.715,4.715,0,0,1-1.494.258,4.484,4.484,0,0,1-2.14-.535" transform="translate(-325.167 -41.347)" fill="#082658"/>
    <path id="Path_4985" data-name="Path 4985" d="M467.679,362.959h-5.737a2.626,2.626,0,0,0,.9,1.882,2.875,2.875,0,0,0,1.882.646,3.957,3.957,0,0,0,2.085-.627l.627,1.07a5.486,5.486,0,0,1-2.933.867,4.323,4.323,0,0,1-2.14-.517,3.8,3.8,0,0,1-1.513-1.494,4.928,4.928,0,0,1,0-4.538,4.1,4.1,0,0,1,1.457-1.513,3.832,3.832,0,0,1,1.937-.535,3.259,3.259,0,0,1,2.6,1.051,4.158,4.158,0,0,1,.922,2.822c-.037.332-.055.627-.092.885m-1.494-1.162a2.479,2.479,0,0,0-.5-1.66,1.8,1.8,0,0,0-1.439-.59,2.08,2.08,0,0,0-1.457.572,2.733,2.733,0,0,0-.812,1.679Z" transform="translate(-358.277 -41.184)" fill="#082658"/>
    <path id="Path_4986" data-name="Path 4986" d="M510.7,344h3.007a5.813,5.813,0,0,1,3.173.719,2.653,2.653,0,0,1,1.088,2.38,2.854,2.854,0,0,1-1.107,2.435,5.052,5.052,0,0,1-3.081.812h-2.14v4.667H510.7Zm2.878,5.626a4.632,4.632,0,0,0,2.6-.59,2.193,2.193,0,0,0,.849-1.918,1.963,1.963,0,0,0-.849-1.826,5.193,5.193,0,0,0-2.675-.535h-1.863v4.87Z" transform="translate(-399.38 -29.604)" fill="#082658"/>
    <path id="Path_4987" data-name="Path 4987" d="M555.6,359.384h.756l.111,1.494h.037a3.977,3.977,0,0,1,1.088-1.236,2.264,2.264,0,0,1,1.347-.443,1.878,1.878,0,0,1,.849.166l-.2.775a1.988,1.988,0,0,0-.369-.111,2.6,2.6,0,0,0-.406-.018,2.051,2.051,0,0,0-1.236.48,3.853,3.853,0,0,0-1.052,1.531v5.423H555.6Z" transform="translate(-435.997 -42)" fill="#082658"/>
    <path id="Path_4988" data-name="Path 4988" d="M581.119,367.032a3.681,3.681,0,0,1-1.4-1.457,4.559,4.559,0,0,1-.517-2.251,4.682,4.682,0,0,1,.517-2.269,3.564,3.564,0,0,1,1.4-1.457,3.979,3.979,0,0,1,3.855,0,3.561,3.561,0,0,1,1.4,1.457,4.683,4.683,0,0,1,.517,2.269,4.609,4.609,0,0,1-.517,2.251,3.681,3.681,0,0,1-1.4,1.457,3.9,3.9,0,0,1-1.937.517,3.7,3.7,0,0,1-1.918-.517m3.431-.664a2.908,2.908,0,0,0,1.033-1.217,4.613,4.613,0,0,0,0-3.616,2.851,2.851,0,0,0-1.033-1.236,2.743,2.743,0,0,0-2.988,0,2.982,2.982,0,0,0-1.033,1.236,4.125,4.125,0,0,0-.387,1.808,4.012,4.012,0,0,0,.387,1.808,3.066,3.066,0,0,0,1.033,1.217,2.633,2.633,0,0,0,1.494.443,2.953,2.953,0,0,0,1.494-.443" transform="translate(-455.244 -41.918)" fill="#082658"/>
    <path id="Path_4989" data-name="Path 4989" d="M24.075,386.155l.074.3a7.874,7.874,0,0,0,.609,1.254c.166.3.277.406.277.258a4.189,4.189,0,0,0-.553-1.365c-.3-.553-.443-.7-.406-.443" transform="translate(-2.518 -63.882)" fill="#082658"/>
    <path id="Path_4990" data-name="Path 4990" d="M31.2,399.318a3.326,3.326,0,0,0,.683,1.088c.443.461.793.793.885.683.129-.111-.166-.646-.646-1.181-.48-.553-.867-.775-.922-.59" transform="translate(-8.333 -74.665)" fill="#082658"/>
    <path id="Path_4991" data-name="Path 4991" d="M21.428,363.368c-.129-.461-.314-.424-.406.074a5.717,5.717,0,0,0,.037,1.586c.129.5.277.572.406.148a3.351,3.351,0,0,0-.037-1.808" transform="translate(0 -45.134)" fill="#082658"/>
    <path id="Path_4992" data-name="Path 4992" d="M25.659,376.5c-.369-.609-.756-.646-.922-.184a2.937,2.937,0,0,0,.314,1.734c.314.572.756.756.922.387a2.157,2.157,0,0,0-.314-1.937" transform="translate(-3.032 -55.702)" fill="#082658"/>
    <path id="Path_4993" data-name="Path 4993" d="M33.98,391.643c-.2.332.037,1.051.517,1.623.517.572,1.162.793,1.439.535.314-.332.111-1.144-.48-1.771-.553-.664-1.236-.812-1.476-.387" transform="translate(-10.541 -68.264)" fill="#082658"/>
    <path id="Path_4994" data-name="Path 4994" d="M49.612,407.246c-.683-.572-1.568-.756-1.918-.461-.277.258-.037.83.553,1.328a2.163,2.163,0,0,0,1.771.461c.443-.24.277-.83-.406-1.328" transform="translate(-21.691 -80.694)" fill="#082658"/>
    <path id="Path_4995" data-name="Path 4995" d="M23.587,342.96a3.829,3.829,0,0,0,.48-1.513c0-.221-.2.037-.443.535l-.24.609a2.584,2.584,0,0,0-.2.756c-.037.332.166.184.406-.387" transform="translate(-1.79 -27.456)" fill="#082658"/>
    <path id="Path_4996" data-name="Path 4996" d="M24.486,349.743a2.794,2.794,0,0,0-.24,1.771c.2.5.609.461.922-.111a2.181,2.181,0,0,0,.24-2.011c-.2-.406-.609-.258-.922.35" transform="translate(-2.615 -33.815)" fill="#082658"/>
    <path id="Path_4997" data-name="Path 4997" d="M30.2,362.153a2.278,2.278,0,0,0,.074,2.121.876.876,0,0,0,1.531.148,2.088,2.088,0,0,0-.037-2.343.889.889,0,0,0-1.568.074" transform="translate(-7.331 -43.994)" fill="#082658"/>
    <path id="Path_4998" data-name="Path 4998" d="M44.195,381.06a1.7,1.7,0,0,0-.24-2.343,1.414,1.414,0,0,0-2.121-.148,1.791,1.791,0,0,0,.277,2.2,1.539,1.539,0,0,0,2.084.3" transform="translate(-16.79 -57.459)" fill="#082658"/>
    <path id="Path_4999" data-name="Path 4999" d="M30.809,329.86c.48-.572.756-1.181.609-1.328-.074-.148-.48.148-.885.646a2.748,2.748,0,0,0-.646,1.218c.055.258.443.018.922-.535" transform="translate(-7.26 -16.958)" fill="#082658"/>
    <path id="Path_5000" data-name="Path 5000" d="M34.429,336.018a1.63,1.63,0,0,0,.443-1.9c-.314-.332-.959-.111-1.476.5a1.737,1.737,0,0,0-.443,1.734c.24.461.922.314,1.476-.332" transform="translate(-9.681 -21.419)" fill="#082658"/>
    <path id="Path_5001" data-name="Path 5001" d="M43.572,345.006a1.445,1.445,0,0,0-2.085.258,1.858,1.858,0,0,0-.24,2.269,1.4,1.4,0,0,0,2.158-.111,1.71,1.71,0,0,0,.166-2.417" transform="translate(-16.297 -30.149)" fill="#082658"/>
    <path id="Path_5002" data-name="Path 5002" d="M58.395,360.995a1.882,1.882,0,0,0-2.638.037,1.826,1.826,0,0,0,.037,2.564,1.849,1.849,0,0,0,2.638.074,1.83,1.83,0,0,0-.037-2.675" transform="translate(-27.946 -43.038)" fill="#082658"/>
    <path id="Path_5003" data-name="Path 5003" d="M74.391,379.615a1.587,1.587,0,0,0,.074,2.453,2.089,2.089,0,0,0,2.675,0,1.638,1.638,0,0,0,.074-2.453,2.115,2.115,0,0,0-2.822,0" transform="translate(-43.112 -58.209)" fill="#082658"/>
    <path id="Path_5004" data-name="Path 5004" d="M42.332,318.327c.609-.461.885-.867.609-.941a2.673,2.673,0,0,0-1.236.646c-.48.424-.849.793-.719.9.148.148.793-.111,1.347-.609" transform="translate(-16.292 -7.897)" fill="#082658"/>
    <path id="Path_5005" data-name="Path 5005" d="M48.4,322.23c.719-.572.885-1.254.406-1.513a1.977,1.977,0,0,0-1.808.461c-.646.535-.885,1.181-.553,1.476.406.332,1.273.148,1.955-.424" transform="translate(-20.642 -10.546)" fill="#082658"/>
    <path id="Path_5006" data-name="Path 5006" d="M57.643,331.327a1.9,1.9,0,0,0,2.527-.148,1.354,1.354,0,0,0,.166-2.121,2.169,2.169,0,0,0-2.435.221,1.338,1.338,0,0,0-.258,2.048" transform="translate(-29.593 -17.189)" fill="#082658"/>
    <path id="Path_5007" data-name="Path 5007" d="M74.449,343.159a1.705,1.705,0,0,0-.037,2.564,2.062,2.062,0,0,0,2.841,0,1.733,1.733,0,0,0-.037-2.564,2.218,2.218,0,0,0-2.767,0" transform="translate(-43.115 -28.523)" fill="#082658"/>
    <path id="Path_5008" data-name="Path 5008" d="M54.605,311.159a3.247,3.247,0,0,0,1.6-.461c.609-.3.756-.5.443-.5a6.7,6.7,0,0,0-1.439.5c-.535.221-.812.461-.609.461" transform="translate(-27.367 -2.039)" fill="#082658"/>
    <path id="Path_5009" data-name="Path 5009" d="M62.667,312.877a2.794,2.794,0,0,0,2.121-.258c.646-.332.683-.793.166-.978a3.2,3.2,0,0,0-1.882.258c-.609.351-.812.756-.406.978" transform="translate(-33.823 -3.166)" fill="#082658"/>
    <path id="Path_5010" data-name="Path 5010" d="M95.751,329.3a2.022,2.022,0,0,0-2.4-.221,1.317,1.317,0,0,0,.111,2.121,1.951,1.951,0,0,0,2.564.148,1.34,1.34,0,0,0-.277-2.048" transform="translate(-58.625 -17.194)" fill="#082658"/>
    <path id="Path_5011" data-name="Path 5011" d="M112.2,345a1.763,1.763,0,0,0,.166,2.417,1.4,1.4,0,0,0,2.158.111,1.8,1.8,0,0,0-.2-2.269A1.488,1.488,0,0,0,112.2,345" transform="translate(-74.064 -30.139)" fill="#082658"/>
    <path id="Path_5012" data-name="Path 5012" d="M78.794,318.488c0,.609-.756,1.088-1.7,1.088s-1.7-.5-1.7-1.088c0-.609.756-1.088,1.7-1.088.922,0,1.7.48,1.7,1.088" transform="translate(-44.38 -7.911)" fill="#a0c232"/>
    <path id="Path_5013" data-name="Path 5013" d="M80.383,308.032c0,.184-.572.332-1.291.332s-1.291-.148-1.291-.332.572-.332,1.291-.332c.7,0,1.291.148,1.291.332" transform="translate(-46.337)" fill="#a0c232"/>
    <path id="Path_5014" data-name="Path 5014" d="M94.115,312.766c-.092.332-.812.443-1.6.258-.793-.2-1.347-.627-1.254-.959s.812-.443,1.6-.258,1.347.627,1.254.959" transform="translate(-57.302 -3.277)" fill="#a0c232"/>
    <path id="Path_5015" data-name="Path 5015" d="M104.76,311.027c-.037.111-.59-.018-1.217-.258-.627-.258-1.088-.535-1.051-.646s.59.018,1.217.258c.627.258,1.088.553,1.051.646" transform="translate(-66.471 -1.943)" fill="#a0c232"/>
    <path id="Path_5016" data-name="Path 5016" d="M118.449,317.723c.572.424.941.885.83,1.015s-.664-.092-1.236-.516-.941-.885-.83-1.015c.111-.148.664.092,1.236.517" transform="translate(-78.464 -7.718)" fill="#a0c232"/>
    <path id="Path_5017" data-name="Path 5017" d="M109.959,320.826c.7.5,1.033,1.181.756,1.55-.3.369-1.088.258-1.789-.221-.7-.5-1.033-1.181-.756-1.55.3-.369,1.088-.277,1.789.221" transform="translate(-71.025 -10.341)" fill="#a0c232"/>
  </g>
</svg>
