<svg xmlns="http://www.w3.org/2000/svg" width="34.3" height="34.3" viewBox="0 0 34.3 34.3">
  <defs>
    <style>
      #Group_5071 .cls-1 {
        fill: #0074bb;
      }

      #Group_5071 .cls-2 {
        fill: #005a99;
      }

      #Group_5071 .cls-3 {
        fill: #edf0f5;
      }
    </style>
  </defs>
  <g id="Group_5071" data-name="Group 5071" transform="translate(14666 15815.135)">
    <g id="rupee_circle">
      <circle id="Ellipse_639" data-name="Ellipse 639" class="cls-1" cx="17.15" cy="17.15" r="17.15" transform="translate(-14666 -15815.135)"/>
    </g>
    <g id="Group_4173" data-name="Group 4173" transform="translate(-14653.421 -15807.383)">
      <path id="Path_1162" data-name="Path 1162" class="cls-2" d="M5133.4,1384.627a1,1,0,0,1-.318-.268c-2.322-2.773-4.662-5.531-7.13-8.175a.729.729,0,0,1-.213-.542c.009-.537,0-1.074,0-1.61,0-.423.173-.588.6-.594.819-.01,1.638.037,2.455-.043a5.061,5.061,0,0,0,2.615-.879,2.778,2.778,0,0,0,.984-1.341c.06-.169.019-.2-.147-.2q-2.949.007-5.9,0a.879.879,0,0,1-.3-.029.413.413,0,0,1-.306-.4c-.006-.516-.01-1.033,0-1.55a.427.427,0,0,1,.434-.438c.073-.006.146,0,.22,0q2.809,0,5.615,0c.065,0,.157.035.188-.023s-.041-.133-.078-.192a2.7,2.7,0,0,0-1.377-1.063,6.934,6.934,0,0,0-2.53-.376c-.624,0-1.248,0-1.873,0-.439,0-.607-.17-.607-.609,0-.571,0-1.141,0-1.711,0-.4.164-.566.559-.566q6,0,12,0c.385,0,.551.163.556.552q.01.664,0,1.328c0,.388-.167.545-.558.546-1.033,0-2.067,0-3.1,0-.058,0-.136-.03-.167.026s.037.107.069.153a4.877,4.877,0,0,1,.761,1.737.215.215,0,0,0,.253.2c.731-.01,1.463-.005,2.194,0,.419,0,.573.153.575.568,0,.443,0,.885,0,1.329a.466.466,0,0,1-.535.527c-.731,0-1.463,0-2.194,0-.144,0-.207.03-.235.188a5.386,5.386,0,0,1-1.827,3.222,6.845,6.845,0,0,1-3.071,1.462c-.314.067-.631.117-.951.176.015.089.087.133.14.19,2.263,2.452,4.382,5.026,6.5,7.6.254.309.2.561-.168.811Z" transform="translate(-5125.738 -1364.012)"/>
    </g>
    <g id="Group_4175" data-name="Group 4175" transform="translate(-14654.957 -15807.383)">
      <g id="Group_4174" data-name="Group 4174">
        <path id="Path_1163" data-name="Path 1163" class="cls-3" d="M5130.622,1384.627a.988.988,0,0,1-.318-.268c-2.322-2.773-4.661-5.531-7.13-8.175a.729.729,0,0,1-.212-.542c.009-.537,0-1.074,0-1.61,0-.423.175-.588.6-.594.818-.01,1.637.037,2.454-.043a5.061,5.061,0,0,0,2.615-.879,2.778,2.778,0,0,0,.984-1.341c.059-.169.018-.2-.147-.2q-2.948.007-5.9,0a.881.881,0,0,1-.3-.029.412.412,0,0,1-.305-.4c-.006-.516-.01-1.033,0-1.55a.426.426,0,0,1,.433-.438c.073-.006.147,0,.222,0q2.808,0,5.616,0c.064,0,.155.035.187-.023s-.041-.133-.077-.192a2.69,2.69,0,0,0-1.376-1.063,6.94,6.94,0,0,0-2.531-.376c-.624,0-1.248,0-1.872,0-.438,0-.607-.17-.608-.609,0-.571,0-1.141,0-1.711,0-.4.164-.566.561-.566q6,0,12,0c.385,0,.552.163.557.552q.01.664,0,1.328c-.006.388-.167.545-.558.546-1.033,0-2.067,0-3.1,0-.058,0-.135-.03-.167.026s.036.107.068.153a4.836,4.836,0,0,1,.762,1.737.214.214,0,0,0,.253.2c.731-.01,1.463-.005,2.195,0,.418,0,.572.153.575.568,0,.443,0,.885,0,1.329a.466.466,0,0,1-.535.527c-.731,0-1.463,0-2.194,0-.145,0-.207.03-.235.188a5.382,5.382,0,0,1-1.828,3.222,6.841,6.841,0,0,1-3.071,1.462c-.314.067-.631.117-.949.176.013.089.086.133.138.19,2.263,2.452,4.383,5.026,6.5,7.6.254.309.2.561-.167.811Z" transform="translate(-5122.961 -1364.012)"/>
      </g>
    </g>
  </g>
</svg>
