<svg xmlns="http://www.w3.org/2000/svg" width="168.143" height="17.947" viewBox="0 0 168.143 17.947">
  <g id="Group_4716" data-name="Group 4716" transform="translate(20188.143 20351)">
    <g id="Group_4715" data-name="Group 4715">
      <path id="Path_324" data-name="Path 324" d="M3743.206,4856.158c0-1.408,0-2.818,0-4.227,0-.177-.045-.238-.228-.233-.44.012-.881,0-1.322.007-.164,0-.225-.032-.223-.212q.014-1.378,0-2.756c0-.163.057-.2.205-.2.465.008.931,0,1.4,0,.131,0,.168-.043.169-.171.01-.764-.04-1.528.023-2.289a3.649,3.649,0,0,1,.979-2.32,3.283,3.283,0,0,1,2.067-.959c.89-.1,1.786-.024,2.679-.039.2,0,.409,0,.614,0,.095,0,.132.033.131.13q0,1.408,0,2.813c0,.12-.06.125-.15.125q-.875,0-1.75,0a.769.769,0,0,0-.881.862c0,.559,0,1.117,0,1.676,0,.142.047.179.183.178.813,0,1.626,0,2.439-.007.168,0,.212.045.194.211-.1.906-.193,1.813-.276,2.723-.017.185-.081.234-.263.23-.676-.011-1.353,0-2.03,0-.244,0-.245,0-.245.242q0,4.226,0,8.453c0,.188-.049.238-.237.237q-1.638-.015-3.277,0c-.169,0-.208-.05-.207-.21C3743.208,4859,3743.206,4857.579,3743.206,4856.158Z" transform="translate(-23929.58 -25193.752)" fill="#053a6e"/>
    </g>
    <path id="Path_325" data-name="Path 325" d="M3914.882,4786.83a4.5,4.5,0,0,1-1.77,2.328,8.975,8.975,0,0,0,2.319-.568c-.146.2-.283.4-.44.592a8.288,8.288,0,0,1-1.482,1.428.431.431,0,0,0-.191.406,12.534,12.534,0,0,1-4.045,9.513,11.217,11.217,0,0,1-5.7,2.881,12.679,12.679,0,0,1-6.066-.255,12.116,12.116,0,0,1-3-1.347.94.94,0,0,1-.089-.08,8.7,8.7,0,0,0,6.276-1.788,5.528,5.528,0,0,1-1.209-.242,4.311,4.311,0,0,1-2.7-2.605c-.06-.151-.029-.186.126-.16a4.13,4.13,0,0,0,1.693-.091c-.3-.113-.579-.178-.835-.3a4.274,4.274,0,0,1-2.562-3.824c-.01-.156.034-.172.163-.1a4.243,4.243,0,0,0,1.484.437c.067.008.135.009.218.014-.021-.1-.1-.134-.163-.179a4.317,4.317,0,0,1-1.438-4.8,4.649,4.649,0,0,1,.252-.6c.1-.2.1-.2.241-.032a12.319,12.319,0,0,0,7.83,4.275c.266.034.535.047.8.081.136.018.153-.021.132-.151a4.334,4.334,0,0,1,4.936-5.1,4.14,4.14,0,0,1,2.366,1.2.248.248,0,0,0,.262.073,8.834,8.834,0,0,0,2.343-.881C3914.7,4786.916,3914.768,4786.887,3914.882,4786.83Z" transform="translate(-24039.088 -25137.5)" fill="#053a6e"/>
    <g id="Group_4558" data-name="Group 4558" transform="translate(-20310 -21119)">
      <path id="Path_326" data-name="Path 326" d="M4186.937,4750.061a8.974,8.974,0,1,1-8.956,9.17A9,9,0,0,1,4186.937,4750.061Zm.016,12.59c.537,0,1.073.01,1.61,0a7.438,7.438,0,0,0,1.719-.215,1.567,1.567,0,0,0,1.236-1.346,9.168,9.168,0,0,0,.1-1.59,18.285,18.285,0,0,0-.08-2.381,1.609,1.609,0,0,0-1.293-1.489,6.109,6.109,0,0,0-1-.165,34.7,34.7,0,0,0-3.641-.054,9.039,9.039,0,0,0-1.809.181,1.622,1.622,0,0,0-1.443,1.572,9.978,9.978,0,0,0-.076,1.423,17.462,17.462,0,0,0,.08,2.354,1.589,1.589,0,0,0,1.334,1.511,6.417,6.417,0,0,0,1.213.178A18.437,18.437,0,0,0,4186.953,4762.651Z" transform="translate(-3954.93 -3982.061)" fill="#053a6e"/>
      <path id="Path_327" data-name="Path 327" d="M4260.957,4831.884c0-.287,0-.574,0-.86s.134-.365.39-.247c.661.307,1.321.616,1.982.923a.9.9,0,0,1,.1.053c.134.086.136.194,0,.27-.178.1-.363.178-.547.263-.511.239-1.023.478-1.536.713-.255.118-.382.031-.383-.253v-.862Z" transform="translate(-4029.873 -4054.916)" fill="#053a6e"/>
    </g>
    <g id="Group_3511" data-name="Group 3511" transform="translate(-20036.463 -20350)">
      <path id="Path_328" data-name="Path 328" d="M3663.914,4547.861c-1.172,0-2.345-.008-3.518,0a4.784,4.784,0,0,1-4.81-4.731q-.015-3.51,0-7.022a4.773,4.773,0,0,1,4.746-4.705c2.285,0,4.571.014,6.856,0a4.812,4.812,0,0,1,4.509,3.007,4.651,4.651,0,0,1,.343,1.755q0,3.428,0,6.856a4.8,4.8,0,0,1-3.226,4.58,4.934,4.934,0,0,1-1.59.264q-1.656,0-3.311,0Zm-.151-15.192h0q-1.725,0-3.449,0a3.2,3.2,0,0,0-1.458.336,3.442,3.442,0,0,0-2.009,3.264q-.014,3.406,0,6.814a3.488,3.488,0,0,0,3.49,3.507c2.327.012,4.654,0,6.98,0a3.338,3.338,0,0,0,1.229-.241,3.5,3.5,0,0,0,2.225-3.277q0-3.088,0-6.177a7.855,7.855,0,0,0-.035-1.217,3.492,3.492,0,0,0-3.5-3.011C3666.08,4532.665,3664.921,4532.668,3663.763,4532.668Z" transform="translate(-3655.578 -4531.4)" fill="#053a6e"/>
      <path id="Path_329" data-name="Path 329" d="M3801.61,4672.965a4.431,4.431,0,1,1-4.482-4.414A4.456,4.456,0,0,1,3801.61,4672.965Zm-7.6.085a3.167,3.167,0,1,0,3.05-3.233A3.163,3.163,0,0,0,3794.013,4673.051Z" transform="translate(-3788.947 -4664.752)" fill="#053a6e"/>
      <path id="Path_330" data-name="Path 330" d="M4112.658,4623.482a.63.63,0,1,1,.626.638A.631.631,0,0,1,4112.658,4623.482Z" transform="translate(-4099.994 -4620.318)" fill="#053a6e"/>
    </g>
  </g>
</svg>
