<svg id="Component_254_1" data-name="Component 254 – 1" xmlns="http://www.w3.org/2000/svg" width="605.096" height="92.935" viewBox="0 0 605.096 92.935">
  <defs>
    <style>
      #Component_254_1 .cls-1 {
        fill: #0074bb;
      }

      #Component_254_1 .cls-2 {
        fill: #f6921e;
      }

      #Component_254_1 .cls-3 {
        fill: #00a551;
      }

      #Component_254_1 .cls-4 {
        fill: #ef4e30;
      }
    </style>
  </defs>
  <g class="Group_5449 common_transition">
    <g id="Group_5449" data-name="Group 5449" transform="translate(-656.998 -816)">
      <path id="Path_4392" data-name="Path 4392" class="cls-1" d="M1004.458,2278.349,984.285,2318.7h40.345Z" transform="translate(-314.408 -1437.689)"/>
      <rect id="Rectangle_6753" data-name="Rectangle 6753" class="cls-2" width="29.464" height="29.464" transform="translate(669.215 854.936) rotate(-45)"/>
      <circle id="Ellipse_1008" data-name="Ellipse 1008" class="cls-3" cx="12.102" cy="12.102" r="12.102" transform="translate(677.945 816)"/>
      <rect id="Rectangle_6754" data-name="Rectangle 6754" class="cls-4" width="6.97" height="27.785" transform="translate(679.746 881.006)"/>
      <rect id="Rectangle_6755" data-name="Rectangle 6755" class="cls-4" width="6.97" height="27.785" transform="translate(693.836 881.006)"/>
      <rect id="Rectangle_6756" data-name="Rectangle 6756" class="cls-4" width="6.97" height="30.883" transform="translate(696.227 845.223) rotate(-45)"/>
      <rect id="Rectangle_6768" data-name="Rectangle 6768" class="cls-4" width="6.97" height="31.883" transform="translate(679.543 840.295) rotate(45)"/>
    </g>
  </g>
  <g class="Group_5443 common_transition">
    <g id="Group_5443" data-name="Group 5443" transform="translate(-656.998 -816)">
      <rect id="Rectangle_6762" data-name="Rectangle 6762" class="cls-3" width="6.97" height="39.121" transform="translate(1145.797 869.732)"/>
      <rect id="Rectangle_6763" data-name="Rectangle 6763" class="cls-3" width="6.97" height="39.121" transform="translate(1159.891 869.732)"/>
      <rect id="Rectangle_6764" data-name="Rectangle 6764" class="cls-2" width="20.905" height="20.905" transform="translate(1141.32 869.732) rotate(-45)"/>
      <rect id="Rectangle_6765" data-name="Rectangle 6765" class="cls-4" width="29.464" height="29.464" transform="translate(1141.371 840.27)"/>
      <rect id="Rectangle_6771" data-name="Rectangle 6771" class="cls-3" width="6.97" height="26.883" transform="translate(1165.836 845.289) rotate(-45)"/>
      <rect id="Rectangle_6778" data-name="Rectangle 6778" class="cls-3" width="6.97" height="27.883" transform="translate(1141.555 840.359) rotate(45)"/>
      <circle id="Ellipse_1011" data-name="Ellipse 1011" class="cls-1" cx="12.102" cy="12.102" r="12.102" transform="translate(1144 816.064)"/>
    </g>
  </g>
  <g class="Group_5446 common_transition">
    <g id="Group_5446" data-name="Group 5446" transform="translate(-656.998 -816)">
      <rect id="Rectangle_6751" data-name="Rectangle 6751" class="cls-1" width="19.223" height="27.785" transform="translate(914.34 881.07)"/>
      <rect id="Rectangle_6752" data-name="Rectangle 6752" class="cls-1" width="6.97" height="27.785" transform="translate(928.43 881.07)"/>
      <path id="Path_4391" data-name="Path 4391" class="cls-3" d="M1144.115,2304.649l-9.817-19.672h-20.256l-9.816,19.672,19.944,20.2Z" transform="translate(-199.529 -1431.342)"/>
      <rect id="Rectangle_6757" data-name="Rectangle 6757" class="cls-2" width="29.464" height="29.464" transform="translate(903.809 855.002) rotate(-45)"/>
      <rect id="Rectangle_6772" data-name="Rectangle 6772" class="cls-1" width="6.97" height="31.883" transform="translate(913.926 840.359) rotate(45)"/>
      <rect id="Rectangle_6773" data-name="Rectangle 6773" class="cls-1" width="6.97" height="30.883" transform="translate(930.43 845.289) rotate(-45)"/>
      <circle id="Ellipse_1012" data-name="Ellipse 1012" class="cls-4" cx="12.102" cy="12.102" r="12.102" transform="translate(912.586 816.064)"/>
    </g>
  </g>
  <g class="Group_5444 common_transition">
    <g id="Group_5444" data-name="Group 5444" transform="translate(-656.998 -816)">
      <rect id="Rectangle_6747" data-name="Rectangle 6747" class="cls-4" width="6.97" height="27.785" transform="translate(1066.551 881.07)"/>
      <rect id="Rectangle_6748" data-name="Rectangle 6748" class="cls-4" width="6.97" height="27.785" transform="translate(1080.641 881.07)"/>
      <rect id="Rectangle_6758" data-name="Rectangle 6758" class="cls-3" width="26.566" height="26.566" transform="translate(1063.781 857.02)"/>
      <rect id="Rectangle_6759" data-name="Rectangle 6759" class="cls-2" width="29.464" height="29.464" transform="translate(1056.02 855.002) rotate(-45)"/>
      <rect id="Rectangle_6776" data-name="Rectangle 6776" class="cls-1" width="6.97" height="28.883" transform="translate(1084.125 845.289) rotate(-45)"/>
      <rect id="Rectangle_6777" data-name="Rectangle 6777" class="cls-1" width="6.97" height="29.883" transform="translate(1066.348 840.359) rotate(45)"/>
      <circle id="Ellipse_1014" data-name="Ellipse 1014" class="cls-4" cx="12.102" cy="12.102" r="12.102" transform="translate(1064.961 816.064)"/>
    </g>
  </g>
  <g class="Group_5445 common_transition">
    <g id="Group_5445" data-name="Group 5445" transform="translate(-656.998 -816)">
      <rect id="Rectangle_6782" data-name="Rectangle 6782" class="cls-4" width="11.045" height="33.019" transform="translate(987.199 875.771)"/>
      <rect id="Rectangle_6783" data-name="Rectangle 6783" class="cls-4" width="11.045" height="33.019" transform="translate(1000.359 875.771)"/>
      <path id="Path_4394" data-name="Path 4394" class="cls-2" d="M1170.569,2271.969a12.1,12.1,0,0,1-24.2,0Z" transform="translate(-159.167 -1443.801)"/>
      <rect id="Rectangle_6784" data-name="Rectangle 6784" class="cls-1" width="24.204" height="56.208" transform="translate(987.199 840.66)"/>
      <path id="Path_4395" data-name="Path 4395" class="cls-1" d="M1170.569,2277.856v.065h-24.2v-.065a12.1,12.1,0,1,1,24.2,0Z" transform="translate(-159.167 -1449.752)"/>
      <rect id="Rectangle_6785" data-name="Rectangle 6785" class="cls-4" width="6.97" height="28.883" transform="translate(1006.473 845.58) rotate(-45)"/>
      <rect id="Rectangle_6786" data-name="Rectangle 6786" class="cls-4" width="6.97" height="29.883" transform="translate(987.199 840.652) rotate(45)"/>
    </g>
  </g>
  <g class="Group_5447 common_transition">
    <g id="Group_5447" data-name="Group 5447" transform="translate(-656.998 -816)">
      <circle id="Ellipse_1009" data-name="Ellipse 1009" class="cls-3" cx="12.102" cy="12.102" r="12.102" transform="translate(834.969 816)"/>
      <rect id="Rectangle_6760" data-name="Rectangle 6760" class="cls-3" width="6.97" height="27.785" transform="translate(836.543 881.15)"/>
      <rect id="Rectangle_6761" data-name="Rectangle 6761" class="cls-3" width="6.97" height="27.785" transform="translate(850.633 881.07)"/>
      <rect id="Rectangle_6766" data-name="Rectangle 6766" class="cls-4" width="29.464" height="29.464" transform="translate(832.34 855.002)"/>
      <rect id="Rectangle_6769" data-name="Rectangle 6769" class="cls-1" width="6.97" height="31.883" transform="translate(852.121 845.223) rotate(-45)"/>
      <rect id="Rectangle_6770" data-name="Rectangle 6770" class="cls-1" width="6.97" height="32.883" transform="translate(837.098 840.295) rotate(45)"/>
      <rect id="Rectangle_6787" data-name="Rectangle 6787" class="cls-2" width="20.905" height="20.905" transform="translate(832.289 855.002) rotate(-45)"/>
    </g>
  </g>
  <g class="Group_5442 common_transition">
    <g id="Group_5442" data-name="Group 5442" transform="translate(-656.998 -816)">
      <rect id="Rectangle_7012" data-name="Rectangle 7012" class="cls-1" width="9.204" height="34.129" transform="translate(1220.297 874.66)"/>
      <rect id="Rectangle_7013" data-name="Rectangle 7013" class="cls-1" width="9.204" height="34.129" transform="translate(1235.297 874.66)"/>
      <circle id="Ellipse_1036" data-name="Ellipse 1036" class="cls-2" cx="12.102" cy="12.102" r="12.102" transform="translate(1220.297 816)"/>
      <rect id="Rectangle_7011" data-name="Rectangle 7011" class="cls-4" width="6.97" height="24.883" transform="translate(1239.57 845.58) rotate(-45)"/>
      <rect id="Rectangle_7007" data-name="Rectangle 7007" class="cls-4" width="6.97" height="24.883" transform="translate(1220.297 840.652) rotate(45)"/>
      <rect id="Rectangle_7008" data-name="Rectangle 7008" class="cls-4" width="24.204" height="39.129" transform="translate(1220.297 840.66)"/>
      <rect id="Rectangle_7014" data-name="Rectangle 7014" class="cls-1" width="24.204" height="11.129" transform="translate(1220.297 868.66)"/>
    </g>
  </g>
  <g class="Group_5448 common_transition">
    <g id="Group_5448" data-name="Group 5448" transform="translate(-656.998 -816)">
      <circle id="Ellipse_1010" data-name="Ellipse 1010" class="cls-2" cx="12.102" cy="12.102" r="12.102" transform="translate(757.949 816)"/>
      <g id="Group_5385" data-name="Group 5385" transform="translate(9.355 -297.945)">
        <rect id="Rectangle_7005" data-name="Rectangle 7005" class="cls-1" width="6.97" height="29.73" transform="translate(751.594 1177.15)"/>
        <rect id="Rectangle_7006" data-name="Rectangle 7006" class="cls-1" width="6.97" height="29.73" transform="translate(765.684 1177.07)"/>
      </g>
      <rect id="Rectangle_6780" data-name="Rectangle 6780" class="cls-4" width="6.97" height="30.883" transform="translate(778.57 845.58) rotate(-45)"/>
      <rect id="Rectangle_6781" data-name="Rectangle 6781" class="cls-4" width="6.97" height="29.883" transform="translate(759.297 840.652) rotate(45)"/>
      <rect id="Rectangle_6779" data-name="Rectangle 6779" class="cls-3" width="24.204" height="11.129" transform="translate(758.949 840.66)"/>
      <rect id="Rectangle_7015" data-name="Rectangle 7015" class="cls-2" width="24.204" height="29.129" transform="translate(758.949 851.66)"/>
      <g id="Group_5384" data-name="Group 5384" transform="translate(9.296 -296)">
        <path id="Polygon_13" data-name="Polygon 13" class="cls-2" d="M11,0,22,12H0Z" transform="translate(761.652 1137) rotate(90)"/>
        <path id="Polygon_14" data-name="Polygon 14" class="cls-2" d="M11,0,22,12H0Z" transform="translate(761.652 1159) rotate(-90)"/>
      </g>
    </g>
  </g>
</svg>
