<svg xmlns="http://www.w3.org/2000/svg" width="21.01" height="17.16" viewBox="0 0 21.01 17.16">
  <path id="Path_325" data-name="Path 325" d="M3914.882,4786.83a4.5,4.5,0,0,1-1.77,2.328,8.975,8.975,0,0,0,2.319-.568c-.146.2-.283.4-.44.592a8.288,8.288,0,0,1-1.482,1.428.431.431,0,0,0-.191.406,12.534,12.534,0,0,1-4.045,9.513,11.217,11.217,0,0,1-5.7,2.881,12.679,12.679,0,0,1-6.066-.255,12.116,12.116,0,0,1-3-1.347.94.94,0,0,1-.089-.08,8.7,8.7,0,0,0,6.276-1.788,5.528,5.528,0,0,1-1.209-.242,4.311,4.311,0,0,1-2.7-2.605c-.06-.151-.029-.186.126-.16a4.13,4.13,0,0,0,1.693-.091c-.3-.113-.579-.178-.835-.3a4.274,4.274,0,0,1-2.562-3.824c-.01-.156.034-.172.163-.1a4.243,4.243,0,0,0,1.484.437c.067.008.135.009.218.014-.021-.1-.1-.134-.163-.179a4.317,4.317,0,0,1-1.438-4.8,4.649,4.649,0,0,1,.252-.6c.1-.2.1-.2.241-.032a12.319,12.319,0,0,0,7.83,4.275c.266.034.535.047.8.081.136.018.153-.021.132-.151a4.334,4.334,0,0,1,4.936-5.1,4.14,4.14,0,0,1,2.366,1.2.248.248,0,0,0,.262.073,8.834,8.834,0,0,0,2.343-.881C3914.7,4786.916,3914.768,4786.887,3914.882,4786.83Z" transform="translate(-3894.422 -4786.5)" fill="#fff"/>
</svg>
