<svg version="1.1" id="Layer_1_xylem" xmlns="http://www.w3.org/2000/svg" xmlns:xlink="http://www.w3.org/1999/xlink" x="0px" y="0px"
	 viewBox="0 0 222.7 88.4" style="enable-background:new 0 0 222.7 88.4;" xml:space="preserve">
<style type="text/css">
	#Layer_1_xylem .st0{fill:#007BC1;}
</style>
<g>
	<g>
		<path class="st0" d="M100.4,3.3v45.6c0,2.9,0.1,4.6,0.3,5.2c0.2,0.6,0.6,1.1,1.1,1.5c0.6,0.4,1.3,0.6,2.2,0.6c0.3,0,0.7,0,1-0.1
			c0.4-0.1,0.8-0.1,1.2-0.2l1.5,8c-1.2,0.3-2.3,0.6-3.3,0.7s-2,0.2-2.8,0.2c-2.4,0-4.5-0.5-6-1.6c-1.6-1-2.6-2.5-3.2-4.3
			s-0.8-5-0.8-9.5V3.3H100.4z"/>
	</g>
	<g>
		<path class="st0" d="M138.7,51.3l11,1.7c-1.4,3.7-3.6,6.5-6.7,8.5s-6.9,2.9-11.4,2.9c-7.2,0-12.6-2.2-16.1-6.6
			c-2.7-3.5-4.1-7.9-4.1-13.3c0-6.4,1.8-11.4,5.4-15c3.6-3.6,8.2-5.4,13.7-5.4c6.2,0,11.1,1.9,14.7,5.7c3.6,3.8,5.3,9.6,5.1,17.4
			h-27.6c0.1,3,1,5.4,2.7,7c1.7,1.7,3.8,2.5,6.4,2.5c1.7,0,3.2-0.4,4.4-1.3S138.1,53.3,138.7,51.3z M139.4,41.1
			c-0.1-2.9-0.9-5.2-2.5-6.7c-1.6-1.5-3.5-2.3-5.7-2.3c-2.4,0-4.4,0.8-6,2.4c-1.6,1.6-2.3,3.8-2.3,6.6H139.4z"/>
	</g>
	<path class="st0" d="M77.7,24.9L67.2,56c0,0-1.8,2.7-3.2,0.1c-0.6-1.2-10.3-24.8-10.3-24.8s-1.2-6.4-10.8-7.6
		c-6.4-0.8-11.2,3.2-12.7,5.5c-0.1,0.1-0.1,0.2-0.1,0.3l-5.5,8.1L15,24.8H4l15.5,19.7l-7.7,9.8C8,59.2,4,58.2,4,58.2v6.7h5.2
		C14,64.7,20.7,56,20.7,56l4-4.6L34,64.9h10.5L29.9,44.2l8.2-11.5c1.8-1.4,5.2-2.9,7.9,1.2c3.8,5.8,11,25.7,11.4,26.7
		c0,0,2.3,4.6,5.2,4.2c1.6-0.2-1.5,5.9-1.5,5.9c-0.5,2-1.3,3.6-2.3,4.9c-1,1.3-2.5,1.9-4.6,1.9c-1.1,0-2.4-0.1-3.8-0.4l0.8,7.4
		c1.6,0.4,3.3,0.6,5,0.6c1.7,0,3.2-0.2,4.5-0.6s2.5-0.9,3.4-1.6c0.9-0.7,1.7-1.6,2.4-2.7c0.7-1.1,1.4-2.7,2.2-4.7l2.1-6.2l15.6-44.5
		H77.7z"/>
	<path class="st0" d="M217.6,57.6c-0.4,0.1-0.7,0.1-1,0.1c-0.9,0-1.6-0.2-2.2-0.6c-0.6-0.4-1-0.8-1.1-1.4c-0.2-0.5-0.3-2.1-0.3-4.8
		l0.1-14.8c-1.4-6.9-7.5-12.2-14.9-12.2c-4.6,0-8.7,2-11.5,5.3c-2.8-3.2-6.9-5.3-11.5-5.3c-7.3,0-13.5,5.2-14.9,12.2v28.8h7.7
		l0.1-28.8c1-2.7,3.5-4.7,6.6-4.7c3,0,5.6,2,6.6,4.7l0,28.8h9.8l0-28.8c1-2.7,3.5-4.7,6.6-4.7c3,0,5.6,2,6.6,4.7l-0.1,15.3
		c0,4.2,0.3,7.1,0.8,8.8c0.6,1.7,1.6,3.1,3.2,4c1.6,1,3.6,1.4,6,1.4c0.9,0,1.8-0.1,2.8-0.2c0.5-0.1,1.1-0.2,1.7-0.3v-7.8
		C218.3,57.5,217.9,57.5,217.6,57.6z"/>
</g>
</svg>
