<svg xmlns="http://www.w3.org/2000/svg" width="17.947" height="17.947" viewBox="0 0 17.947 17.947">
  <g id="Group_4716" data-name="Group 4716" transform="translate(20086.951 20351)">
    <g id="Group_4558" data-name="Group 4558" transform="translate(-20310 -21119)">
      <path id="Path_326" data-name="Path 326" d="M4186.937,4750.061a8.974,8.974,0,1,1-8.956,9.17A9,9,0,0,1,4186.937,4750.061Zm.016,12.59c.537,0,1.073.01,1.61,0a7.438,7.438,0,0,0,1.719-.215,1.567,1.567,0,0,0,1.236-1.346,9.168,9.168,0,0,0,.1-1.59,18.285,18.285,0,0,0-.08-2.381,1.609,1.609,0,0,0-1.293-1.489,6.109,6.109,0,0,0-1-.165,34.7,34.7,0,0,0-3.641-.054,9.039,9.039,0,0,0-1.809.181,1.622,1.622,0,0,0-1.443,1.572,9.978,9.978,0,0,0-.076,1.423,17.462,17.462,0,0,0,.08,2.354,1.589,1.589,0,0,0,1.334,1.511,6.417,6.417,0,0,0,1.213.178A18.437,18.437,0,0,0,4186.953,4762.651Z" transform="translate(-3954.93 -3982.061)" fill="#053a6e"/>
      <path id="Path_327" data-name="Path 327" d="M4260.957,4831.884c0-.287,0-.574,0-.86s.134-.365.39-.247c.661.307,1.321.616,1.982.923a.9.9,0,0,1,.1.053c.134.086.136.194,0,.27-.178.1-.363.178-.547.263-.511.239-1.023.478-1.536.713-.255.118-.382.031-.383-.253v-.862Z" transform="translate(-4029.873 -4054.916)" fill="#053a6e"/>
    </g>
  </g>
</svg>
